  0
SECTION
  2
HEADER
  9
$INSBASE
 10
0.0000
 20
0.0000
  9
$EXTMIN
 10
15.417265
 20
-32.903244
  9
$EXTMAX
 10
63.402202
 20
32.903244
  9
$LIMMIN
 10
15.417265
 20
-32.903244
  9
$LIMMAX
 10
63.402202
 20
32.903244
  9
$TEXTSTYLE
  7
STANDARD
  9
$CLAYER
  8
default
  0
ENDSEC
  0
SECTION
  2
TABLES
  0
TABLE
  2
LTYPE
 70
4948253
  0
LTYPE
  2
CONTINUOUS
 70
    64
  3
Solid line
 72
    65
 73
     0
 40
0.0
  0
ENDTAB
  0
TABLE
  2
LAYER
 70
     5
  0
LAYER
  2
default
 70
    64
 62
     7
  6
CONTINUOUS
  0
LAYER
  2
layer 10
 70
    64
 62
     7
  6
CONTINUOUS
  0
ENDTAB
  0
TABLE
  2
STYLE
 70
     1
  0
STYLE
  2
STANDARD
 70
     0
 40
0.0
 41
1.0
 50
0.0
 71
     0
 42
0.2
  3
txt
  4

  0
ENDTAB
  0
TABLE
  2
VIEW
 70
     0
  0
ENDTAB
  0
ENDSEC
  0
SECTION
  2
BLOCKS
  0
ENDSEC
  0
SECTION
  2
ENTITIES
  0
LINE
  8
layer 10
 10
51.206390
 20
-23.877932
 30
0.0
 11
55.737929
 21
-25.991023
 31
0.0
  0
LINE
  8
layer 10
 10
51.615318
 20
-22.980620
 30
0.0
 11
56.183046
 21
-25.014304
 31
0.0
  0
LINE
  8
layer 10
 10
52.008524
 20
-22.076309
 30
0.0
 11
56.611048
 21
-24.029964
 31
0.0
  0
LINE
  8
layer 10
 10
52.385888
 20
-21.165273
 30
0.0
 11
57.021807
 21
-23.038305
 31
0.0
  0
LINE
  8
layer 10
 10
52.747294
 20
-20.247789
 30
0.0
 11
57.415196
 21
-22.039629
 31
0.0
  0
LINE
  8
layer 10
 10
53.092633
 20
-19.324138
 30
0.0
 11
57.791096
 21
-21.034239
 31
0.0
  0
LINE
  8
layer 10
 10
53.421800
 20
-18.394601
 30
0.0
 11
58.149392
 21
-20.022441
 31
0.0
  0
LINE
  8
layer 10
 10
53.734693
 20
-17.459460
 30
0.0
 11
58.489976
 21
-19.004545
 31
0.0
  0
LINE
  8
layer 10
 10
54.031219
 20
-16.519001
 30
0.0
 11
58.812742
 21
-17.980860
 31
0.0
  0
LINE
  8
layer 10
 10
54.311286
 20
-15.573511
 30
0.0
 11
59.117594
 21
-16.951697
 31
0.0
  0
LINE
  8
layer 10
 10
54.574809
 20
-14.623276
 30
0.0
 11
59.404438
 21
-15.917371
 31
0.0
  0
LINE
  8
layer 10
 10
54.821709
 20
-13.668587
 30
0.0
 11
59.673187
 21
-14.878197
 31
0.0
  0
LINE
  8
layer 10
 10
55.051909
 20
-12.709735
 30
0.0
 11
59.923759
 21
-13.834490
 31
0.0
  0
LINE
  8
layer 10
 10
55.265339
 20
-11.747011
 30
0.0
 11
60.156077
 21
-12.786569
 31
0.0
  0
LINE
  8
layer 10
 10
55.461936
 20
-10.780708
 30
0.0
 11
60.370072
 21
-11.734753
 31
0.0
  0
LINE
  8
layer 10
 10
55.641638
 20
-9.811122
 30
0.0
 11
60.565677
 21
-10.679363
 31
0.0
  0
LINE
  8
layer 10
 10
55.804391
 20
-8.838547
 30
0.0
 11
60.742833
 21
-9.620720
 31
0.0
  0
LINE
  8
layer 10
 10
55.950146
 20
-7.863280
 30
0.0
 11
60.901486
 21
-8.559146
 31
0.0
  0
LINE
  8
layer 10
 10
56.078858
 20
-6.885618
 30
0.0
 11
61.041588
 21
-7.494965
 31
0.0
  0
LINE
  8
layer 10
 10
56.190487
 20
-5.905858
 30
0.0
 11
61.163097
 21
-6.428500
 31
0.0
  0
LINE
  8
layer 10
 10
56.285000
 20
-4.924299
 30
0.0
 11
61.265974
 21
-5.360078
 31
0.0
  0
LINE
  8
layer 10
 10
56.362369
 20
-3.941241
 30
0.0
 11
61.350189
 21
-4.290023
 31
0.0
  0
LINE
  8
layer 10
 10
56.422569
 20
-2.956982
 30
0.0
 11
61.415716
 21
-3.218661
 31
0.0
  0
LINE
  8
layer 10
 10
56.465582
 20
-1.971822
 30
0.0
 11
61.462536
 21
-2.146319
 31
0.0
  0
LINE
  8
layer 10
 10
56.491395
 20
-0.986061
 30
0.0
 11
61.490633
 21
-1.073323
 31
0.0
  0
LINE
  8
layer 10
 10
51.206390
 20
23.877932
 30
0.0
 11
55.737929
 21
25.991023
 31
0.0
  0
LINE
  8
layer 10
 10
51.615318
 20
22.980620
 30
0.0
 11
56.183046
 21
25.014304
 31
0.0
  0
LINE
  8
layer 10
 10
52.008524
 20
22.076309
 30
0.0
 11
56.611048
 21
24.029964
 31
0.0
  0
LINE
  8
layer 10
 10
52.385888
 20
21.165273
 30
0.0
 11
57.021807
 21
23.038305
 31
0.0
  0
LINE
  8
layer 10
 10
52.747294
 20
20.247789
 30
0.0
 11
57.415196
 21
22.039629
 31
0.0
  0
LINE
  8
layer 10
 10
53.092633
 20
19.324138
 30
0.0
 11
57.791096
 21
21.034239
 31
0.0
  0
LINE
  8
layer 10
 10
53.421800
 20
18.394601
 30
0.0
 11
58.149392
 21
20.022441
 31
0.0
  0
LINE
  8
layer 10
 10
53.734693
 20
17.459460
 30
0.0
 11
58.489976
 21
19.004545
 31
0.0
  0
LINE
  8
layer 10
 10
54.031219
 20
16.519001
 30
0.0
 11
58.812742
 21
17.980860
 31
0.0
  0
LINE
  8
layer 10
 10
54.311286
 20
15.573511
 30
0.0
 11
59.117594
 21
16.951697
 31
0.0
  0
LINE
  8
layer 10
 10
54.574809
 20
14.623276
 30
0.0
 11
59.404438
 21
15.917371
 31
0.0
  0
LINE
  8
layer 10
 10
54.821709
 20
13.668587
 30
0.0
 11
59.673187
 21
14.878197
 31
0.0
  0
LINE
  8
layer 10
 10
55.051909
 20
12.709735
 30
0.0
 11
59.923759
 21
13.834490
 31
0.0
  0
LINE
  8
layer 10
 10
55.265339
 20
11.747011
 30
0.0
 11
60.156077
 21
12.786569
 31
0.0
  0
LINE
  8
layer 10
 10
55.461936
 20
10.780708
 30
0.0
 11
60.370072
 21
11.734753
 31
0.0
  0
LINE
  8
layer 10
 10
55.641638
 20
9.811122
 30
0.0
 11
60.565677
 21
10.679363
 31
0.0
  0
LINE
  8
layer 10
 10
55.804391
 20
8.838547
 30
0.0
 11
60.742833
 21
9.620720
 31
0.0
  0
LINE
  8
layer 10
 10
55.950146
 20
7.863280
 30
0.0
 11
60.901486
 21
8.559146
 31
0.0
  0
LINE
  8
layer 10
 10
56.078858
 20
6.885618
 30
0.0
 11
61.041588
 21
7.494965
 31
0.0
  0
LINE
  8
layer 10
 10
56.190487
 20
5.905858
 30
0.0
 11
61.163097
 21
6.428500
 31
0.0
  0
LINE
  8
layer 10
 10
56.285000
 20
4.924299
 30
0.0
 11
61.265974
 21
5.360078
 31
0.0
  0
LINE
  8
layer 10
 10
56.362369
 20
3.941241
 30
0.0
 11
61.350189
 21
4.290023
 31
0.0
  0
LINE
  8
layer 10
 10
56.422569
 20
2.956982
 30
0.0
 11
61.415716
 21
3.218661
 31
0.0
  0
LINE
  8
layer 10
 10
56.465582
 20
1.971822
 30
0.0
 11
61.462536
 21
2.146319
 31
0.0
  0
LINE
  8
layer 10
 10
56.491395
 20
0.986061
 30
0.0
 11
61.490633
 21
1.073323
 31
0.0
  0
LINE
  8
layer 10
 10
53.693576
 20
-31.000000
 30
0.0
 11
48.930435
 21
-28.250000
 31
0.0
  0
LINE
  8
layer 10
 10
48.930435
 20
-28.250000
 30
0.0
 11
17.320508
 21
-10.000000
 31
0.0
  0
LINE
  8
layer 10
 10
53.693576
 20
31.000000
 30
0.0
 11
48.930435
 21
28.250000
 31
0.0
  0
LINE
  8
layer 10
 10
48.930435
 20
28.250000
 30
0.0
 11
17.320508
 21
10.000000
 31
0.0
  0
ARC
  8
layer 10
 10
0.000000
 20
0.000000
 30
0.000000
 40
56.500000
 50
330.000000
 51
335.000000
  0
ARC
  8
layer 10
 10
0.000000
 20
-0.000000
 30
0.000000
 40
56.500000
 50
335.000000
 51
336.000000
  0
ARC
  8
layer 10
 10
0.000000
 20
0.000000
 30
0.000000
 40
56.500000
 50
336.000000
 51
337.000000
  0
ARC
  8
layer 10
 10
-0.000000
 20
-0.000000
 30
0.000000
 40
56.500000
 50
337.000000
 51
338.000000
  0
ARC
  8
layer 10
 10
-0.000000
 20
-0.000000
 30
0.000000
 40
56.500000
 50
338.000000
 51
339.000000
  0
ARC
  8
layer 10
 10
0.000000
 20
0.000000
 30
0.000000
 40
56.500000
 50
339.000000
 51
340.000000
  0
ARC
  8
layer 10
 10
0.000000
 20
0.000000
 30
0.000000
 40
56.500000
 50
340.000000
 51
341.000000
  0
ARC
  8
layer 10
 10
-0.000000
 20
0.000000
 30
0.000000
 40
56.500000
 50
341.000000
 51
342.000000
  0
ARC
  8
layer 10
 10
0.000000
 20
-0.000000
 30
0.000000
 40
56.500000
 50
342.000000
 51
343.000000
  0
ARC
  8
layer 10
 10
0.000000
 20
-0.000000
 30
0.000000
 40
56.500000
 50
343.000000
 51
344.000000
  0
ARC
  8
layer 10
 10
-0.000000
 20
0.000000
 30
0.000000
 40
56.500000
 50
344.000000
 51
345.000000
  0
ARC
  8
layer 10
 10
-0.000000
 20
-0.000000
 30
0.000000
 40
56.500000
 50
345.000000
 51
346.000000
  0
ARC
  8
layer 10
 10
0.000000
 20
0.000000
 30
0.000000
 40
56.500000
 50
346.000000
 51
347.000000
  0
ARC
  8
layer 10
 10
0.000000
 20
-0.000000
 30
0.000000
 40
56.500000
 50
347.000000
 51
348.000000
  0
ARC
  8
layer 10
 10
-0.000000
 20
-0.000000
 30
0.000000
 40
56.500000
 50
348.000000
 51
349.000000
  0
ARC
  8
layer 10
 10
0.000000
 20
0.000000
 30
0.000000
 40
56.500000
 50
349.000000
 51
350.000000
  0
ARC
  8
layer 10
 10
0.000000
 20
0.000000
 30
0.000000
 40
56.500000
 50
350.000000
 51
351.000000
  0
ARC
  8
layer 10
 10
0.000000
 20
-0.000000
 30
0.000000
 40
56.500000
 50
351.000000
 51
352.000000
  0
ARC
  8
layer 10
 10
-0.000000
 20
-0.000000
 30
0.000000
 40
56.500000
 50
352.000000
 51
353.000000
  0
ARC
  8
layer 10
 10
0.000000
 20
0.000000
 30
0.000000
 40
56.500000
 50
353.000000
 51
354.000000
  0
ARC
  8
layer 10
 10
0.000000
 20
0.000000
 30
0.000000
 40
56.500000
 50
354.000000
 51
355.000000
  0
ARC
  8
layer 10
 10
0.000000
 20
0.000000
 30
0.000000
 40
56.500000
 50
355.000000
 51
356.000000
  0
ARC
  8
layer 10
 10
0.000000
 20
-0.000000
 30
0.000000
 40
56.500000
 50
356.000000
 51
357.000000
  0
ARC
  8
layer 10
 10
0.000000
 20
0.000000
 30
0.000000
 40
56.500000
 50
357.000000
 51
358.000000
  0
ARC
  8
layer 10
 10
-0.000000
 20
-0.000000
 30
0.000000
 40
56.500000
 50
358.000000
 51
359.000000
  0
ARC
  8
layer 10
 10
0.000000
 20
0.000000
 30
0.000000
 40
56.500000
 50
359.000000
 51
1.000000
  0
ARC
  8
layer 10
 10
-0.000000
 20
0.000000
 30
0.000000
 40
56.500000
 50
1.000000
 51
2.000000
  0
ARC
  8
layer 10
 10
0.000000
 20
-0.000000
 30
0.000000
 40
56.500000
 50
2.000000
 51
3.000000
  0
ARC
  8
layer 10
 10
0.000000
 20
0.000000
 30
0.000000
 40
56.500000
 50
3.000000
 51
4.000000
  0
ARC
  8
layer 10
 10
0.000000
 20
-0.000000
 30
0.000000
 40
56.500000
 50
4.000000
 51
5.000000
  0
ARC
  8
layer 10
 10
0.000000
 20
-0.000000
 30
0.000000
 40
56.500000
 50
5.000000
 51
6.000000
  0
ARC
  8
layer 10
 10
0.000000
 20
-0.000000
 30
0.000000
 40
56.500000
 50
6.000000
 51
7.000000
  0
ARC
  8
layer 10
 10
0.000000
 20
0.000000
 30
0.000000
 40
56.500000
 50
7.000000
 51
8.000000
  0
ARC
  8
layer 10
 10
0.000000
 20
0.000000
 30
0.000000
 40
56.500000
 50
8.000000
 51
9.000000
  0
ARC
  8
layer 10
 10
0.000000
 20
-0.000000
 30
0.000000
 40
56.500000
 50
9.000000
 51
10.000000
  0
ARC
  8
layer 10
 10
0.000000
 20
-0.000000
 30
0.000000
 40
56.500000
 50
10.000000
 51
11.000000
  0
ARC
  8
layer 10
 10
0.000000
 20
0.000000
 30
0.000000
 40
56.500000
 50
11.000000
 51
12.000000
  0
ARC
  8
layer 10
 10
-0.000000
 20
0.000000
 30
0.000000
 40
56.500000
 50
12.000000
 51
13.000000
  0
ARC
  8
layer 10
 10
0.000000
 20
-0.000000
 30
0.000000
 40
56.500000
 50
13.000000
 51
14.000000
  0
ARC
  8
layer 10
 10
0.000000
 20
0.000000
 30
0.000000
 40
56.500000
 50
14.000000
 51
15.000000
  0
ARC
  8
layer 10
 10
-0.000000
 20
-0.000000
 30
0.000000
 40
56.500000
 50
15.000000
 51
16.000000
  0
ARC
  8
layer 10
 10
0.000000
 20
0.000000
 30
0.000000
 40
56.500000
 50
16.000000
 51
17.000000
  0
ARC
  8
layer 10
 10
0.000000
 20
0.000000
 30
0.000000
 40
56.500000
 50
17.000000
 51
18.000000
  0
ARC
  8
layer 10
 10
-0.000000
 20
-0.000000
 30
0.000000
 40
56.500000
 50
18.000000
 51
19.000000
  0
ARC
  8
layer 10
 10
0.000000
 20
-0.000000
 30
0.000000
 40
56.500000
 50
19.000000
 51
20.000000
  0
ARC
  8
layer 10
 10
0.000000
 20
-0.000000
 30
0.000000
 40
56.500000
 50
20.000000
 51
21.000000
  0
ARC
  8
layer 10
 10
-0.000000
 20
0.000000
 30
0.000000
 40
56.500000
 50
21.000000
 51
22.000000
  0
ARC
  8
layer 10
 10
-0.000000
 20
0.000000
 30
0.000000
 40
56.500000
 50
22.000000
 51
23.000000
  0
ARC
  8
layer 10
 10
0.000000
 20
-0.000000
 30
0.000000
 40
56.500000
 50
23.000000
 51
24.000000
  0
ARC
  8
layer 10
 10
0.000000
 20
0.000000
 30
0.000000
 40
56.500000
 50
24.000000
 51
25.000000
  0
ARC
  8
layer 10
 10
0.000000
 20
-0.000000
 30
0.000000
 40
56.500000
 50
25.000000
 51
30.000000
  0
ARC
  8
layer 10
 10
0.000000
 20
0.000000
 30
0.000000
 40
61.500000
 50
335.000000
 51
336.000000
  0
ARC
  8
layer 10
 10
0.000000
 20
-0.000000
 30
0.000000
 40
61.500000
 50
336.000000
 51
337.000000
  0
ARC
  8
layer 10
 10
-0.000000
 20
-0.000000
 30
0.000000
 40
61.500000
 50
337.000000
 51
338.000000
  0
ARC
  8
layer 10
 10
-0.000000
 20
0.000000
 30
0.000000
 40
61.500000
 50
338.000000
 51
339.000000
  0
ARC
  8
layer 10
 10
0.000000
 20
0.000000
 30
0.000000
 40
61.500000
 50
339.000000
 51
340.000000
  0
ARC
  8
layer 10
 10
-0.000000
 20
-0.000000
 30
0.000000
 40
61.500000
 50
340.000000
 51
341.000000
  0
ARC
  8
layer 10
 10
-0.000000
 20
-0.000000
 30
0.000000
 40
61.500000
 50
341.000000
 51
342.000000
  0
ARC
  8
layer 10
 10
0.000000
 20
-0.000000
 30
0.000000
 40
61.500000
 50
342.000000
 51
343.000000
  0
ARC
  8
layer 10
 10
-0.000000
 20
0.000000
 30
0.000000
 40
61.500000
 50
343.000000
 51
344.000000
  0
ARC
  8
layer 10
 10
-0.000000
 20
-0.000000
 30
0.000000
 40
61.500000
 50
344.000000
 51
345.000000
  0
ARC
  8
layer 10
 10
-0.000000
 20
-0.000000
 30
0.000000
 40
61.500000
 50
345.000000
 51
346.000000
  0
ARC
  8
layer 10
 10
0.000000
 20
-0.000000
 30
0.000000
 40
61.500000
 50
346.000000
 51
347.000000
  0
ARC
  8
layer 10
 10
0.000000
 20
0.000000
 30
0.000000
 40
61.500000
 50
347.000000
 51
348.000000
  0
ARC
  8
layer 10
 10
0.000000
 20
-0.000000
 30
0.000000
 40
61.500000
 50
348.000000
 51
349.000000
  0
ARC
  8
layer 10
 10
0.000000
 20
-0.000000
 30
0.000000
 40
61.500000
 50
349.000000
 51
350.000000
  0
ARC
  8
layer 10
 10
0.000000
 20
-0.000000
 30
0.000000
 40
61.500000
 50
350.000000
 51
351.000000
  0
ARC
  8
layer 10
 10
-0.000000
 20
0.000000
 30
0.000000
 40
61.500000
 50
351.000000
 51
352.000000
  0
ARC
  8
layer 10
 10
0.000000
 20
0.000000
 30
0.000000
 40
61.500000
 50
352.000000
 51
353.000000
  0
ARC
  8
layer 10
 10
0.000000
 20
0.000000
 30
0.000000
 40
61.500000
 50
353.000000
 51
354.000000
  0
ARC
  8
layer 10
 10
0.000000
 20
-0.000000
 30
0.000000
 40
61.500000
 50
354.000000
 51
355.000000
  0
ARC
  8
layer 10
 10
0.000000
 20
-0.000000
 30
0.000000
 40
61.500000
 50
355.000000
 51
356.000000
  0
ARC
  8
layer 10
 10
0.000000
 20
0.000000
 30
0.000000
 40
61.500000
 50
356.000000
 51
357.000000
  0
ARC
  8
layer 10
 10
0.000000
 20
-0.000000
 30
0.000000
 40
61.500000
 50
357.000000
 51
358.000000
  0
ARC
  8
layer 10
 10
0.000000
 20
0.000000
 30
0.000000
 40
61.500000
 50
358.000000
 51
359.000000
  0
ARC
  8
layer 10
 10
0.000000
 20
0.000000
 30
0.000000
 40
61.500000
 50
359.000000
 51
1.000000
  0
ARC
  8
layer 10
 10
0.000000
 20
-0.000000
 30
0.000000
 40
61.500000
 50
1.000000
 51
2.000000
  0
ARC
  8
layer 10
 10
0.000000
 20
0.000000
 30
0.000000
 40
61.500000
 50
2.000000
 51
3.000000
  0
ARC
  8
layer 10
 10
0.000000
 20
-0.000000
 30
0.000000
 40
61.500000
 50
3.000000
 51
4.000000
  0
ARC
  8
layer 10
 10
0.000000
 20
0.000000
 30
0.000000
 40
61.500000
 50
4.000000
 51
5.000000
  0
ARC
  8
layer 10
 10
0.000000
 20
0.000000
 30
0.000000
 40
61.500000
 50
5.000000
 51
6.000000
  0
ARC
  8
layer 10
 10
0.000000
 20
-0.000000
 30
0.000000
 40
61.500000
 50
6.000000
 51
7.000000
  0
ARC
  8
layer 10
 10
0.000000
 20
-0.000000
 30
0.000000
 40
61.500000
 50
7.000000
 51
8.000000
  0
ARC
  8
layer 10
 10
0.000000
 20
-0.000000
 30
0.000000
 40
61.500000
 50
8.000000
 51
9.000000
  0
ARC
  8
layer 10
 10
0.000000
 20
0.000000
 30
0.000000
 40
61.500000
 50
9.000000
 51
10.000000
  0
ARC
  8
layer 10
 10
0.000000
 20
0.000000
 30
0.000000
 40
61.500000
 50
10.000000
 51
11.000000
  0
ARC
  8
layer 10
 10
-0.000000
 20
0.000000
 30
0.000000
 40
61.500000
 50
11.000000
 51
12.000000
  0
ARC
  8
layer 10
 10
0.000000
 20
-0.000000
 30
0.000000
 40
61.500000
 50
12.000000
 51
13.000000
  0
ARC
  8
layer 10
 10
0.000000
 20
0.000000
 30
0.000000
 40
61.500000
 50
13.000000
 51
14.000000
  0
ARC
  8
layer 10
 10
0.000000
 20
0.000000
 30
0.000000
 40
61.500000
 50
14.000000
 51
15.000000
  0
ARC
  8
layer 10
 10
-0.000000
 20
0.000000
 30
0.000000
 40
61.500000
 50
15.000000
 51
16.000000
  0
ARC
  8
layer 10
 10
0.000000
 20
-0.000000
 30
0.000000
 40
61.500000
 50
16.000000
 51
17.000000
  0
ARC
  8
layer 10
 10
0.000000
 20
0.000000
 30
0.000000
 40
61.500000
 50
17.000000
 51
18.000000
  0
ARC
  8
layer 10
 10
-0.000000
 20
0.000000
 30
0.000000
 40
61.500000
 50
18.000000
 51
19.000000
  0
ARC
  8
layer 10
 10
0.000000
 20
0.000000
 30
0.000000
 40
61.500000
 50
19.000000
 51
20.000000
  0
ARC
  8
layer 10
 10
0.000000
 20
-0.000000
 30
0.000000
 40
61.500000
 50
20.000000
 51
21.000000
  0
ARC
  8
layer 10
 10
-0.000000
 20
-0.000000
 30
0.000000
 40
61.500000
 50
21.000000
 51
22.000000
  0
ARC
  8
layer 10
 10
0.000000
 20
0.000000
 30
0.000000
 40
61.500000
 50
22.000000
 51
23.000000
  0
ARC
  8
layer 10
 10
0.000000
 20
0.000000
 30
0.000000
 40
61.500000
 50
23.000000
 51
24.000000
  0
ARC
  8
layer 10
 10
0.000000
 20
-0.000000
 30
0.000000
 40
61.500000
 50
24.000000
 51
25.000000
  0
ARC
  8
layer 10
 10
-0.000000
 20
0.000000
 30
0.000000
 40
20.000000
 50
330.000000
 51
30.000000
  0
ENDSEC
  0
EOF
