  0
SECTION
  2
HEADER
  9
$INSBASE
 10
0.0000
 20
0.0000
  9
$EXTMIN
 10
-57.383285
 20
-34.689710
  9
$EXTMAX
 10
65.188669
 20
64.955683
  9
$LIMMIN
 10
-57.383285
 20
-34.689710
  9
$LIMMAX
 10
65.188669
 20
64.955683
  9
$TEXTSTYLE
  7
STANDARD
  9
$CLAYER
  8
default
  0
ENDSEC
  0
SECTION
  2
TABLES
  0
TABLE
  2
LTYPE
 70
4948253
  0
LTYPE
  2
CONTINUOUS
 70
    64
  3
Solid line
 72
    65
 73
     0
 40
0.0
  0
ENDTAB
  0
TABLE
  2
LAYER
 70
     5
  0
LAYER
  2
default
 70
    64
 62
     7
  6
CONTINUOUS
  0
LAYER
  2
layer 10
 70
    64
 62
     7
  6
CONTINUOUS
  0
ENDTAB
  0
TABLE
  2
STYLE
 70
     1
  0
STYLE
  2
STANDARD
 70
     0
 40
0.0
 41
1.0
 50
0.0
 71
     0
 42
0.2
  3
txt
  4

  0
ENDTAB
  0
TABLE
  2
VIEW
 70
     0
  0
ENDTAB
  0
ENDSEC
  0
SECTION
  2
BLOCKS
  0
ENDSEC
  0
SECTION
  2
ENTITIES
  0
LINE
  8
layer 10
 10
51.206390
 20
-23.877932
 30
0.0
 11
55.737929
 21
-25.991023
 31
0.0
  0
LINE
  8
layer 10
 10
51.615318
 20
-22.980620
 30
0.0
 11
56.183046
 21
-25.014304
 31
0.0
  0
LINE
  8
layer 10
 10
52.008524
 20
-22.076309
 30
0.0
 11
56.611048
 21
-24.029964
 31
0.0
  0
LINE
  8
layer 10
 10
52.385888
 20
-21.165273
 30
0.0
 11
57.021807
 21
-23.038305
 31
0.0
  0
LINE
  8
layer 10
 10
52.747294
 20
-20.247789
 30
0.0
 11
57.415196
 21
-22.039629
 31
0.0
  0
LINE
  8
layer 10
 10
53.092633
 20
-19.324138
 30
0.0
 11
57.791096
 21
-21.034239
 31
0.0
  0
LINE
  8
layer 10
 10
53.421800
 20
-18.394601
 30
0.0
 11
58.149392
 21
-20.022441
 31
0.0
  0
LINE
  8
layer 10
 10
53.734693
 20
-17.459460
 30
0.0
 11
58.489976
 21
-19.004545
 31
0.0
  0
LINE
  8
layer 10
 10
54.031219
 20
-16.519001
 30
0.0
 11
58.812742
 21
-17.980860
 31
0.0
  0
LINE
  8
layer 10
 10
54.311286
 20
-15.573511
 30
0.0
 11
59.117594
 21
-16.951697
 31
0.0
  0
LINE
  8
layer 10
 10
54.574809
 20
-14.623276
 30
0.0
 11
59.404438
 21
-15.917371
 31
0.0
  0
LINE
  8
layer 10
 10
54.821709
 20
-13.668587
 30
0.0
 11
59.673187
 21
-14.878197
 31
0.0
  0
LINE
  8
layer 10
 10
55.051909
 20
-12.709735
 30
0.0
 11
59.923759
 21
-13.834490
 31
0.0
  0
LINE
  8
layer 10
 10
55.265339
 20
-11.747011
 30
0.0
 11
60.156077
 21
-12.786569
 31
0.0
  0
LINE
  8
layer 10
 10
55.461936
 20
-10.780708
 30
0.0
 11
60.370072
 21
-11.734753
 31
0.0
  0
LINE
  8
layer 10
 10
55.641638
 20
-9.811122
 30
0.0
 11
60.565677
 21
-10.679363
 31
0.0
  0
LINE
  8
layer 10
 10
55.804391
 20
-8.838547
 30
0.0
 11
60.742833
 21
-9.620720
 31
0.0
  0
LINE
  8
layer 10
 10
55.950146
 20
-7.863280
 30
0.0
 11
60.901486
 21
-8.559146
 31
0.0
  0
LINE
  8
layer 10
 10
56.078858
 20
-6.885618
 30
0.0
 11
61.041588
 21
-7.494965
 31
0.0
  0
LINE
  8
layer 10
 10
56.190487
 20
-5.905858
 30
0.0
 11
61.163097
 21
-6.428500
 31
0.0
  0
LINE
  8
layer 10
 10
56.285000
 20
-4.924299
 30
0.0
 11
61.265974
 21
-5.360078
 31
0.0
  0
LINE
  8
layer 10
 10
56.362369
 20
-3.941241
 30
0.0
 11
61.350189
 21
-4.290023
 31
0.0
  0
LINE
  8
layer 10
 10
56.422569
 20
-2.956982
 30
0.0
 11
61.415716
 21
-3.218661
 31
0.0
  0
LINE
  8
layer 10
 10
56.465582
 20
-1.971822
 30
0.0
 11
61.462536
 21
-2.146319
 31
0.0
  0
LINE
  8
layer 10
 10
56.491395
 20
-0.986061
 30
0.0
 11
61.490633
 21
-1.073323
 31
0.0
  0
LINE
  8
layer 10
 10
51.206390
 20
23.877932
 30
0.0
 11
55.737929
 21
25.991023
 31
0.0
  0
LINE
  8
layer 10
 10
51.615318
 20
22.980620
 30
0.0
 11
56.183046
 21
25.014304
 31
0.0
  0
LINE
  8
layer 10
 10
52.008524
 20
22.076309
 30
0.0
 11
56.611048
 21
24.029964
 31
0.0
  0
LINE
  8
layer 10
 10
52.385888
 20
21.165273
 30
0.0
 11
57.021807
 21
23.038305
 31
0.0
  0
LINE
  8
layer 10
 10
52.747294
 20
20.247789
 30
0.0
 11
57.415196
 21
22.039629
 31
0.0
  0
LINE
  8
layer 10
 10
53.092633
 20
19.324138
 30
0.0
 11
57.791096
 21
21.034239
 31
0.0
  0
LINE
  8
layer 10
 10
53.421800
 20
18.394601
 30
0.0
 11
58.149392
 21
20.022441
 31
0.0
  0
LINE
  8
layer 10
 10
53.734693
 20
17.459460
 30
0.0
 11
58.489976
 21
19.004545
 31
0.0
  0
LINE
  8
layer 10
 10
54.031219
 20
16.519001
 30
0.0
 11
58.812742
 21
17.980860
 31
0.0
  0
LINE
  8
layer 10
 10
54.311286
 20
15.573511
 30
0.0
 11
59.117594
 21
16.951697
 31
0.0
  0
LINE
  8
layer 10
 10
54.574809
 20
14.623276
 30
0.0
 11
59.404438
 21
15.917371
 31
0.0
  0
LINE
  8
layer 10
 10
54.821709
 20
13.668587
 30
0.0
 11
59.673187
 21
14.878197
 31
0.0
  0
LINE
  8
layer 10
 10
55.051909
 20
12.709735
 30
0.0
 11
59.923759
 21
13.834490
 31
0.0
  0
LINE
  8
layer 10
 10
55.265339
 20
11.747011
 30
0.0
 11
60.156077
 21
12.786569
 31
0.0
  0
LINE
  8
layer 10
 10
55.461936
 20
10.780708
 30
0.0
 11
60.370072
 21
11.734753
 31
0.0
  0
LINE
  8
layer 10
 10
55.641638
 20
9.811122
 30
0.0
 11
60.565677
 21
10.679363
 31
0.0
  0
LINE
  8
layer 10
 10
55.804391
 20
8.838547
 30
0.0
 11
60.742833
 21
9.620720
 31
0.0
  0
LINE
  8
layer 10
 10
55.950146
 20
7.863280
 30
0.0
 11
60.901486
 21
8.559146
 31
0.0
  0
LINE
  8
layer 10
 10
56.078858
 20
6.885618
 30
0.0
 11
61.041588
 21
7.494965
 31
0.0
  0
LINE
  8
layer 10
 10
56.190487
 20
5.905858
 30
0.0
 11
61.163097
 21
6.428500
 31
0.0
  0
LINE
  8
layer 10
 10
56.285000
 20
4.924299
 30
0.0
 11
61.265974
 21
5.360078
 31
0.0
  0
LINE
  8
layer 10
 10
56.362369
 20
3.941241
 30
0.0
 11
61.350189
 21
4.290023
 31
0.0
  0
LINE
  8
layer 10
 10
56.422569
 20
2.956982
 30
0.0
 11
61.415716
 21
3.218661
 31
0.0
  0
LINE
  8
layer 10
 10
56.465582
 20
1.971822
 30
0.0
 11
61.462536
 21
2.146319
 31
0.0
  0
LINE
  8
layer 10
 10
56.491395
 20
0.986061
 30
0.0
 11
61.490633
 21
1.073323
 31
0.0
  0
LINE
  8
layer 10
 10
46.282091
 20
32.407069
 30
0.0
 11
50.377851
 21
35.274951
 31
0.0
  0
LINE
  8
layer 10
 10
45.709460
 20
33.209867
 30
0.0
 11
49.754545
 21
36.148793
 31
0.0
  0
LINE
  8
layer 10
 10
45.122906
 20
34.002549
 30
0.0
 11
49.116084
 21
37.011624
 31
0.0
  0
LINE
  8
layer 10
 10
44.522608
 20
34.784873
 30
0.0
 11
48.462661
 21
37.863181
 31
0.0
  0
LINE
  8
layer 10
 10
43.908747
 20
35.556602
 30
0.0
 11
47.794477
 21
38.703204
 31
0.0
  0
LINE
  8
layer 10
 10
43.281511
 20
36.317500
 30
0.0
 11
47.111733
 21
39.531438
 31
0.0
  0
LINE
  8
layer 10
 10
42.641091
 20
37.067335
 30
0.0
 11
46.414639
 21
40.347630
 31
0.0
  0
LINE
  8
layer 10
 10
41.987683
 20
37.805879
 30
0.0
 11
45.703407
 21
41.151532
 31
0.0
  0
LINE
  8
layer 10
 10
41.321484
 20
38.532907
 30
0.0
 11
44.978253
 21
41.942899
 31
0.0
  0
LINE
  8
layer 10
 10
40.642699
 20
39.248198
 30
0.0
 11
44.239398
 21
42.721490
 31
0.0
  0
LINE
  8
layer 10
 10
39.951533
 20
39.951533
 30
0.0
 11
43.487067
 21
43.487067
 31
0.0
  0
LINE
  8
layer 10
 10
39.248198
 20
40.642699
 30
0.0
 11
42.721490
 21
44.239398
 31
0.0
  0
LINE
  8
layer 10
 10
38.532907
 20
41.321484
 30
0.0
 11
41.942899
 21
44.978253
 31
0.0
  0
LINE
  8
layer 10
 10
37.805879
 20
41.987683
 30
0.0
 11
41.151532
 21
45.703407
 31
0.0
  0
LINE
  8
layer 10
 10
37.067335
 20
42.641091
 30
0.0
 11
40.347630
 21
46.414639
 31
0.0
  0
LINE
  8
layer 10
 10
36.317500
 20
43.281511
 30
0.0
 11
39.531438
 21
47.111733
 31
0.0
  0
LINE
  8
layer 10
 10
35.556602
 20
43.908747
 30
0.0
 11
38.703204
 21
47.794477
 31
0.0
  0
LINE
  8
layer 10
 10
34.784873
 20
44.522608
 30
0.0
 11
37.863181
 21
48.462661
 31
0.0
  0
LINE
  8
layer 10
 10
34.002549
 20
45.122906
 30
0.0
 11
37.011624
 21
49.116084
 31
0.0
  0
LINE
  8
layer 10
 10
33.209867
 20
45.709460
 30
0.0
 11
36.148793
 21
49.754545
 31
0.0
  0
LINE
  8
layer 10
 10
32.407069
 20
46.282091
 30
0.0
 11
35.274951
 21
50.377851
 31
0.0
  0
LINE
  8
layer 10
 10
31.594399
 20
46.840623
 30
0.0
 11
34.390364
 21
50.985811
 31
0.0
  0
LINE
  8
layer 10
 10
30.772105
 20
47.384887
 30
0.0
 11
33.495301
 21
51.578240
 31
0.0
  0
LINE
  8
layer 10
 10
29.940438
 20
47.914717
 30
0.0
 11
32.590035
 21
52.154958
 31
0.0
  0
LINE
  8
layer 10
 10
29.099651
 20
48.429952
 30
0.0
 11
31.674842
 21
52.715789
 31
0.0
  0
LINE
  8
layer 10
 10
4.924299
 20
56.285000
 30
0.0
 11
5.360078
 21
61.265974
 31
0.0
  0
LINE
  8
layer 10
 10
5.905858
 20
56.190487
 30
0.0
 11
6.428500
 21
61.163097
 31
0.0
  0
LINE
  8
layer 10
 10
6.885618
 20
56.078858
 30
0.0
 11
7.494965
 21
61.041588
 31
0.0
  0
LINE
  8
layer 10
 10
7.863280
 20
55.950146
 30
0.0
 11
8.559146
 21
60.901486
 31
0.0
  0
LINE
  8
layer 10
 10
8.838547
 20
55.804391
 30
0.0
 11
9.620720
 21
60.742833
 31
0.0
  0
LINE
  8
layer 10
 10
9.811122
 20
55.641638
 30
0.0
 11
10.679363
 21
60.565677
 31
0.0
  0
LINE
  8
layer 10
 10
10.780708
 20
55.461936
 30
0.0
 11
11.734753
 21
60.370072
 31
0.0
  0
LINE
  8
layer 10
 10
11.747011
 20
55.265339
 30
0.0
 11
12.786569
 21
60.156077
 31
0.0
  0
LINE
  8
layer 10
 10
12.709735
 20
55.051909
 30
0.0
 11
13.834490
 21
59.923759
 31
0.0
  0
LINE
  8
layer 10
 10
13.668587
 20
54.821709
 30
0.0
 11
14.878197
 21
59.673187
 31
0.0
  0
LINE
  8
layer 10
 10
14.623276
 20
54.574809
 30
0.0
 11
15.917371
 21
59.404438
 31
0.0
  0
LINE
  8
layer 10
 10
15.573511
 20
54.311286
 30
0.0
 11
16.951697
 21
59.117594
 31
0.0
  0
LINE
  8
layer 10
 10
16.519001
 20
54.031219
 30
0.0
 11
17.980860
 21
58.812742
 31
0.0
  0
LINE
  8
layer 10
 10
17.459460
 20
53.734693
 30
0.0
 11
19.004545
 21
58.489976
 31
0.0
  0
LINE
  8
layer 10
 10
18.394601
 20
53.421800
 30
0.0
 11
20.022441
 21
58.149392
 31
0.0
  0
LINE
  8
layer 10
 10
19.324138
 20
53.092633
 30
0.0
 11
21.034239
 21
57.791096
 31
0.0
  0
LINE
  8
layer 10
 10
20.247789
 20
52.747294
 30
0.0
 11
22.039629
 21
57.415196
 31
0.0
  0
LINE
  8
layer 10
 10
21.165273
 20
52.385888
 30
0.0
 11
23.038305
 21
57.021807
 31
0.0
  0
LINE
  8
layer 10
 10
22.076309
 20
52.008524
 30
0.0
 11
24.029964
 21
56.611048
 31
0.0
  0
LINE
  8
layer 10
 10
22.980620
 20
51.615318
 30
0.0
 11
25.014304
 21
56.183046
 31
0.0
  0
LINE
  8
layer 10
 10
23.877932
 20
51.206390
 30
0.0
 11
25.991023
 21
55.737929
 31
0.0
  0
LINE
  8
layer 10
 10
24.767970
 20
50.781864
 30
0.0
 11
26.959826
 21
55.275834
 31
0.0
  0
LINE
  8
layer 10
 10
25.650463
 20
50.341869
 30
0.0
 11
27.920416
 21
54.796901
 31
0.0
  0
LINE
  8
layer 10
 10
26.525143
 20
49.886539
 30
0.0
 11
28.872501
 21
54.301277
 31
0.0
  0
LINE
  8
layer 10
 10
27.391744
 20
49.416013
 30
0.0
 11
29.815792
 21
53.789112
 31
0.0
  0
LINE
  8
layer 10
 10
-4.924299
 20
56.285000
 30
0.0
 11
-5.360078
 21
61.265974
 31
0.0
  0
LINE
  8
layer 10
 10
-5.905858
 20
56.190487
 30
0.0
 11
-6.428500
 21
61.163097
 31
0.0
  0
LINE
  8
layer 10
 10
-6.885618
 20
56.078858
 30
0.0
 11
-7.494965
 21
61.041588
 31
0.0
  0
LINE
  8
layer 10
 10
-7.863280
 20
55.950146
 30
0.0
 11
-8.559146
 21
60.901486
 31
0.0
  0
LINE
  8
layer 10
 10
-8.838547
 20
55.804391
 30
0.0
 11
-9.620720
 21
60.742833
 31
0.0
  0
LINE
  8
layer 10
 10
-9.811122
 20
55.641638
 30
0.0
 11
-10.679363
 21
60.565677
 31
0.0
  0
LINE
  8
layer 10
 10
-10.780708
 20
55.461936
 30
0.0
 11
-11.734753
 21
60.370072
 31
0.0
  0
LINE
  8
layer 10
 10
-11.747011
 20
55.265339
 30
0.0
 11
-12.786569
 21
60.156077
 31
0.0
  0
LINE
  8
layer 10
 10
-12.709735
 20
55.051909
 30
0.0
 11
-13.834490
 21
59.923759
 31
0.0
  0
LINE
  8
layer 10
 10
-13.668587
 20
54.821709
 30
0.0
 11
-14.878197
 21
59.673187
 31
0.0
  0
LINE
  8
layer 10
 10
-14.623276
 20
54.574809
 30
0.0
 11
-15.917371
 21
59.404438
 31
0.0
  0
LINE
  8
layer 10
 10
-15.573511
 20
54.311286
 30
0.0
 11
-16.951697
 21
59.117594
 31
0.0
  0
LINE
  8
layer 10
 10
-16.519001
 20
54.031219
 30
0.0
 11
-17.980860
 21
58.812742
 31
0.0
  0
LINE
  8
layer 10
 10
-17.459460
 20
53.734693
 30
0.0
 11
-19.004545
 21
58.489976
 31
0.0
  0
LINE
  8
layer 10
 10
-18.394601
 20
53.421800
 30
0.0
 11
-20.022441
 21
58.149392
 31
0.0
  0
LINE
  8
layer 10
 10
-19.324138
 20
53.092633
 30
0.0
 11
-21.034239
 21
57.791096
 31
0.0
  0
LINE
  8
layer 10
 10
-20.247789
 20
52.747294
 30
0.0
 11
-22.039629
 21
57.415196
 31
0.0
  0
LINE
  8
layer 10
 10
-21.165273
 20
52.385888
 30
0.0
 11
-23.038305
 21
57.021807
 31
0.0
  0
LINE
  8
layer 10
 10
-22.076309
 20
52.008524
 30
0.0
 11
-24.029964
 21
56.611048
 31
0.0
  0
LINE
  8
layer 10
 10
-22.980620
 20
51.615318
 30
0.0
 11
-25.014304
 21
56.183046
 31
0.0
  0
LINE
  8
layer 10
 10
-23.877932
 20
51.206390
 30
0.0
 11
-25.991023
 21
55.737929
 31
0.0
  0
LINE
  8
layer 10
 10
-24.767970
 20
50.781864
 30
0.0
 11
-26.959826
 21
55.275834
 31
0.0
  0
LINE
  8
layer 10
 10
-25.650463
 20
50.341869
 30
0.0
 11
-27.920416
 21
54.796901
 31
0.0
  0
LINE
  8
layer 10
 10
-26.525143
 20
49.886539
 30
0.0
 11
-28.872501
 21
54.301277
 31
0.0
  0
LINE
  8
layer 10
 10
-27.391744
 20
49.416013
 30
0.0
 11
-29.815792
 21
53.789112
 31
0.0
  0
LINE
  8
layer 10
 10
-46.282091
 20
32.407069
 30
0.0
 11
-50.377851
 21
35.274951
 31
0.0
  0
LINE
  8
layer 10
 10
-45.709460
 20
33.209867
 30
0.0
 11
-49.754545
 21
36.148793
 31
0.0
  0
LINE
  8
layer 10
 10
-45.122906
 20
34.002549
 30
0.0
 11
-49.116084
 21
37.011624
 31
0.0
  0
LINE
  8
layer 10
 10
-44.522608
 20
34.784873
 30
0.0
 11
-48.462661
 21
37.863181
 31
0.0
  0
LINE
  8
layer 10
 10
-43.908747
 20
35.556602
 30
0.0
 11
-47.794477
 21
38.703204
 31
0.0
  0
LINE
  8
layer 10
 10
-43.281511
 20
36.317500
 30
0.0
 11
-47.111733
 21
39.531438
 31
0.0
  0
LINE
  8
layer 10
 10
-42.641091
 20
37.067335
 30
0.0
 11
-46.414639
 21
40.347630
 31
0.0
  0
LINE
  8
layer 10
 10
-41.987683
 20
37.805879
 30
0.0
 11
-45.703407
 21
41.151532
 31
0.0
  0
LINE
  8
layer 10
 10
-41.321484
 20
38.532907
 30
0.0
 11
-44.978253
 21
41.942899
 31
0.0
  0
LINE
  8
layer 10
 10
-40.642699
 20
39.248198
 30
0.0
 11
-44.239398
 21
42.721490
 31
0.0
  0
LINE
  8
layer 10
 10
-39.951533
 20
39.951533
 30
0.0
 11
-43.487067
 21
43.487067
 31
0.0
  0
LINE
  8
layer 10
 10
-39.248198
 20
40.642699
 30
0.0
 11
-42.721490
 21
44.239398
 31
0.0
  0
LINE
  8
layer 10
 10
-38.532907
 20
41.321484
 30
0.0
 11
-41.942899
 21
44.978253
 31
0.0
  0
LINE
  8
layer 10
 10
-37.805879
 20
41.987683
 30
0.0
 11
-41.151532
 21
45.703407
 31
0.0
  0
LINE
  8
layer 10
 10
-37.067335
 20
42.641091
 30
0.0
 11
-40.347630
 21
46.414639
 31
0.0
  0
LINE
  8
layer 10
 10
-36.317500
 20
43.281511
 30
0.0
 11
-39.531438
 21
47.111733
 31
0.0
  0
LINE
  8
layer 10
 10
-35.556602
 20
43.908747
 30
0.0
 11
-38.703204
 21
47.794477
 31
0.0
  0
LINE
  8
layer 10
 10
-34.784873
 20
44.522608
 30
0.0
 11
-37.863181
 21
48.462661
 31
0.0
  0
LINE
  8
layer 10
 10
-34.002549
 20
45.122906
 30
0.0
 11
-37.011624
 21
49.116084
 31
0.0
  0
LINE
  8
layer 10
 10
-33.209867
 20
45.709460
 30
0.0
 11
-36.148793
 21
49.754545
 31
0.0
  0
LINE
  8
layer 10
 10
-32.407069
 20
46.282091
 30
0.0
 11
-35.274951
 21
50.377851
 31
0.0
  0
LINE
  8
layer 10
 10
-31.594399
 20
46.840623
 30
0.0
 11
-34.390364
 21
50.985811
 31
0.0
  0
LINE
  8
layer 10
 10
-30.772105
 20
47.384887
 30
0.0
 11
-33.495301
 21
51.578240
 31
0.0
  0
LINE
  8
layer 10
 10
-29.940438
 20
47.914717
 30
0.0
 11
-32.590035
 21
52.154958
 31
0.0
  0
LINE
  8
layer 10
 10
-29.099651
 20
48.429952
 30
0.0
 11
-31.674842
 21
52.715789
 31
0.0
  0
LINE
  8
layer 10
 10
53.693576
 20
-31.000000
 30
0.0
 11
48.930435
 21
-28.250000
 31
0.0
  0
LINE
  8
layer 10
 10
48.930435
 20
-28.250000
 30
0.0
 11
17.320508
 21
-10.000000
 31
0.0
  0
LINE
  8
layer 10
 10
-53.693576
 20
31.000001
 30
0.0
 11
-48.930435
 21
28.250000
 31
0.0
  0
LINE
  8
layer 10
 10
-48.930435
 20
28.250000
 30
0.0
 11
-17.320508
 21
10.000000
 31
0.0
  0
ARC
  8
layer 10
 10
-0.000000
 20
-0.000000
 30
0.000000
 40
56.500000
 50
330.000000
 51
335.000000
  0
ARC
  8
layer 10
 10
-0.000000
 20
0.000000
 30
0.000000
 40
56.500000
 50
335.000000
 51
336.000000
  0
ARC
  8
layer 10
 10
0.000000
 20
-0.000000
 30
0.000000
 40
56.500000
 50
336.000000
 51
337.000000
  0
ARC
  8
layer 10
 10
-0.000000
 20
-0.000000
 30
0.000000
 40
56.500000
 50
337.000000
 51
338.000000
  0
ARC
  8
layer 10
 10
0.000000
 20
-0.000000
 30
0.000000
 40
56.500000
 50
338.000000
 51
339.000000
  0
ARC
  8
layer 10
 10
0.000000
 20
0.000000
 30
0.000000
 40
56.500000
 50
339.000000
 51
340.000000
  0
ARC
  8
layer 10
 10
0.000000
 20
0.000000
 30
0.000000
 40
56.500000
 50
340.000000
 51
341.000000
  0
ARC
  8
layer 10
 10
-0.000000
 20
-0.000000
 30
0.000000
 40
56.500000
 50
341.000000
 51
342.000000
  0
ARC
  8
layer 10
 10
0.000000
 20
0.000000
 30
0.000000
 40
56.500000
 50
342.000000
 51
343.000000
  0
ARC
  8
layer 10
 10
0.000000
 20
-0.000000
 30
0.000000
 40
56.500000
 50
343.000000
 51
344.000000
  0
ARC
  8
layer 10
 10
0.000000
 20
-0.000000
 30
0.000000
 40
56.500000
 50
344.000000
 51
345.000000
  0
ARC
  8
layer 10
 10
-0.000000
 20
-0.000000
 30
0.000000
 40
56.500000
 50
345.000000
 51
346.000000
  0
ARC
  8
layer 10
 10
0.000000
 20
0.000000
 30
0.000000
 40
56.500000
 50
346.000000
 51
347.000000
  0
ARC
  8
layer 10
 10
0.000000
 20
-0.000000
 30
0.000000
 40
56.500000
 50
347.000000
 51
348.000000
  0
ARC
  8
layer 10
 10
-0.000000
 20
-0.000000
 30
0.000000
 40
56.500000
 50
348.000000
 51
349.000000
  0
ARC
  8
layer 10
 10
0.000000
 20
0.000000
 30
0.000000
 40
56.500000
 50
349.000000
 51
350.000000
  0
ARC
  8
layer 10
 10
0.000000
 20
-0.000000
 30
0.000000
 40
56.500000
 50
350.000000
 51
351.000000
  0
ARC
  8
layer 10
 10
0.000000
 20
-0.000000
 30
0.000000
 40
56.500000
 50
351.000000
 51
352.000000
  0
ARC
  8
layer 10
 10
-0.000000
 20
0.000000
 30
0.000000
 40
56.500000
 50
352.000000
 51
353.000000
  0
ARC
  8
layer 10
 10
0.000000
 20
0.000000
 30
0.000000
 40
56.500000
 50
353.000000
 51
354.000000
  0
ARC
  8
layer 10
 10
0.000000
 20
-0.000000
 30
0.000000
 40
56.500000
 50
354.000000
 51
355.000000
  0
ARC
  8
layer 10
 10
0.000000
 20
0.000000
 30
0.000000
 40
56.500000
 50
355.000000
 51
356.000000
  0
ARC
  8
layer 10
 10
0.000000
 20
-0.000000
 30
0.000000
 40
56.500000
 50
356.000000
 51
357.000000
  0
ARC
  8
layer 10
 10
0.000000
 20
0.000000
 30
0.000000
 40
56.500000
 50
357.000000
 51
358.000000
  0
ARC
  8
layer 10
 10
0.000000
 20
-0.000000
 30
0.000000
 40
56.500000
 50
358.000000
 51
359.000000
  0
ARC
  8
layer 10
 10
0.000000
 20
0.000000
 30
0.000000
 40
56.500000
 50
359.000000
 51
1.000000
  0
ARC
  8
layer 10
 10
0.000000
 20
0.000000
 30
0.000000
 40
56.500000
 50
1.000000
 51
2.000000
  0
ARC
  8
layer 10
 10
0.000000
 20
-0.000000
 30
0.000000
 40
56.500000
 50
2.000000
 51
3.000000
  0
ARC
  8
layer 10
 10
0.000000
 20
0.000000
 30
0.000000
 40
56.500000
 50
3.000000
 51
4.000000
  0
ARC
  8
layer 10
 10
0.000000
 20
-0.000000
 30
0.000000
 40
56.500000
 50
4.000000
 51
5.000000
  0
ARC
  8
layer 10
 10
0.000000
 20
0.000000
 30
0.000000
 40
56.500000
 50
5.000000
 51
6.000000
  0
ARC
  8
layer 10
 10
0.000000
 20
-0.000000
 30
0.000000
 40
56.500000
 50
6.000000
 51
7.000000
  0
ARC
  8
layer 10
 10
0.000000
 20
-0.000000
 30
0.000000
 40
56.500000
 50
7.000000
 51
8.000000
  0
ARC
  8
layer 10
 10
0.000000
 20
0.000000
 30
0.000000
 40
56.500000
 50
8.000000
 51
9.000000
  0
ARC
  8
layer 10
 10
0.000000
 20
0.000000
 30
0.000000
 40
56.500000
 50
9.000000
 51
10.000000
  0
ARC
  8
layer 10
 10
0.000000
 20
-0.000000
 30
0.000000
 40
56.500000
 50
10.000000
 51
11.000000
  0
ARC
  8
layer 10
 10
0.000000
 20
0.000000
 30
0.000000
 40
56.500000
 50
11.000000
 51
12.000000
  0
ARC
  8
layer 10
 10
-0.000000
 20
0.000000
 30
0.000000
 40
56.500000
 50
12.000000
 51
13.000000
  0
ARC
  8
layer 10
 10
0.000000
 20
-0.000000
 30
0.000000
 40
56.500000
 50
13.000000
 51
14.000000
  0
ARC
  8
layer 10
 10
0.000000
 20
0.000000
 30
0.000000
 40
56.500000
 50
14.000000
 51
15.000000
  0
ARC
  8
layer 10
 10
-0.000000
 20
0.000000
 30
0.000000
 40
56.500000
 50
15.000000
 51
16.000000
  0
ARC
  8
layer 10
 10
0.000000
 20
0.000000
 30
0.000000
 40
56.500000
 50
16.000000
 51
17.000000
  0
ARC
  8
layer 10
 10
0.000000
 20
-0.000000
 30
0.000000
 40
56.500000
 50
17.000000
 51
18.000000
  0
ARC
  8
layer 10
 10
-0.000000
 20
0.000000
 30
0.000000
 40
56.500000
 50
18.000000
 51
19.000000
  0
ARC
  8
layer 10
 10
0.000000
 20
-0.000000
 30
0.000000
 40
56.500000
 50
19.000000
 51
20.000000
  0
ARC
  8
layer 10
 10
0.000000
 20
-0.000000
 30
0.000000
 40
56.500000
 50
20.000000
 51
21.000000
  0
ARC
  8
layer 10
 10
0.000000
 20
0.000000
 30
0.000000
 40
56.500000
 50
21.000000
 51
22.000000
  0
ARC
  8
layer 10
 10
-0.000000
 20
0.000000
 30
0.000000
 40
56.500000
 50
22.000000
 51
23.000000
  0
ARC
  8
layer 10
 10
0.000000
 20
0.000000
 30
0.000000
 40
56.500000
 50
23.000000
 51
24.000000
  0
ARC
  8
layer 10
 10
0.000000
 20
-0.000000
 30
0.000000
 40
56.500000
 50
24.000000
 51
25.000000
  0
ARC
  8
layer 10
 10
0.000000
 20
0.000000
 30
0.000000
 40
56.500000
 50
25.000000
 51
30.000000
  0
ARC
  8
layer 10
 10
0.000000
 20
0.000000
 30
0.000000
 40
61.500000
 50
335.000000
 51
336.000000
  0
ARC
  8
layer 10
 10
0.000000
 20
-0.000000
 30
0.000000
 40
61.500000
 50
336.000000
 51
337.000000
  0
ARC
  8
layer 10
 10
-0.000000
 20
-0.000000
 30
0.000000
 40
61.500000
 50
337.000000
 51
338.000000
  0
ARC
  8
layer 10
 10
-0.000000
 20
-0.000000
 30
0.000000
 40
61.500000
 50
338.000000
 51
339.000000
  0
ARC
  8
layer 10
 10
0.000000
 20
0.000000
 30
0.000000
 40
61.500000
 50
339.000000
 51
340.000000
  0
ARC
  8
layer 10
 10
-0.000000
 20
-0.000000
 30
0.000000
 40
61.500000
 50
340.000000
 51
341.000000
  0
ARC
  8
layer 10
 10
-0.000000
 20
-0.000000
 30
0.000000
 40
61.500000
 50
341.000000
 51
342.000000
  0
ARC
  8
layer 10
 10
0.000000
 20
0.000000
 30
0.000000
 40
61.500000
 50
342.000000
 51
343.000000
  0
ARC
  8
layer 10
 10
-0.000000
 20
0.000000
 30
0.000000
 40
61.500000
 50
343.000000
 51
344.000000
  0
ARC
  8
layer 10
 10
-0.000000
 20
-0.000000
 30
0.000000
 40
61.500000
 50
344.000000
 51
345.000000
  0
ARC
  8
layer 10
 10
-0.000000
 20
-0.000000
 30
0.000000
 40
61.500000
 50
345.000000
 51
346.000000
  0
ARC
  8
layer 10
 10
0.000000
 20
0.000000
 30
0.000000
 40
61.500000
 50
346.000000
 51
347.000000
  0
ARC
  8
layer 10
 10
0.000000
 20
0.000000
 30
0.000000
 40
61.500000
 50
347.000000
 51
348.000000
  0
ARC
  8
layer 10
 10
0.000000
 20
-0.000000
 30
0.000000
 40
61.500000
 50
348.000000
 51
349.000000
  0
ARC
  8
layer 10
 10
0.000000
 20
0.000000
 30
0.000000
 40
61.500000
 50
349.000000
 51
350.000000
  0
ARC
  8
layer 10
 10
0.000000
 20
-0.000000
 30
0.000000
 40
61.500000
 50
350.000000
 51
351.000000
  0
ARC
  8
layer 10
 10
-0.000000
 20
-0.000000
 30
0.000000
 40
61.500000
 50
351.000000
 51
352.000000
  0
ARC
  8
layer 10
 10
0.000000
 20
0.000000
 30
0.000000
 40
61.500000
 50
352.000000
 51
353.000000
  0
ARC
  8
layer 10
 10
0.000000
 20
0.000000
 30
0.000000
 40
61.500000
 50
353.000000
 51
354.000000
  0
ARC
  8
layer 10
 10
0.000000
 20
0.000000
 30
0.000000
 40
61.500000
 50
354.000000
 51
355.000000
  0
ARC
  8
layer 10
 10
0.000000
 20
-0.000000
 30
0.000000
 40
61.500000
 50
355.000000
 51
356.000000
  0
ARC
  8
layer 10
 10
0.000000
 20
0.000000
 30
0.000000
 40
61.500000
 50
356.000000
 51
357.000000
  0
ARC
  8
layer 10
 10
0.000000
 20
-0.000000
 30
0.000000
 40
61.500000
 50
357.000000
 51
358.000000
  0
ARC
  8
layer 10
 10
0.000000
 20
0.000000
 30
0.000000
 40
61.500000
 50
358.000000
 51
359.000000
  0
ARC
  8
layer 10
 10
0.000000
 20
0.000000
 30
0.000000
 40
61.500000
 50
359.000000
 51
1.000000
  0
ARC
  8
layer 10
 10
0.000000
 20
-0.000000
 30
0.000000
 40
61.500000
 50
1.000000
 51
2.000000
  0
ARC
  8
layer 10
 10
0.000000
 20
0.000000
 30
0.000000
 40
61.500000
 50
2.000000
 51
3.000000
  0
ARC
  8
layer 10
 10
0.000000
 20
-0.000000
 30
0.000000
 40
61.500000
 50
3.000000
 51
4.000000
  0
ARC
  8
layer 10
 10
0.000000
 20
0.000000
 30
0.000000
 40
61.500000
 50
4.000000
 51
5.000000
  0
ARC
  8
layer 10
 10
0.000000
 20
-0.000000
 30
0.000000
 40
61.500000
 50
5.000000
 51
6.000000
  0
ARC
  8
layer 10
 10
0.000000
 20
-0.000000
 30
0.000000
 40
61.500000
 50
6.000000
 51
7.000000
  0
ARC
  8
layer 10
 10
0.000000
 20
-0.000000
 30
0.000000
 40
61.500000
 50
7.000000
 51
8.000000
  0
ARC
  8
layer 10
 10
0.000000
 20
0.000000
 30
0.000000
 40
61.500000
 50
8.000000
 51
9.000000
  0
ARC
  8
layer 10
 10
0.000000
 20
0.000000
 30
0.000000
 40
61.500000
 50
9.000000
 51
10.000000
  0
ARC
  8
layer 10
 10
0.000000
 20
-0.000000
 30
0.000000
 40
61.500000
 50
10.000000
 51
11.000000
  0
ARC
  8
layer 10
 10
-0.000000
 20
0.000000
 30
0.000000
 40
61.500000
 50
11.000000
 51
12.000000
  0
ARC
  8
layer 10
 10
0.000000
 20
-0.000000
 30
0.000000
 40
61.500000
 50
12.000000
 51
13.000000
  0
ARC
  8
layer 10
 10
0.000000
 20
-0.000000
 30
0.000000
 40
61.500000
 50
13.000000
 51
14.000000
  0
ARC
  8
layer 10
 10
0.000000
 20
0.000000
 30
0.000000
 40
61.500000
 50
14.000000
 51
15.000000
  0
ARC
  8
layer 10
 10
-0.000000
 20
0.000000
 30
0.000000
 40
61.500000
 50
15.000000
 51
16.000000
  0
ARC
  8
layer 10
 10
0.000000
 20
-0.000000
 30
0.000000
 40
61.500000
 50
16.000000
 51
17.000000
  0
ARC
  8
layer 10
 10
0.000000
 20
-0.000000
 30
0.000000
 40
61.500000
 50
17.000000
 51
18.000000
  0
ARC
  8
layer 10
 10
-0.000000
 20
0.000000
 30
0.000000
 40
61.500000
 50
18.000000
 51
19.000000
  0
ARC
  8
layer 10
 10
0.000000
 20
0.000000
 30
0.000000
 40
61.500000
 50
19.000000
 51
20.000000
  0
ARC
  8
layer 10
 10
0.000000
 20
-0.000000
 30
0.000000
 40
61.500000
 50
20.000000
 51
21.000000
  0
ARC
  8
layer 10
 10
-0.000000
 20
0.000000
 30
0.000000
 40
61.500000
 50
21.000000
 51
22.000000
  0
ARC
  8
layer 10
 10
0.000000
 20
0.000000
 30
0.000000
 40
61.500000
 50
22.000000
 51
23.000000
  0
ARC
  8
layer 10
 10
-0.000000
 20
0.000000
 30
0.000000
 40
61.500000
 50
23.000000
 51
24.000000
  0
ARC
  8
layer 10
 10
0.000000
 20
-0.000000
 30
0.000000
 40
61.500000
 50
24.000000
 51
25.000000
  0
ARC
  8
layer 10
 10
-0.000000
 20
-0.000000
 30
0.000000
 40
56.500000
 50
30.000000
 51
35.000000
  0
ARC
  8
layer 10
 10
-0.000000
 20
0.000000
 30
0.000000
 40
56.500000
 50
35.000000
 51
36.000000
  0
ARC
  8
layer 10
 10
0.000000
 20
-0.000000
 30
0.000000
 40
56.500000
 50
36.000000
 51
37.000000
  0
ARC
  8
layer 10
 10
0.000000
 20
-0.000000
 30
0.000000
 40
56.500000
 50
37.000000
 51
38.000000
  0
ARC
  8
layer 10
 10
0.000000
 20
0.000000
 30
0.000000
 40
56.500000
 50
38.000000
 51
39.000000
  0
ARC
  8
layer 10
 10
-0.000000
 20
-0.000000
 30
0.000000
 40
56.500000
 50
39.000000
 51
40.000000
  0
ARC
  8
layer 10
 10
-0.000000
 20
0.000000
 30
0.000000
 40
56.500000
 50
40.000000
 51
41.000000
  0
ARC
  8
layer 10
 10
0.000000
 20
-0.000000
 30
0.000000
 40
56.500000
 50
41.000000
 51
42.000000
  0
ARC
  8
layer 10
 10
-0.000000
 20
0.000000
 30
0.000000
 40
56.500000
 50
42.000000
 51
43.000000
  0
ARC
  8
layer 10
 10
0.000000
 20
0.000000
 30
0.000000
 40
56.500000
 50
43.000000
 51
44.000000
  0
ARC
  8
layer 10
 10
0.000000
 20
-0.000000
 30
0.000000
 40
56.500000
 50
44.000000
 51
45.000000
  0
ARC
  8
layer 10
 10
0.000000
 20
-0.000000
 30
0.000000
 40
56.500000
 50
45.000000
 51
46.000000
  0
ARC
  8
layer 10
 10
-0.000000
 20
0.000000
 30
0.000000
 40
56.500000
 50
46.000000
 51
47.000000
  0
ARC
  8
layer 10
 10
0.000000
 20
-0.000000
 30
0.000000
 40
56.500000
 50
47.000000
 51
48.000000
  0
ARC
  8
layer 10
 10
-0.000000
 20
-0.000000
 30
0.000000
 40
56.500000
 50
48.000000
 51
49.000000
  0
ARC
  8
layer 10
 10
0.000000
 20
-0.000000
 30
0.000000
 40
56.500000
 50
49.000000
 51
50.000000
  0
ARC
  8
layer 10
 10
-0.000000
 20
-0.000000
 30
0.000000
 40
56.500000
 50
50.000000
 51
51.000000
  0
ARC
  8
layer 10
 10
0.000000
 20
-0.000000
 30
0.000000
 40
56.500000
 50
51.000000
 51
52.000000
  0
ARC
  8
layer 10
 10
0.000000
 20
0.000000
 30
0.000000
 40
56.500000
 50
52.000000
 51
53.000000
  0
ARC
  8
layer 10
 10
-0.000000
 20
0.000000
 30
0.000000
 40
56.500000
 50
53.000000
 51
54.000000
  0
ARC
  8
layer 10
 10
-0.000000
 20
-0.000000
 30
0.000000
 40
56.500000
 50
54.000000
 51
55.000000
  0
ARC
  8
layer 10
 10
-0.000000
 20
0.000000
 30
0.000000
 40
56.500000
 50
55.000000
 51
56.000000
  0
ARC
  8
layer 10
 10
0.000000
 20
-0.000000
 30
0.000000
 40
56.500000
 50
56.000000
 51
57.000000
  0
ARC
  8
layer 10
 10
-0.000000
 20
0.000000
 30
0.000000
 40
56.500000
 50
57.000000
 51
58.000000
  0
ARC
  8
layer 10
 10
0.000000
 20
-0.000000
 30
0.000000
 40
56.500000
 50
58.000000
 51
59.000000
  0
ARC
  8
layer 10
 10
0.000000
 20
0.000000
 30
0.000000
 40
56.500000
 50
59.000000
 51
61.000000
  0
ARC
  8
layer 10
 10
-0.000000
 20
0.000000
 30
0.000000
 40
56.500000
 50
61.000000
 51
62.000000
  0
ARC
  8
layer 10
 10
0.000000
 20
0.000000
 30
0.000000
 40
56.500000
 50
62.000000
 51
63.000000
  0
ARC
  8
layer 10
 10
-0.000000
 20
0.000000
 30
0.000000
 40
56.500000
 50
63.000000
 51
64.000000
  0
ARC
  8
layer 10
 10
0.000000
 20
-0.000000
 30
0.000000
 40
56.500000
 50
64.000000
 51
65.000000
  0
ARC
  8
layer 10
 10
0.000000
 20
0.000000
 30
0.000000
 40
56.500000
 50
65.000000
 51
66.000000
  0
ARC
  8
layer 10
 10
0.000000
 20
-0.000000
 30
0.000000
 40
56.500000
 50
66.000000
 51
67.000000
  0
ARC
  8
layer 10
 10
-0.000000
 20
0.000000
 30
0.000000
 40
56.500000
 50
67.000000
 51
68.000000
  0
ARC
  8
layer 10
 10
0.000000
 20
0.000000
 30
0.000000
 40
56.500000
 50
68.000000
 51
69.000000
  0
ARC
  8
layer 10
 10
0.000000
 20
0.000000
 30
0.000000
 40
56.500000
 50
69.000000
 51
70.000000
  0
ARC
  8
layer 10
 10
-0.000000
 20
-0.000000
 30
0.000000
 40
56.500000
 50
70.000000
 51
71.000000
  0
ARC
  8
layer 10
 10
0.000000
 20
0.000000
 30
0.000000
 40
56.500000
 50
71.000000
 51
72.000000
  0
ARC
  8
layer 10
 10
-0.000000
 20
0.000000
 30
0.000000
 40
56.500000
 50
72.000000
 51
73.000000
  0
ARC
  8
layer 10
 10
0.000000
 20
-0.000000
 30
0.000000
 40
56.500000
 50
73.000000
 51
74.000000
  0
ARC
  8
layer 10
 10
-0.000000
 20
0.000000
 30
0.000000
 40
56.500000
 50
74.000000
 51
75.000000
  0
ARC
  8
layer 10
 10
-0.000000
 20
0.000000
 30
0.000000
 40
56.500000
 50
75.000000
 51
76.000000
  0
ARC
  8
layer 10
 10
0.000000
 20
0.000000
 30
0.000000
 40
56.500000
 50
76.000000
 51
77.000000
  0
ARC
  8
layer 10
 10
0.000000
 20
-0.000000
 30
0.000000
 40
56.500000
 50
77.000000
 51
78.000000
  0
ARC
  8
layer 10
 10
-0.000000
 20
0.000000
 30
0.000000
 40
56.500000
 50
78.000000
 51
79.000000
  0
ARC
  8
layer 10
 10
0.000000
 20
0.000000
 30
0.000000
 40
56.500000
 50
79.000000
 51
80.000000
  0
ARC
  8
layer 10
 10
0.000000
 20
0.000000
 30
0.000000
 40
56.500000
 50
80.000000
 51
81.000000
  0
ARC
  8
layer 10
 10
-0.000000
 20
-0.000000
 30
0.000000
 40
56.500000
 50
81.000000
 51
82.000000
  0
ARC
  8
layer 10
 10
-0.000000
 20
0.000000
 30
0.000000
 40
56.500000
 50
82.000000
 51
83.000000
  0
ARC
  8
layer 10
 10
0.000000
 20
0.000000
 30
0.000000
 40
56.500000
 50
83.000000
 51
84.000000
  0
ARC
  8
layer 10
 10
0.000000
 20
0.000000
 30
0.000000
 40
56.500000
 50
84.000000
 51
85.000000
  0
ARC
  8
layer 10
 10
0.000000
 20
0.000000
 30
0.000000
 40
56.500000
 50
85.000000
 51
90.000000
  0
ARC
  8
layer 10
 10
-0.000000
 20
0.000000
 30
0.000000
 40
61.500000
 50
35.000000
 51
36.000000
  0
ARC
  8
layer 10
 10
0.000000
 20
-0.000000
 30
0.000000
 40
61.500000
 50
36.000000
 51
37.000000
  0
ARC
  8
layer 10
 10
0.000000
 20
0.000000
 30
0.000000
 40
61.500000
 50
37.000000
 51
38.000000
  0
ARC
  8
layer 10
 10
0.000000
 20
-0.000000
 30
0.000000
 40
61.500000
 50
38.000000
 51
39.000000
  0
ARC
  8
layer 10
 10
0.000000
 20
-0.000000
 30
0.000000
 40
61.500000
 50
39.000000
 51
40.000000
  0
ARC
  8
layer 10
 10
-0.000000
 20
-0.000000
 30
0.000000
 40
61.500000
 50
40.000000
 51
41.000000
  0
ARC
  8
layer 10
 10
0.000000
 20
-0.000000
 30
0.000000
 40
61.500000
 50
41.000000
 51
42.000000
  0
ARC
  8
layer 10
 10
0.000000
 20
0.000000
 30
0.000000
 40
61.500000
 50
42.000000
 51
43.000000
  0
ARC
  8
layer 10
 10
-0.000000
 20
-0.000000
 30
0.000000
 40
61.500000
 50
43.000000
 51
44.000000
  0
ARC
  8
layer 10
 10
-0.000000
 20
-0.000000
 30
0.000000
 40
61.500000
 50
44.000000
 51
45.000000
  0
ARC
  8
layer 10
 10
-0.000000
 20
-0.000000
 30
0.000000
 40
61.500000
 50
45.000000
 51
46.000000
  0
ARC
  8
layer 10
 10
0.000000
 20
-0.000000
 30
0.000000
 40
61.500000
 50
46.000000
 51
47.000000
  0
ARC
  8
layer 10
 10
-0.000000
 20
0.000000
 30
0.000000
 40
61.500000
 50
47.000000
 51
48.000000
  0
ARC
  8
layer 10
 10
0.000000
 20
-0.000000
 30
0.000000
 40
61.500000
 50
48.000000
 51
49.000000
  0
ARC
  8
layer 10
 10
-0.000000
 20
0.000000
 30
0.000000
 40
61.500000
 50
49.000000
 51
50.000000
  0
ARC
  8
layer 10
 10
0.000000
 20
-0.000000
 30
0.000000
 40
61.500000
 50
50.000000
 51
51.000000
  0
ARC
  8
layer 10
 10
0.000000
 20
-0.000000
 30
0.000000
 40
61.500000
 50
51.000000
 51
52.000000
  0
ARC
  8
layer 10
 10
-0.000000
 20
0.000000
 30
0.000000
 40
61.500000
 50
52.000000
 51
53.000000
  0
ARC
  8
layer 10
 10
-0.000000
 20
-0.000000
 30
0.000000
 40
61.500000
 50
53.000000
 51
54.000000
  0
ARC
  8
layer 10
 10
-0.000000
 20
0.000000
 30
0.000000
 40
61.500000
 50
54.000000
 51
55.000000
  0
ARC
  8
layer 10
 10
0.000000
 20
-0.000000
 30
0.000000
 40
61.500000
 50
55.000000
 51
56.000000
  0
ARC
  8
layer 10
 10
-0.000000
 20
0.000000
 30
0.000000
 40
61.500000
 50
56.000000
 51
57.000000
  0
ARC
  8
layer 10
 10
0.000000
 20
0.000000
 30
0.000000
 40
61.500000
 50
57.000000
 51
58.000000
  0
ARC
  8
layer 10
 10
-0.000000
 20
-0.000000
 30
0.000000
 40
61.500000
 50
58.000000
 51
59.000000
  0
ARC
  8
layer 10
 10
-0.000000
 20
0.000000
 30
0.000000
 40
61.500000
 50
59.000000
 51
61.000000
  0
ARC
  8
layer 10
 10
0.000000
 20
-0.000000
 30
0.000000
 40
61.500000
 50
61.000000
 51
62.000000
  0
ARC
  8
layer 10
 10
0.000000
 20
0.000000
 30
0.000000
 40
61.500000
 50
62.000000
 51
63.000000
  0
ARC
  8
layer 10
 10
0.000000
 20
0.000000
 30
0.000000
 40
61.500000
 50
63.000000
 51
64.000000
  0
ARC
  8
layer 10
 10
-0.000000
 20
0.000000
 30
0.000000
 40
61.500000
 50
64.000000
 51
65.000000
  0
ARC
  8
layer 10
 10
0.000000
 20
0.000000
 30
0.000000
 40
61.500000
 50
65.000000
 51
66.000000
  0
ARC
  8
layer 10
 10
0.000000
 20
-0.000000
 30
0.000000
 40
61.500000
 50
66.000000
 51
67.000000
  0
ARC
  8
layer 10
 10
-0.000000
 20
-0.000000
 30
0.000000
 40
61.500000
 50
67.000000
 51
68.000000
  0
ARC
  8
layer 10
 10
0.000000
 20
0.000000
 30
0.000000
 40
61.500000
 50
68.000000
 51
69.000000
  0
ARC
  8
layer 10
 10
-0.000000
 20
0.000000
 30
0.000000
 40
61.500000
 50
69.000000
 51
70.000000
  0
ARC
  8
layer 10
 10
0.000000
 20
0.000000
 30
0.000000
 40
61.500000
 50
70.000000
 51
71.000000
  0
ARC
  8
layer 10
 10
-0.000000
 20
0.000000
 30
0.000000
 40
61.500000
 50
71.000000
 51
72.000000
  0
ARC
  8
layer 10
 10
0.000000
 20
0.000000
 30
0.000000
 40
61.500000
 50
72.000000
 51
73.000000
  0
ARC
  8
layer 10
 10
-0.000000
 20
-0.000000
 30
0.000000
 40
61.500000
 50
73.000000
 51
74.000000
  0
ARC
  8
layer 10
 10
0.000000
 20
0.000000
 30
0.000000
 40
61.500000
 50
74.000000
 51
75.000000
  0
ARC
  8
layer 10
 10
-0.000000
 20
-0.000000
 30
0.000000
 40
61.500000
 50
75.000000
 51
76.000000
  0
ARC
  8
layer 10
 10
0.000000
 20
0.000000
 30
0.000000
 40
61.500000
 50
76.000000
 51
77.000000
  0
ARC
  8
layer 10
 10
0.000000
 20
-0.000000
 30
0.000000
 40
61.500000
 50
77.000000
 51
78.000000
  0
ARC
  8
layer 10
 10
-0.000000
 20
0.000000
 30
0.000000
 40
61.500000
 50
78.000000
 51
79.000000
  0
ARC
  8
layer 10
 10
0.000000
 20
0.000000
 30
0.000000
 40
61.500000
 50
79.000000
 51
80.000000
  0
ARC
  8
layer 10
 10
0.000000
 20
-0.000000
 30
0.000000
 40
61.500000
 50
80.000000
 51
81.000000
  0
ARC
  8
layer 10
 10
-0.000000
 20
0.000000
 30
0.000000
 40
61.500000
 50
81.000000
 51
82.000000
  0
ARC
  8
layer 10
 10
-0.000000
 20
0.000000
 30
0.000000
 40
61.500000
 50
82.000000
 51
83.000000
  0
ARC
  8
layer 10
 10
-0.000000
 20
0.000000
 30
0.000000
 40
61.500000
 50
83.000000
 51
84.000000
  0
ARC
  8
layer 10
 10
0.000000
 20
-0.000000
 30
0.000000
 40
61.500000
 50
84.000000
 51
85.000000
  0
ARC
  8
layer 10
 10
0.000000
 20
-0.000000
 30
0.000000
 40
56.500000
 50
90.000000
 51
95.000000
  0
ARC
  8
layer 10
 10
-0.000000
 20
-0.000000
 30
0.000000
 40
56.500000
 50
95.000000
 51
96.000000
  0
ARC
  8
layer 10
 10
-0.000000
 20
0.000000
 30
0.000000
 40
56.500000
 50
96.000000
 51
97.000000
  0
ARC
  8
layer 10
 10
0.000000
 20
0.000000
 30
0.000000
 40
56.500000
 50
97.000000
 51
98.000000
  0
ARC
  8
layer 10
 10
-0.000000
 20
-0.000000
 30
0.000000
 40
56.500000
 50
98.000000
 51
99.000000
  0
ARC
  8
layer 10
 10
-0.000000
 20
0.000000
 30
0.000000
 40
56.500000
 50
99.000000
 51
100.000000
  0
ARC
  8
layer 10
 10
-0.000000
 20
-0.000000
 30
0.000000
 40
56.500000
 50
100.000000
 51
101.000000
  0
ARC
  8
layer 10
 10
0.000000
 20
0.000000
 30
0.000000
 40
56.500000
 50
101.000000
 51
102.000000
  0
ARC
  8
layer 10
 10
-0.000000
 20
-0.000000
 30
0.000000
 40
56.500000
 50
102.000000
 51
103.000000
  0
ARC
  8
layer 10
 10
0.000000
 20
0.000000
 30
0.000000
 40
56.500000
 50
103.000000
 51
104.000000
  0
ARC
  8
layer 10
 10
-0.000000
 20
0.000000
 30
0.000000
 40
56.500000
 50
104.000000
 51
105.000000
  0
ARC
  8
layer 10
 10
0.000000
 20
0.000000
 30
0.000000
 40
56.500000
 50
105.000000
 51
106.000000
  0
ARC
  8
layer 10
 10
-0.000000
 20
-0.000000
 30
0.000000
 40
56.500000
 50
106.000000
 51
107.000000
  0
ARC
  8
layer 10
 10
0.000000
 20
0.000000
 30
0.000000
 40
56.500000
 50
107.000000
 51
108.000000
  0
ARC
  8
layer 10
 10
-0.000000
 20
-0.000000
 30
0.000000
 40
56.500000
 50
108.000000
 51
109.000000
  0
ARC
  8
layer 10
 10
0.000000
 20
0.000000
 30
0.000000
 40
56.500000
 50
109.000000
 51
110.000000
  0
ARC
  8
layer 10
 10
0.000000
 20
0.000000
 30
0.000000
 40
56.500000
 50
110.000000
 51
111.000000
  0
ARC
  8
layer 10
 10
-0.000000
 20
0.000000
 30
0.000000
 40
56.500000
 50
111.000000
 51
112.000000
  0
ARC
  8
layer 10
 10
-0.000000
 20
0.000000
 30
0.000000
 40
56.500000
 50
112.000000
 51
113.000000
  0
ARC
  8
layer 10
 10
-0.000000
 20
-0.000000
 30
0.000000
 40
56.500000
 50
113.000000
 51
114.000000
  0
ARC
  8
layer 10
 10
0.000000
 20
0.000000
 30
0.000000
 40
56.500000
 50
114.000000
 51
115.000000
  0
ARC
  8
layer 10
 10
-0.000000
 20
0.000000
 30
0.000000
 40
56.500000
 50
115.000000
 51
116.000000
  0
ARC
  8
layer 10
 10
0.000000
 20
0.000000
 30
0.000000
 40
56.500000
 50
116.000000
 51
117.000000
  0
ARC
  8
layer 10
 10
-0.000000
 20
-0.000000
 30
0.000000
 40
56.500000
 50
117.000000
 51
118.000000
  0
ARC
  8
layer 10
 10
0.000000
 20
0.000000
 30
0.000000
 40
56.500000
 50
118.000000
 51
119.000000
  0
ARC
  8
layer 10
 10
-0.000000
 20
0.000000
 30
0.000000
 40
56.500000
 50
119.000000
 51
121.000000
  0
ARC
  8
layer 10
 10
-0.000000
 20
-0.000000
 30
0.000000
 40
56.500000
 50
121.000000
 51
122.000000
  0
ARC
  8
layer 10
 10
0.000000
 20
0.000000
 30
0.000000
 40
56.500000
 50
122.000000
 51
123.000000
  0
ARC
  8
layer 10
 10
-0.000000
 20
-0.000000
 30
0.000000
 40
56.500000
 50
123.000000
 51
124.000000
  0
ARC
  8
layer 10
 10
0.000000
 20
0.000000
 30
0.000000
 40
56.500000
 50
124.000000
 51
125.000000
  0
ARC
  8
layer 10
 10
-0.000000
 20
0.000000
 30
0.000000
 40
56.500000
 50
125.000000
 51
126.000000
  0
ARC
  8
layer 10
 10
0.000000
 20
0.000000
 30
0.000000
 40
56.500000
 50
126.000000
 51
127.000000
  0
ARC
  8
layer 10
 10
0.000000
 20
-0.000000
 30
0.000000
 40
56.500000
 50
127.000000
 51
128.000000
  0
ARC
  8
layer 10
 10
-0.000000
 20
0.000000
 30
0.000000
 40
56.500000
 50
128.000000
 51
129.000000
  0
ARC
  8
layer 10
 10
-0.000000
 20
-0.000000
 30
0.000000
 40
56.500000
 50
129.000000
 51
130.000000
  0
ARC
  8
layer 10
 10
-0.000000
 20
0.000000
 30
0.000000
 40
56.500000
 50
130.000000
 51
131.000000
  0
ARC
  8
layer 10
 10
-0.000000
 20
-0.000000
 30
0.000000
 40
56.500000
 50
131.000000
 51
132.000000
  0
ARC
  8
layer 10
 10
-0.000000
 20
0.000000
 30
0.000000
 40
56.500000
 50
132.000000
 51
133.000000
  0
ARC
  8
layer 10
 10
0.000000
 20
0.000000
 30
0.000000
 40
56.500000
 50
133.000000
 51
134.000000
  0
ARC
  8
layer 10
 10
-0.000000
 20
-0.000000
 30
0.000000
 40
56.500000
 50
134.000000
 51
135.000000
  0
ARC
  8
layer 10
 10
-0.000000
 20
0.000000
 30
0.000000
 40
56.500000
 50
135.000000
 51
136.000000
  0
ARC
  8
layer 10
 10
-0.000000
 20
0.000000
 30
0.000000
 40
56.500000
 50
136.000000
 51
137.000000
  0
ARC
  8
layer 10
 10
0.000000
 20
0.000000
 30
0.000000
 40
56.500000
 50
137.000000
 51
138.000000
  0
ARC
  8
layer 10
 10
-0.000000
 20
-0.000000
 30
0.000000
 40
56.500000
 50
138.000000
 51
139.000000
  0
ARC
  8
layer 10
 10
0.000000
 20
0.000000
 30
0.000000
 40
56.500000
 50
139.000000
 51
140.000000
  0
ARC
  8
layer 10
 10
0.000000
 20
-0.000000
 30
0.000000
 40
56.500000
 50
140.000000
 51
141.000000
  0
ARC
  8
layer 10
 10
-0.000000
 20
0.000000
 30
0.000000
 40
56.500000
 50
141.000000
 51
142.000000
  0
ARC
  8
layer 10
 10
-0.000000
 20
-0.000000
 30
0.000000
 40
56.500000
 50
142.000000
 51
143.000000
  0
ARC
  8
layer 10
 10
-0.000000
 20
-0.000000
 30
0.000000
 40
56.500000
 50
143.000000
 51
144.000000
  0
ARC
  8
layer 10
 10
0.000000
 20
0.000000
 30
0.000000
 40
56.500000
 50
144.000000
 51
145.000000
  0
ARC
  8
layer 10
 10
-0.000000
 20
-0.000000
 30
0.000000
 40
56.500000
 50
145.000000
 51
150.000000
  0
ARC
  8
layer 10
 10
0.000000
 20
0.000000
 30
0.000000
 40
61.500000
 50
95.000000
 51
96.000000
  0
ARC
  8
layer 10
 10
-0.000000
 20
0.000000
 30
0.000000
 40
61.500000
 50
96.000000
 51
97.000000
  0
ARC
  8
layer 10
 10
0.000000
 20
-0.000000
 30
0.000000
 40
61.500000
 50
97.000000
 51
98.000000
  0
ARC
  8
layer 10
 10
0.000000
 20
0.000000
 30
0.000000
 40
61.500000
 50
98.000000
 51
99.000000
  0
ARC
  8
layer 10
 10
-0.000000
 20
-0.000000
 30
0.000000
 40
61.500000
 50
99.000000
 51
100.000000
  0
ARC
  8
layer 10
 10
0.000000
 20
-0.000000
 30
0.000000
 40
61.500000
 50
100.000000
 51
101.000000
  0
ARC
  8
layer 10
 10
0.000000
 20
0.000000
 30
0.000000
 40
61.500000
 50
101.000000
 51
102.000000
  0
ARC
  8
layer 10
 10
-0.000000
 20
0.000000
 30
0.000000
 40
61.500000
 50
102.000000
 51
103.000000
  0
ARC
  8
layer 10
 10
0.000000
 20
-0.000000
 30
0.000000
 40
61.500000
 50
103.000000
 51
104.000000
  0
ARC
  8
layer 10
 10
-0.000000
 20
0.000000
 30
0.000000
 40
61.500000
 50
104.000000
 51
105.000000
  0
ARC
  8
layer 10
 10
-0.000000
 20
0.000000
 30
0.000000
 40
61.500000
 50
105.000000
 51
106.000000
  0
ARC
  8
layer 10
 10
0.000000
 20
0.000000
 30
0.000000
 40
61.500000
 50
106.000000
 51
107.000000
  0
ARC
  8
layer 10
 10
-0.000000
 20
-0.000000
 30
0.000000
 40
61.500000
 50
107.000000
 51
108.000000
  0
ARC
  8
layer 10
 10
0.000000
 20
0.000000
 30
0.000000
 40
61.500000
 50
108.000000
 51
109.000000
  0
ARC
  8
layer 10
 10
-0.000000
 20
-0.000000
 30
0.000000
 40
61.500000
 50
109.000000
 51
110.000000
  0
ARC
  8
layer 10
 10
0.000000
 20
0.000000
 30
0.000000
 40
61.500000
 50
110.000000
 51
111.000000
  0
ARC
  8
layer 10
 10
0.000000
 20
0.000000
 30
0.000000
 40
61.500000
 50
111.000000
 51
112.000000
  0
ARC
  8
layer 10
 10
0.000000
 20
-0.000000
 30
0.000000
 40
61.500000
 50
112.000000
 51
113.000000
  0
ARC
  8
layer 10
 10
-0.000000
 20
-0.000000
 30
0.000000
 40
61.500000
 50
113.000000
 51
114.000000
  0
ARC
  8
layer 10
 10
-0.000000
 20
0.000000
 30
0.000000
 40
61.500000
 50
114.000000
 51
115.000000
  0
ARC
  8
layer 10
 10
0.000000
 20
0.000000
 30
0.000000
 40
61.500000
 50
115.000000
 51
116.000000
  0
ARC
  8
layer 10
 10
-0.000000
 20
-0.000000
 30
0.000000
 40
61.500000
 50
116.000000
 51
117.000000
  0
ARC
  8
layer 10
 10
0.000000
 20
0.000000
 30
0.000000
 40
61.500000
 50
117.000000
 51
118.000000
  0
ARC
  8
layer 10
 10
-0.000000
 20
-0.000000
 30
0.000000
 40
61.500000
 50
118.000000
 51
119.000000
  0
ARC
  8
layer 10
 10
-0.000000
 20
0.000000
 30
0.000000
 40
61.500000
 50
119.000000
 51
121.000000
  0
ARC
  8
layer 10
 10
0.000000
 20
0.000000
 30
0.000000
 40
61.500000
 50
121.000000
 51
122.000000
  0
ARC
  8
layer 10
 10
-0.000000
 20
-0.000000
 30
0.000000
 40
61.500000
 50
122.000000
 51
123.000000
  0
ARC
  8
layer 10
 10
0.000000
 20
0.000000
 30
0.000000
 40
61.500000
 50
123.000000
 51
124.000000
  0
ARC
  8
layer 10
 10
-0.000000
 20
-0.000000
 30
0.000000
 40
61.500000
 50
124.000000
 51
125.000000
  0
ARC
  8
layer 10
 10
0.000000
 20
0.000000
 30
0.000000
 40
61.500000
 50
125.000000
 51
126.000000
  0
ARC
  8
layer 10
 10
0.000000
 20
-0.000000
 30
0.000000
 40
61.500000
 50
126.000000
 51
127.000000
  0
ARC
  8
layer 10
 10
0.000000
 20
0.000000
 30
0.000000
 40
61.500000
 50
127.000000
 51
128.000000
  0
ARC
  8
layer 10
 10
0.000000
 20
-0.000000
 30
0.000000
 40
61.500000
 50
128.000000
 51
129.000000
  0
ARC
  8
layer 10
 10
-0.000000
 20
-0.000000
 30
0.000000
 40
61.500000
 50
129.000000
 51
130.000000
  0
ARC
  8
layer 10
 10
0.000000
 20
0.000000
 30
0.000000
 40
61.500000
 50
130.000000
 51
131.000000
  0
ARC
  8
layer 10
 10
-0.000000
 20
-0.000000
 30
0.000000
 40
61.500000
 50
131.000000
 51
132.000000
  0
ARC
  8
layer 10
 10
0.000000
 20
0.000000
 30
0.000000
 40
61.500000
 50
132.000000
 51
133.000000
  0
ARC
  8
layer 10
 10
-0.000000
 20
0.000000
 30
0.000000
 40
61.500000
 50
133.000000
 51
134.000000
  0
ARC
  8
layer 10
 10
-0.000000
 20
0.000000
 30
0.000000
 40
61.500000
 50
134.000000
 51
135.000000
  0
ARC
  8
layer 10
 10
0.000000
 20
-0.000000
 30
0.000000
 40
61.500000
 50
135.000000
 51
136.000000
  0
ARC
  8
layer 10
 10
-0.000000
 20
0.000000
 30
0.000000
 40
61.500000
 50
136.000000
 51
137.000000
  0
ARC
  8
layer 10
 10
0.000000
 20
0.000000
 30
0.000000
 40
61.500000
 50
137.000000
 51
138.000000
  0
ARC
  8
layer 10
 10
-0.000000
 20
-0.000000
 30
0.000000
 40
61.500000
 50
138.000000
 51
139.000000
  0
ARC
  8
layer 10
 10
-0.000000
 20
-0.000000
 30
0.000000
 40
61.500000
 50
139.000000
 51
140.000000
  0
ARC
  8
layer 10
 10
-0.000000
 20
0.000000
 30
0.000000
 40
61.500000
 50
140.000000
 51
141.000000
  0
ARC
  8
layer 10
 10
-0.000000
 20
-0.000000
 30
0.000000
 40
61.500000
 50
141.000000
 51
142.000000
  0
ARC
  8
layer 10
 10
-0.000000
 20
0.000000
 30
0.000000
 40
61.500000
 50
142.000000
 51
143.000000
  0
ARC
  8
layer 10
 10
0.000000
 20
-0.000000
 30
0.000000
 40
61.500000
 50
143.000000
 51
144.000000
  0
ARC
  8
layer 10
 10
0.000000
 20
-0.000000
 30
0.000000
 40
61.500000
 50
144.000000
 51
145.000000
  0
ARC
  8
layer 10
 10
0.000000
 20
0.000000
 30
0.000000
 40
20.000000
 50
330.000000
 51
150.000000
  0
ENDSEC
  0
EOF
