  0
SECTION
  2
HEADER
  9
$INSBASE
 10
0.0000
 20
0.0000
  9
$EXTMIN
 10
32.781651
 20
-11.495663
  9
$EXTMAX
 10
102.780089
 20
84.695293
  9
$LIMMIN
 10
32.781651
 20
-11.495663
  9
$LIMMAX
 10
102.780089
 20
84.695293
  9
$TEXTSTYLE
  7
STANDARD
  9
$CLAYER
  8
default
  0
ENDSEC
  0
SECTION
  2
TABLES
  0
TABLE
  2
LTYPE
 70
4948253
  0
LTYPE
  2
CONTINUOUS
 70
    64
  3
Solid line
 72
    65
 73
     0
 40
0.0
  0
ENDTAB
  0
TABLE
  2
LAYER
 70
     5
  0
LAYER
  2
default
 70
    64
 62
     7
  6
CONTINUOUS
  0
LAYER
  2
layer 1000
 70
    64
 62
     7
  6
CONTINUOUS
  0
ENDTAB
  0
TABLE
  2
STYLE
 70
     1
  0
STYLE
  2
STANDARD
 70
     0
 40
0.0
 41
1.0
 50
0.0
 71
     0
 42
0.2
  3
txt
  4

  0
ENDTAB
  0
TABLE
  2
VIEW
 70
     0
  0
ENDTAB
  0
ENDSEC
  0
SECTION
  2
BLOCKS
  0
ENDSEC
  0
SECTION
  2
ENTITIES
  0
LINE
  8
layer 1000
 10
62.500000
 20
-1.500000
 30
0.0
 11
63.500000
 21
-1.500000
 31
0.0
  0
LINE
  8
layer 1000
 10
64.500000
 20
-2.128687
 30
0.0
 11
85.326128
 21
-3.946109
 31
0.0
  0
LINE
  8
layer 1000
 10
62.500000
 20
1.500000
 30
0.0
 11
63.500000
 21
1.500000
 31
0.0
  0
LINE
  8
layer 1000
 10
64.500000
 20
2.128687
 30
0.0
 11
85.326128
 21
3.946109
 31
0.0
  0
LINE
  8
layer 1000
 10
87.500000
 20
-1.953682
 30
0.0
 11
87.500000
 21
1.953682
 31
0.0
  0
LINE
  8
layer 1000
 10
63.500000
 20
-1.500000
 30
0.0
 11
63.500000
 21
1.500000
 31
0.0
  0
LINE
  8
layer 1000
 10
61.810957
 20
9.375799
 30
0.0
 11
62.795765
 21
9.549448
 31
0.0
  0
LINE
  8
layer 1000
 10
63.889743
 20
9.103960
 30
0.0
 11
84.715067
 21
10.930568
 31
0.0
  0
LINE
  8
layer 1000
 10
61.290012
 20
12.330223
 30
0.0
 11
62.274820
 21
12.503871
 31
0.0
  0
LINE
  8
layer 1000
 10
63.150457
 20
13.296655
 30
0.0
 11
83.344598
 21
18.702886
 31
0.0
  0
LINE
  8
layer 1000
 10
86.509932
 20
13.270215
 30
0.0
 11
85.831425
 21
17.118216
 31
0.0
  0
LINE
  8
layer 1000
 10
62.795765
 20
9.549448
 30
0.0
 11
62.274820
 21
12.503871
 31
0.0
  0
LINE
  8
layer 1000
 10
59.243819
 20
19.966720
 30
0.0
 11
60.183512
 21
20.308740
 31
0.0
  0
LINE
  8
layer 1000
 10
61.338228
 20
20.059988
 30
0.0
 11
81.529982
 21
25.475125
 31
0.0
  0
LINE
  8
layer 1000
 10
58.217759
 20
22.785798
 30
0.0
 11
59.157451
 21
23.127818
 31
0.0
  0
LINE
  8
layer 1000
 10
59.882120
 20
24.060611
 30
0.0
 11
78.830684
 21
32.891384
 31
0.0
  0
LINE
  8
layer 1000
 10
82.891303
 20
28.090902
 30
0.0
 11
81.554906
 21
31.762623
 31
0.0
  0
LINE
  8
layer 1000
 10
60.183512
 20
20.308740
 30
0.0
 11
59.157451
 21
23.127818
 31
0.0
  0
LINE
  8
layer 1000
 10
54.876588
 20
29.950962
 30
0.0
 11
55.742613
 21
30.450962
 31
0.0
  0
LINE
  8
layer 1000
 10
56.922982
 20
30.406503
 30
0.0
 11
75.867649
 21
39.245633
 31
0.0
  0
LINE
  8
layer 1000
 10
53.376588
 20
32.549038
 30
0.0
 11
54.242613
 21
33.049038
 31
0.0
  0
LINE
  8
layer 1000
 10
54.794295
 20
34.093497
 30
0.0
 11
71.921540
 21
46.080495
 31
0.0
  0
LINE
  8
layer 1000
 10
76.754064
 20
42.058062
 30
0.0
 11
74.800382
 21
45.441938
 31
0.0
  0
LINE
  8
layer 1000
 10
55.742613
 20
30.450962
 30
0.0
 11
54.242613
 21
33.049038
 31
0.0
  0
LINE
  8
layer 1000
 10
48.841959
 20
39.025159
 30
0.0
 11
49.608004
 21
39.667947
 31
0.0
  0
LINE
  8
layer 1000
 10
50.778160
 20
39.829132
 30
0.0
 11
67.900116
 21
51.823683
 31
0.0
  0
LINE
  8
layer 1000
 10
46.913596
 20
41.323292
 30
0.0
 11
47.679641
 21
41.966080
 31
0.0
  0
LINE
  8
layer 1000
 10
48.041573
 20
43.090470
 30
0.0
 11
62.827096
 21
57.869473
 31
0.0
  0
LINE
  8
layer 1000
 10
68.284691
 20
54.747309
 30
0.0
 11
65.773086
 21
57.740523
 31
0.0
  0
LINE
  8
layer 1000
 10
49.608004
 20
39.667947
 30
0.0
 11
47.679641
 21
41.966080
 31
0.0
  0
LINE
  8
layer 1000
 10
41.323292
 20
46.913596
 30
0.0
 11
41.966080
 21
47.679641
 31
0.0
  0
LINE
  8
layer 1000
 10
43.090470
 20
48.041573
 30
0.0
 11
57.869473
 21
62.827096
 31
0.0
  0
LINE
  8
layer 1000
 10
39.025159
 20
48.841959
 30
0.0
 11
39.667947
 21
49.608004
 31
0.0
  0
LINE
  8
layer 1000
 10
39.829132
 20
50.778160
 30
0.0
 11
51.823683
 21
67.900116
 31
0.0
  0
LINE
  8
layer 1000
 10
57.740523
 20
65.773086
 30
0.0
 11
54.747309
 21
68.284691
 31
0.0
  0
LINE
  8
layer 1000
 10
41.966080
 20
47.679641
 30
0.0
 11
39.667947
 21
49.608004
 31
0.0
  0
LINE
  8
layer 1000
 10
61.764072
 20
-5.403656
 30
0.0
 11
62.280098
 21
-5.448802
 31
0.0
  0
LINE
  8
layer 1000
 10
62.280098
 20
-5.448802
 30
0.0
 11
99.619470
 21
-8.715574
 31
0.0
  0
LINE
  8
layer 1000
 10
35.561740
 20
50.787428
 30
0.0
 11
35.858850
 21
51.211745
 31
0.0
  0
LINE
  8
layer 1000
 10
35.858850
 20
51.211745
 30
0.0
 11
57.357644
 21
81.915204
 31
0.0
  0
ARC
  8
layer 1000
 10
65.173146
 20
0.051682
 30
0.000000
 40
2.281914
 50
222.842965
 51
252.842965
  0
ARC
  8
layer 1000
 10
85.500000
 20
-1.953682
 30
0.000000
 40
2.000000
 50
265.012635
 51
0.000000
  0
ARC
  8
layer 1000
 10
65.173146
 20
-0.051682
 30
0.000000
 40
2.281914
 50
107.157035
 51
137.157035
  0
ARC
  8
layer 1000
 10
85.500000
 20
1.953682
 30
0.000000
 40
2.000000
 50
360.000000
 51
94.987365
  0
ARC
  8
layer 1000
 10
-0.000000
 20
0.000000
 30
0.000000
 40
62.517997
 50
358.625165
 51
1.374835
  0
ARC
  8
layer 1000
 10
64.174045
 20
11.368095
 30
0.000000
 40
2.281914
 50
232.842965
 51
262.842965
  0
ARC
  8
layer 1000
 10
84.540316
 20
12.922918
 30
0.000000
 40
2.000000
 50
275.012635
 51
10.000000
  0
ARC
  8
layer 1000
 10
64.191994
 20
11.266301
 30
0.000000
 40
2.281914
 50
117.157035
 51
147.157035
  0
ARC
  8
layer 1000
 10
83.861810
 20
16.770920
 30
0.000000
 40
2.000000
 50
10.000000
 51
104.987365
  0
ARC
  8
layer 1000
 10
0.000000
 20
-0.000000
 30
0.000000
 40
62.517997
 50
1.374835
 51
8.625165
  0
ARC
  8
layer 1000
 10
0.000000
 20
0.000000
 30
0.000000
 40
62.517997
 50
8.625165
 51
11.374835
  0
ARC
  8
layer 1000
 10
61.225048
 20
22.339094
 30
0.000000
 40
2.281914
 50
242.842965
 51
272.842965
  0
ARC
  8
layer 1000
 10
81.011918
 20
27.406862
 30
0.000000
 40
2.000000
 50
285.012635
 51
20.000000
  0
ARC
  8
layer 1000
 10
61.260400
 20
22.241963
 30
0.000000
 40
2.281914
 50
127.157035
 51
157.157035
  0
ARC
  8
layer 1000
 10
79.675521
 20
31.078582
 30
0.000000
 40
2.000000
 50
20.000000
 51
114.987365
  0
ARC
  8
layer 1000
 10
0.000000
 20
0.000000
 30
0.000000
 40
62.517997
 50
11.374835
 51
18.625165
  0
ARC
  8
layer 1000
 10
0.000000
 20
-0.000000
 30
0.000000
 40
62.517997
 50
18.625165
 51
21.374835
  0
ARC
  8
layer 1000
 10
56.415759
 20
32.631331
 30
0.000000
 40
2.281914
 50
252.842965
 51
282.842965
  0
ARC
  8
layer 1000
 10
75.022013
 20
41.058062
 30
0.000000
 40
2.000000
 50
295.012635
 51
30.000000
  0
ARC
  8
layer 1000
 10
56.467441
 20
32.541815
 30
0.000000
 40
2.281914
 50
137.157035
 51
167.157035
  0
ARC
  8
layer 1000
 10
73.068331
 20
44.441938
 30
0.000000
 40
2.000000
 50
30.000000
 51
124.987365
  0
ARC
  8
layer 1000
 10
0.000000
 20
0.000000
 30
0.000000
 40
62.517997
 50
21.374835
 51
28.625165
  0
ARC
  8
layer 1000
 10
-0.000000
 20
-0.000000
 30
0.000000
 40
62.517997
 50
28.625165
 51
31.374835
  0
ARC
  8
layer 1000
 10
49.892305
 20
41.932081
 30
0.000000
 40
2.281914
 50
262.842965
 51
292.842965
  0
ARC
  8
layer 1000
 10
66.752602
 20
53.461734
 30
0.000000
 40
2.000000
 50
305.012635
 51
40.000000
  0
ARC
  8
layer 1000
 10
49.958747
 20
41.852900
 30
0.000000
 40
2.281914
 50
147.157035
 51
177.157035
  0
ARC
  8
layer 1000
 10
64.240998
 20
56.454948
 30
0.000000
 40
2.000000
 50
40.000000
 51
134.987365
  0
ARC
  8
layer 1000
 10
0.000000
 20
-0.000000
 30
0.000000
 40
62.517997
 50
31.374835
 51
38.625165
  0
ARC
  8
layer 1000
 10
-0.000000
 20
0.000000
 30
0.000000
 40
62.517997
 50
38.625165
 51
41.374835
  0
ARC
  8
layer 1000
 10
41.852900
 20
49.958747
 30
0.000000
 40
2.281914
 50
272.842965
 51
302.842965
  0
ARC
  8
layer 1000
 10
56.454948
 20
64.240998
 30
0.000000
 40
2.000000
 50
315.012635
 51
50.000000
  0
ARC
  8
layer 1000
 10
41.932081
 20
49.892305
 30
0.000000
 40
2.281914
 50
157.157035
 51
187.157035
  0
ARC
  8
layer 1000
 10
53.461734
 20
66.752602
 30
0.000000
 40
2.000000
 50
50.000000
 51
144.987365
  0
ARC
  8
layer 1000
 10
-0.000000
 20
0.000000
 30
0.000000
 40
62.517997
 50
41.374835
 51
48.625165
  0
ARC
  8
layer 1000
 10
0.000000
 20
-0.000000
 30
0.000000
 40
62.517997
 50
48.625165
 51
51.374835
  0
ARC
  8
layer 1000
 10
-0.000000
 20
0.000000
 30
0.000000
 40
62.517997
 50
51.374835
 51
55.000000
  0
ARC
  8
layer 1000
 10
-0.000000
 20
-0.000000
 30
0.000000
 40
62.517997
 50
355.000000
 51
358.625165
  0
ARC
  8
layer 1000
 10
-0.000000
 20
-0.000000
 30
0.000000
 40
100.000000
 50
355.000000
 51
55.000000
  0
ENDSEC
  0
EOF
