  0
SECTION
  2
HEADER
  9
$INSBASE
 10
0.0000
 20
0.0000
  9
$EXTMIN
 10
-107.071068
 20
-107.071068
  9
$EXTMAX
 10
107.071068
 20
107.071068
  9
$LIMMIN
 10
-107.071068
 20
-107.071068
  9
$LIMMAX
 10
107.071068
 20
107.071068
  9
$TEXTSTYLE
  7
STANDARD
  9
$CLAYER
  8
default
  0
ENDSEC
  0
SECTION
  2
TABLES
  0
TABLE
  2
LTYPE
 70
4948253
  0
LTYPE
  2
CONTINUOUS
 70
    64
  3
Solid line
 72
    65
 73
     0
 40
0.0
  0
ENDTAB
  0
TABLE
  2
LAYER
 70
     5
  0
LAYER
  2
default
 70
    64
 62
     7
  6
CONTINUOUS
  0
LAYER
  2
layer 1000
 70
    64
 62
     7
  6
CONTINUOUS
  0
ENDTAB
  0
TABLE
  2
STYLE
 70
     1
  0
STYLE
  2
STANDARD
 70
     0
 40
0.0
 41
1.0
 50
0.0
 71
     0
 42
0.2
  3
txt
  4

  0
ENDTAB
  0
TABLE
  2
VIEW
 70
     0
  0
ENDTAB
  0
ENDSEC
  0
SECTION
  2
BLOCKS
  0
ENDSEC
  0
SECTION
  2
ENTITIES
  0
LINE
  8
layer 1000
 10
62.500000
 20
-1.500000
 30
0.0
 11
63.500000
 21
-1.500000
 31
0.0
  0
LINE
  8
layer 1000
 10
64.500000
 20
-2.128687
 30
0.0
 11
85.326128
 21
-3.946109
 31
0.0
  0
LINE
  8
layer 1000
 10
62.500000
 20
1.500000
 30
0.0
 11
63.500000
 21
1.500000
 31
0.0
  0
LINE
  8
layer 1000
 10
64.500000
 20
2.128687
 30
0.0
 11
85.326128
 21
3.946109
 31
0.0
  0
LINE
  8
layer 1000
 10
87.500000
 20
-1.953682
 30
0.0
 11
87.500000
 21
1.953682
 31
0.0
  0
LINE
  8
layer 1000
 10
63.500000
 20
-1.500000
 30
0.0
 11
63.500000
 21
1.500000
 31
0.0
  0
LINE
  8
layer 1000
 10
61.810957
 20
9.375799
 30
0.0
 11
62.795765
 21
9.549448
 31
0.0
  0
LINE
  8
layer 1000
 10
63.889743
 20
9.103960
 30
0.0
 11
84.715067
 21
10.930568
 31
0.0
  0
LINE
  8
layer 1000
 10
61.290012
 20
12.330223
 30
0.0
 11
62.274820
 21
12.503871
 31
0.0
  0
LINE
  8
layer 1000
 10
63.150457
 20
13.296655
 30
0.0
 11
83.344598
 21
18.702886
 31
0.0
  0
LINE
  8
layer 1000
 10
86.509932
 20
13.270215
 30
0.0
 11
85.831425
 21
17.118216
 31
0.0
  0
LINE
  8
layer 1000
 10
62.795765
 20
9.549448
 30
0.0
 11
62.274820
 21
12.503871
 31
0.0
  0
LINE
  8
layer 1000
 10
59.243819
 20
19.966720
 30
0.0
 11
60.183512
 21
20.308740
 31
0.0
  0
LINE
  8
layer 1000
 10
61.338228
 20
20.059988
 30
0.0
 11
81.529982
 21
25.475125
 31
0.0
  0
LINE
  8
layer 1000
 10
58.217759
 20
22.785798
 30
0.0
 11
59.157451
 21
23.127818
 31
0.0
  0
LINE
  8
layer 1000
 10
59.882120
 20
24.060611
 30
0.0
 11
78.830684
 21
32.891384
 31
0.0
  0
LINE
  8
layer 1000
 10
82.891303
 20
28.090902
 30
0.0
 11
81.554906
 21
31.762623
 31
0.0
  0
LINE
  8
layer 1000
 10
60.183512
 20
20.308740
 30
0.0
 11
59.157451
 21
23.127818
 31
0.0
  0
LINE
  8
layer 1000
 10
54.876588
 20
29.950962
 30
0.0
 11
55.742613
 21
30.450962
 31
0.0
  0
LINE
  8
layer 1000
 10
56.922982
 20
30.406503
 30
0.0
 11
75.867649
 21
39.245633
 31
0.0
  0
LINE
  8
layer 1000
 10
53.376588
 20
32.549038
 30
0.0
 11
54.242613
 21
33.049038
 31
0.0
  0
LINE
  8
layer 1000
 10
54.794295
 20
34.093497
 30
0.0
 11
71.921540
 21
46.080495
 31
0.0
  0
LINE
  8
layer 1000
 10
76.754064
 20
42.058062
 30
0.0
 11
74.800382
 21
45.441938
 31
0.0
  0
LINE
  8
layer 1000
 10
55.742613
 20
30.450962
 30
0.0
 11
54.242613
 21
33.049038
 31
0.0
  0
LINE
  8
layer 1000
 10
48.841959
 20
39.025159
 30
0.0
 11
49.608004
 21
39.667947
 31
0.0
  0
LINE
  8
layer 1000
 10
50.778160
 20
39.829132
 30
0.0
 11
67.900116
 21
51.823683
 31
0.0
  0
LINE
  8
layer 1000
 10
46.913596
 20
41.323292
 30
0.0
 11
47.679641
 21
41.966080
 31
0.0
  0
LINE
  8
layer 1000
 10
48.041573
 20
43.090470
 30
0.0
 11
62.827096
 21
57.869473
 31
0.0
  0
LINE
  8
layer 1000
 10
68.284691
 20
54.747309
 30
0.0
 11
65.773086
 21
57.740523
 31
0.0
  0
LINE
  8
layer 1000
 10
49.608004
 20
39.667947
 30
0.0
 11
47.679641
 21
41.966080
 31
0.0
  0
LINE
  8
layer 1000
 10
41.323292
 20
46.913596
 30
0.0
 11
41.966080
 21
47.679641
 31
0.0
  0
LINE
  8
layer 1000
 10
43.090470
 20
48.041573
 30
0.0
 11
57.869473
 21
62.827096
 31
0.0
  0
LINE
  8
layer 1000
 10
39.025159
 20
48.841959
 30
0.0
 11
39.667947
 21
49.608004
 31
0.0
  0
LINE
  8
layer 1000
 10
39.829132
 20
50.778160
 30
0.0
 11
51.823683
 21
67.900116
 31
0.0
  0
LINE
  8
layer 1000
 10
57.740523
 20
65.773086
 30
0.0
 11
54.747309
 21
68.284691
 31
0.0
  0
LINE
  8
layer 1000
 10
41.966080
 20
47.679641
 30
0.0
 11
39.667947
 21
49.608004
 31
0.0
  0
LINE
  8
layer 1000
 10
32.549038
 20
53.376588
 30
0.0
 11
33.049038
 21
54.242613
 31
0.0
  0
LINE
  8
layer 1000
 10
34.093497
 20
54.794295
 30
0.0
 11
46.080495
 21
71.921540
 31
0.0
  0
LINE
  8
layer 1000
 10
29.950962
 20
54.876588
 30
0.0
 11
30.450962
 21
55.742613
 31
0.0
  0
LINE
  8
layer 1000
 10
30.406503
 20
56.922982
 30
0.0
 11
39.245633
 21
75.867649
 31
0.0
  0
LINE
  8
layer 1000
 10
45.441938
 20
74.800382
 30
0.0
 11
42.058062
 21
76.754064
 31
0.0
  0
LINE
  8
layer 1000
 10
33.049038
 20
54.242613
 30
0.0
 11
30.450962
 21
55.742613
 31
0.0
  0
LINE
  8
layer 1000
 10
22.785798
 20
58.217759
 30
0.0
 11
23.127818
 21
59.157451
 31
0.0
  0
LINE
  8
layer 1000
 10
24.060611
 20
59.882120
 30
0.0
 11
32.891384
 21
78.830684
 31
0.0
  0
LINE
  8
layer 1000
 10
19.966720
 20
59.243819
 30
0.0
 11
20.308740
 21
60.183512
 31
0.0
  0
LINE
  8
layer 1000
 10
20.059988
 20
61.338228
 30
0.0
 11
25.475125
 21
81.529982
 31
0.0
  0
LINE
  8
layer 1000
 10
31.762623
 20
81.554906
 30
0.0
 11
28.090902
 21
82.891303
 31
0.0
  0
LINE
  8
layer 1000
 10
23.127818
 20
59.157451
 30
0.0
 11
20.308740
 21
60.183512
 31
0.0
  0
LINE
  8
layer 1000
 10
12.330223
 20
61.290012
 30
0.0
 11
12.503871
 21
62.274820
 31
0.0
  0
LINE
  8
layer 1000
 10
13.296655
 20
63.150457
 30
0.0
 11
18.702886
 21
83.344598
 31
0.0
  0
LINE
  8
layer 1000
 10
9.375799
 20
61.810957
 30
0.0
 11
9.549448
 21
62.795765
 31
0.0
  0
LINE
  8
layer 1000
 10
9.103960
 20
63.889743
 30
0.0
 11
10.930568
 21
84.715067
 31
0.0
  0
LINE
  8
layer 1000
 10
17.118216
 20
85.831425
 30
0.0
 11
13.270215
 21
86.509932
 31
0.0
  0
LINE
  8
layer 1000
 10
12.503871
 20
62.274820
 30
0.0
 11
9.549448
 21
62.795765
 31
0.0
  0
LINE
  8
layer 1000
 10
1.500000
 20
62.500000
 30
0.0
 11
1.500000
 21
63.500000
 31
0.0
  0
LINE
  8
layer 1000
 10
2.128687
 20
64.500000
 30
0.0
 11
3.946109
 21
85.326128
 31
0.0
  0
LINE
  8
layer 1000
 10
-1.500000
 20
62.500000
 30
0.0
 11
-1.500000
 21
63.500000
 31
0.0
  0
LINE
  8
layer 1000
 10
-2.128687
 20
64.500000
 30
0.0
 11
-3.946109
 21
85.326128
 31
0.0
  0
LINE
  8
layer 1000
 10
1.953682
 20
87.500000
 30
0.0
 11
-1.953682
 21
87.500000
 31
0.0
  0
LINE
  8
layer 1000
 10
1.500000
 20
63.500000
 30
0.0
 11
-1.500000
 21
63.500000
 31
0.0
  0
LINE
  8
layer 1000
 10
-9.375799
 20
61.810957
 30
0.0
 11
-9.549448
 21
62.795765
 31
0.0
  0
LINE
  8
layer 1000
 10
-9.103960
 20
63.889743
 30
0.0
 11
-10.930568
 21
84.715067
 31
0.0
  0
LINE
  8
layer 1000
 10
-12.330223
 20
61.290012
 30
0.0
 11
-12.503871
 21
62.274820
 31
0.0
  0
LINE
  8
layer 1000
 10
-13.296655
 20
63.150457
 30
0.0
 11
-18.702886
 21
83.344598
 31
0.0
  0
LINE
  8
layer 1000
 10
-13.270215
 20
86.509932
 30
0.0
 11
-17.118216
 21
85.831425
 31
0.0
  0
LINE
  8
layer 1000
 10
-9.549448
 20
62.795765
 30
0.0
 11
-12.503871
 21
62.274820
 31
0.0
  0
LINE
  8
layer 1000
 10
-19.966720
 20
59.243819
 30
0.0
 11
-20.308740
 21
60.183512
 31
0.0
  0
LINE
  8
layer 1000
 10
-20.059988
 20
61.338228
 30
0.0
 11
-25.475125
 21
81.529982
 31
0.0
  0
LINE
  8
layer 1000
 10
-22.785798
 20
58.217759
 30
0.0
 11
-23.127818
 21
59.157451
 31
0.0
  0
LINE
  8
layer 1000
 10
-24.060611
 20
59.882120
 30
0.0
 11
-32.891384
 21
78.830684
 31
0.0
  0
LINE
  8
layer 1000
 10
-28.090902
 20
82.891303
 30
0.0
 11
-31.762623
 21
81.554906
 31
0.0
  0
LINE
  8
layer 1000
 10
-20.308740
 20
60.183512
 30
0.0
 11
-23.127818
 21
59.157451
 31
0.0
  0
LINE
  8
layer 1000
 10
-29.950962
 20
54.876588
 30
0.0
 11
-30.450962
 21
55.742613
 31
0.0
  0
LINE
  8
layer 1000
 10
-30.406503
 20
56.922982
 30
0.0
 11
-39.245633
 21
75.867649
 31
0.0
  0
LINE
  8
layer 1000
 10
-32.549038
 20
53.376588
 30
0.0
 11
-33.049038
 21
54.242613
 31
0.0
  0
LINE
  8
layer 1000
 10
-34.093497
 20
54.794295
 30
0.0
 11
-46.080495
 21
71.921540
 31
0.0
  0
LINE
  8
layer 1000
 10
-42.058062
 20
76.754064
 30
0.0
 11
-45.441938
 21
74.800382
 31
0.0
  0
LINE
  8
layer 1000
 10
-30.450962
 20
55.742613
 30
0.0
 11
-33.049038
 21
54.242613
 31
0.0
  0
LINE
  8
layer 1000
 10
-39.025159
 20
48.841959
 30
0.0
 11
-39.667947
 21
49.608004
 31
0.0
  0
LINE
  8
layer 1000
 10
-39.829132
 20
50.778160
 30
0.0
 11
-51.823683
 21
67.900116
 31
0.0
  0
LINE
  8
layer 1000
 10
-41.323292
 20
46.913596
 30
0.0
 11
-41.966080
 21
47.679641
 31
0.0
  0
LINE
  8
layer 1000
 10
-43.090470
 20
48.041573
 30
0.0
 11
-57.869473
 21
62.827096
 31
0.0
  0
LINE
  8
layer 1000
 10
-54.747309
 20
68.284691
 30
0.0
 11
-57.740523
 21
65.773086
 31
0.0
  0
LINE
  8
layer 1000
 10
-39.667947
 20
49.608004
 30
0.0
 11
-41.966080
 21
47.679641
 31
0.0
  0
LINE
  8
layer 1000
 10
-46.913596
 20
41.323292
 30
0.0
 11
-47.679641
 21
41.966080
 31
0.0
  0
LINE
  8
layer 1000
 10
-48.041573
 20
43.090470
 30
0.0
 11
-62.827096
 21
57.869473
 31
0.0
  0
LINE
  8
layer 1000
 10
-48.841959
 20
39.025159
 30
0.0
 11
-49.608004
 21
39.667947
 31
0.0
  0
LINE
  8
layer 1000
 10
-50.778160
 20
39.829132
 30
0.0
 11
-67.900116
 21
51.823683
 31
0.0
  0
LINE
  8
layer 1000
 10
-65.773086
 20
57.740523
 30
0.0
 11
-68.284691
 21
54.747309
 31
0.0
  0
LINE
  8
layer 1000
 10
-47.679641
 20
41.966080
 30
0.0
 11
-49.608004
 21
39.667947
 31
0.0
  0
LINE
  8
layer 1000
 10
-53.376588
 20
32.549038
 30
0.0
 11
-54.242613
 21
33.049038
 31
0.0
  0
LINE
  8
layer 1000
 10
-54.794295
 20
34.093497
 30
0.0
 11
-71.921540
 21
46.080495
 31
0.0
  0
LINE
  8
layer 1000
 10
-54.876588
 20
29.950962
 30
0.0
 11
-55.742613
 21
30.450962
 31
0.0
  0
LINE
  8
layer 1000
 10
-56.922982
 20
30.406503
 30
0.0
 11
-75.867649
 21
39.245633
 31
0.0
  0
LINE
  8
layer 1000
 10
-74.800382
 20
45.441938
 30
0.0
 11
-76.754064
 21
42.058062
 31
0.0
  0
LINE
  8
layer 1000
 10
-54.242613
 20
33.049038
 30
0.0
 11
-55.742613
 21
30.450962
 31
0.0
  0
LINE
  8
layer 1000
 10
-58.217759
 20
22.785798
 30
0.0
 11
-59.157451
 21
23.127818
 31
0.0
  0
LINE
  8
layer 1000
 10
-59.882120
 20
24.060611
 30
0.0
 11
-78.830684
 21
32.891384
 31
0.0
  0
LINE
  8
layer 1000
 10
-59.243819
 20
19.966720
 30
0.0
 11
-60.183512
 21
20.308740
 31
0.0
  0
LINE
  8
layer 1000
 10
-61.338228
 20
20.059988
 30
0.0
 11
-81.529982
 21
25.475125
 31
0.0
  0
LINE
  8
layer 1000
 10
-81.554906
 20
31.762623
 30
0.0
 11
-82.891303
 21
28.090902
 31
0.0
  0
LINE
  8
layer 1000
 10
-59.157451
 20
23.127818
 30
0.0
 11
-60.183512
 21
20.308740
 31
0.0
  0
LINE
  8
layer 1000
 10
-61.290012
 20
12.330223
 30
0.0
 11
-62.274820
 21
12.503871
 31
0.0
  0
LINE
  8
layer 1000
 10
-63.150457
 20
13.296655
 30
0.0
 11
-83.344598
 21
18.702886
 31
0.0
  0
LINE
  8
layer 1000
 10
-61.810957
 20
9.375799
 30
0.0
 11
-62.795765
 21
9.549448
 31
0.0
  0
LINE
  8
layer 1000
 10
-63.889743
 20
9.103960
 30
0.0
 11
-84.715067
 21
10.930568
 31
0.0
  0
LINE
  8
layer 1000
 10
-85.831425
 20
17.118216
 30
0.0
 11
-86.509932
 21
13.270215
 31
0.0
  0
LINE
  8
layer 1000
 10
-62.274820
 20
12.503871
 30
0.0
 11
-62.795765
 21
9.549448
 31
0.0
  0
LINE
  8
layer 1000
 10
-62.500000
 20
1.500000
 30
0.0
 11
-63.500000
 21
1.500000
 31
0.0
  0
LINE
  8
layer 1000
 10
-64.500000
 20
2.128687
 30
0.0
 11
-85.326128
 21
3.946109
 31
0.0
  0
LINE
  8
layer 1000
 10
-62.500000
 20
-1.500000
 30
0.0
 11
-63.500000
 21
-1.500000
 31
0.0
  0
LINE
  8
layer 1000
 10
-64.500000
 20
-2.128687
 30
0.0
 11
-85.326128
 21
-3.946109
 31
0.0
  0
LINE
  8
layer 1000
 10
-87.500000
 20
1.953682
 30
0.0
 11
-87.500000
 21
-1.953682
 31
0.0
  0
LINE
  8
layer 1000
 10
-63.500000
 20
1.500000
 30
0.0
 11
-63.500000
 21
-1.500000
 31
0.0
  0
LINE
  8
layer 1000
 10
-61.810957
 20
-9.375799
 30
0.0
 11
-62.795765
 21
-9.549448
 31
0.0
  0
LINE
  8
layer 1000
 10
-63.889743
 20
-9.103960
 30
0.0
 11
-84.715067
 21
-10.930568
 31
0.0
  0
LINE
  8
layer 1000
 10
-61.290012
 20
-12.330223
 30
0.0
 11
-62.274820
 21
-12.503871
 31
0.0
  0
LINE
  8
layer 1000
 10
-63.150457
 20
-13.296655
 30
0.0
 11
-83.344598
 21
-18.702886
 31
0.0
  0
LINE
  8
layer 1000
 10
-86.509932
 20
-13.270215
 30
0.0
 11
-85.831425
 21
-17.118216
 31
0.0
  0
LINE
  8
layer 1000
 10
-62.795765
 20
-9.549448
 30
0.0
 11
-62.274820
 21
-12.503871
 31
0.0
  0
LINE
  8
layer 1000
 10
-59.243819
 20
-19.966720
 30
0.0
 11
-60.183512
 21
-20.308740
 31
0.0
  0
LINE
  8
layer 1000
 10
-61.338228
 20
-20.059988
 30
0.0
 11
-81.529982
 21
-25.475125
 31
0.0
  0
LINE
  8
layer 1000
 10
-58.217759
 20
-22.785798
 30
0.0
 11
-59.157451
 21
-23.127818
 31
0.0
  0
LINE
  8
layer 1000
 10
-59.882120
 20
-24.060611
 30
0.0
 11
-78.830684
 21
-32.891384
 31
0.0
  0
LINE
  8
layer 1000
 10
-82.891303
 20
-28.090902
 30
0.0
 11
-81.554906
 21
-31.762623
 31
0.0
  0
LINE
  8
layer 1000
 10
-60.183512
 20
-20.308740
 30
0.0
 11
-59.157451
 21
-23.127818
 31
0.0
  0
LINE
  8
layer 1000
 10
-54.876588
 20
-29.950962
 30
0.0
 11
-55.742613
 21
-30.450962
 31
0.0
  0
LINE
  8
layer 1000
 10
-56.922982
 20
-30.406503
 30
0.0
 11
-75.867649
 21
-39.245633
 31
0.0
  0
LINE
  8
layer 1000
 10
-53.376588
 20
-32.549038
 30
0.0
 11
-54.242613
 21
-33.049038
 31
0.0
  0
LINE
  8
layer 1000
 10
-54.794295
 20
-34.093497
 30
0.0
 11
-71.921540
 21
-46.080495
 31
0.0
  0
LINE
  8
layer 1000
 10
-76.754064
 20
-42.058062
 30
0.0
 11
-74.800382
 21
-45.441938
 31
0.0
  0
LINE
  8
layer 1000
 10
-55.742613
 20
-30.450962
 30
0.0
 11
-54.242613
 21
-33.049038
 31
0.0
  0
LINE
  8
layer 1000
 10
-48.841959
 20
-39.025159
 30
0.0
 11
-49.608004
 21
-39.667947
 31
0.0
  0
LINE
  8
layer 1000
 10
-50.778160
 20
-39.829132
 30
0.0
 11
-67.900116
 21
-51.823683
 31
0.0
  0
LINE
  8
layer 1000
 10
-46.913596
 20
-41.323292
 30
0.0
 11
-47.679641
 21
-41.966080
 31
0.0
  0
LINE
  8
layer 1000
 10
-48.041573
 20
-43.090470
 30
0.0
 11
-62.827096
 21
-57.869473
 31
0.0
  0
LINE
  8
layer 1000
 10
-68.284691
 20
-54.747309
 30
0.0
 11
-65.773086
 21
-57.740523
 31
0.0
  0
LINE
  8
layer 1000
 10
-49.608004
 20
-39.667947
 30
0.0
 11
-47.679641
 21
-41.966080
 31
0.0
  0
LINE
  8
layer 1000
 10
-41.323292
 20
-46.913596
 30
0.0
 11
-41.966080
 21
-47.679641
 31
0.0
  0
LINE
  8
layer 1000
 10
-43.090470
 20
-48.041573
 30
0.0
 11
-57.869473
 21
-62.827096
 31
0.0
  0
LINE
  8
layer 1000
 10
-39.025159
 20
-48.841959
 30
0.0
 11
-39.667947
 21
-49.608004
 31
0.0
  0
LINE
  8
layer 1000
 10
-39.829132
 20
-50.778160
 30
0.0
 11
-51.823683
 21
-67.900116
 31
0.0
  0
LINE
  8
layer 1000
 10
-57.740523
 20
-65.773086
 30
0.0
 11
-54.747309
 21
-68.284691
 31
0.0
  0
LINE
  8
layer 1000
 10
-41.966080
 20
-47.679641
 30
0.0
 11
-39.667947
 21
-49.608004
 31
0.0
  0
LINE
  8
layer 1000
 10
-32.549038
 20
-53.376588
 30
0.0
 11
-33.049038
 21
-54.242613
 31
0.0
  0
LINE
  8
layer 1000
 10
-34.093497
 20
-54.794295
 30
0.0
 11
-46.080495
 21
-71.921540
 31
0.0
  0
LINE
  8
layer 1000
 10
-29.950962
 20
-54.876588
 30
0.0
 11
-30.450962
 21
-55.742613
 31
0.0
  0
LINE
  8
layer 1000
 10
-30.406503
 20
-56.922982
 30
0.0
 11
-39.245633
 21
-75.867649
 31
0.0
  0
LINE
  8
layer 1000
 10
-45.441938
 20
-74.800382
 30
0.0
 11
-42.058062
 21
-76.754064
 31
0.0
  0
LINE
  8
layer 1000
 10
-33.049038
 20
-54.242613
 30
0.0
 11
-30.450962
 21
-55.742613
 31
0.0
  0
LINE
  8
layer 1000
 10
-22.785798
 20
-58.217759
 30
0.0
 11
-23.127818
 21
-59.157451
 31
0.0
  0
LINE
  8
layer 1000
 10
-24.060611
 20
-59.882120
 30
0.0
 11
-32.891384
 21
-78.830684
 31
0.0
  0
LINE
  8
layer 1000
 10
-19.966720
 20
-59.243819
 30
0.0
 11
-20.308740
 21
-60.183512
 31
0.0
  0
LINE
  8
layer 1000
 10
-20.059988
 20
-61.338228
 30
0.0
 11
-25.475125
 21
-81.529982
 31
0.0
  0
LINE
  8
layer 1000
 10
-31.762623
 20
-81.554906
 30
0.0
 11
-28.090902
 21
-82.891303
 31
0.0
  0
LINE
  8
layer 1000
 10
-23.127818
 20
-59.157451
 30
0.0
 11
-20.308740
 21
-60.183512
 31
0.0
  0
LINE
  8
layer 1000
 10
-12.330223
 20
-61.290012
 30
0.0
 11
-12.503871
 21
-62.274820
 31
0.0
  0
LINE
  8
layer 1000
 10
-13.296655
 20
-63.150457
 30
0.0
 11
-18.702886
 21
-83.344598
 31
0.0
  0
LINE
  8
layer 1000
 10
-9.375799
 20
-61.810957
 30
0.0
 11
-9.549448
 21
-62.795765
 31
0.0
  0
LINE
  8
layer 1000
 10
-9.103960
 20
-63.889743
 30
0.0
 11
-10.930568
 21
-84.715067
 31
0.0
  0
LINE
  8
layer 1000
 10
-17.118216
 20
-85.831425
 30
0.0
 11
-13.270215
 21
-86.509932
 31
0.0
  0
LINE
  8
layer 1000
 10
-12.503871
 20
-62.274820
 30
0.0
 11
-9.549448
 21
-62.795765
 31
0.0
  0
LINE
  8
layer 1000
 10
-1.500000
 20
-62.500000
 30
0.0
 11
-1.500000
 21
-63.500000
 31
0.0
  0
LINE
  8
layer 1000
 10
-2.128687
 20
-64.500000
 30
0.0
 11
-3.946109
 21
-85.326128
 31
0.0
  0
LINE
  8
layer 1000
 10
1.500000
 20
-62.500000
 30
0.0
 11
1.500000
 21
-63.500000
 31
0.0
  0
LINE
  8
layer 1000
 10
2.128687
 20
-64.500000
 30
0.0
 11
3.946109
 21
-85.326128
 31
0.0
  0
LINE
  8
layer 1000
 10
-1.953682
 20
-87.500000
 30
0.0
 11
1.953682
 21
-87.500000
 31
0.0
  0
LINE
  8
layer 1000
 10
-1.500000
 20
-63.500000
 30
0.0
 11
1.500000
 21
-63.500000
 31
0.0
  0
LINE
  8
layer 1000
 10
9.375799
 20
-61.810957
 30
0.0
 11
9.549448
 21
-62.795765
 31
0.0
  0
LINE
  8
layer 1000
 10
9.103960
 20
-63.889743
 30
0.0
 11
10.930568
 21
-84.715067
 31
0.0
  0
LINE
  8
layer 1000
 10
12.330223
 20
-61.290012
 30
0.0
 11
12.503871
 21
-62.274820
 31
0.0
  0
LINE
  8
layer 1000
 10
13.296655
 20
-63.150457
 30
0.0
 11
18.702886
 21
-83.344598
 31
0.0
  0
LINE
  8
layer 1000
 10
13.270215
 20
-86.509932
 30
0.0
 11
17.118216
 21
-85.831425
 31
0.0
  0
LINE
  8
layer 1000
 10
9.549448
 20
-62.795765
 30
0.0
 11
12.503871
 21
-62.274820
 31
0.0
  0
LINE
  8
layer 1000
 10
19.966720
 20
-59.243819
 30
0.0
 11
20.308740
 21
-60.183512
 31
0.0
  0
LINE
  8
layer 1000
 10
20.059988
 20
-61.338228
 30
0.0
 11
25.475125
 21
-81.529982
 31
0.0
  0
LINE
  8
layer 1000
 10
22.785798
 20
-58.217759
 30
0.0
 11
23.127818
 21
-59.157451
 31
0.0
  0
LINE
  8
layer 1000
 10
24.060611
 20
-59.882120
 30
0.0
 11
32.891384
 21
-78.830684
 31
0.0
  0
LINE
  8
layer 1000
 10
28.090902
 20
-82.891303
 30
0.0
 11
31.762623
 21
-81.554906
 31
0.0
  0
LINE
  8
layer 1000
 10
20.308740
 20
-60.183512
 30
0.0
 11
23.127818
 21
-59.157451
 31
0.0
  0
LINE
  8
layer 1000
 10
29.950962
 20
-54.876588
 30
0.0
 11
30.450962
 21
-55.742613
 31
0.0
  0
LINE
  8
layer 1000
 10
30.406503
 20
-56.922982
 30
0.0
 11
39.245633
 21
-75.867649
 31
0.0
  0
LINE
  8
layer 1000
 10
32.549038
 20
-53.376588
 30
0.0
 11
33.049038
 21
-54.242613
 31
0.0
  0
LINE
  8
layer 1000
 10
34.093497
 20
-54.794295
 30
0.0
 11
46.080495
 21
-71.921540
 31
0.0
  0
LINE
  8
layer 1000
 10
42.058062
 20
-76.754064
 30
0.0
 11
45.441938
 21
-74.800382
 31
0.0
  0
LINE
  8
layer 1000
 10
30.450962
 20
-55.742613
 30
0.0
 11
33.049038
 21
-54.242613
 31
0.0
  0
LINE
  8
layer 1000
 10
39.025159
 20
-48.841959
 30
0.0
 11
39.667947
 21
-49.608004
 31
0.0
  0
LINE
  8
layer 1000
 10
39.829132
 20
-50.778160
 30
0.0
 11
51.823683
 21
-67.900116
 31
0.0
  0
LINE
  8
layer 1000
 10
41.323292
 20
-46.913596
 30
0.0
 11
41.966080
 21
-47.679641
 31
0.0
  0
LINE
  8
layer 1000
 10
43.090470
 20
-48.041573
 30
0.0
 11
57.869473
 21
-62.827096
 31
0.0
  0
LINE
  8
layer 1000
 10
54.747309
 20
-68.284691
 30
0.0
 11
57.740523
 21
-65.773086
 31
0.0
  0
LINE
  8
layer 1000
 10
39.667947
 20
-49.608004
 30
0.0
 11
41.966080
 21
-47.679641
 31
0.0
  0
LINE
  8
layer 1000
 10
46.913596
 20
-41.323292
 30
0.0
 11
47.679641
 21
-41.966080
 31
0.0
  0
LINE
  8
layer 1000
 10
48.041573
 20
-43.090470
 30
0.0
 11
62.827096
 21
-57.869473
 31
0.0
  0
LINE
  8
layer 1000
 10
48.841959
 20
-39.025159
 30
0.0
 11
49.608004
 21
-39.667947
 31
0.0
  0
LINE
  8
layer 1000
 10
50.778160
 20
-39.829132
 30
0.0
 11
67.900116
 21
-51.823683
 31
0.0
  0
LINE
  8
layer 1000
 10
65.773086
 20
-57.740523
 30
0.0
 11
68.284691
 21
-54.747309
 31
0.0
  0
LINE
  8
layer 1000
 10
47.679641
 20
-41.966080
 30
0.0
 11
49.608004
 21
-39.667947
 31
0.0
  0
LINE
  8
layer 1000
 10
53.376588
 20
-32.549038
 30
0.0
 11
54.242613
 21
-33.049038
 31
0.0
  0
LINE
  8
layer 1000
 10
54.794295
 20
-34.093497
 30
0.0
 11
71.921540
 21
-46.080495
 31
0.0
  0
LINE
  8
layer 1000
 10
54.876588
 20
-29.950962
 30
0.0
 11
55.742613
 21
-30.450962
 31
0.0
  0
LINE
  8
layer 1000
 10
56.922982
 20
-30.406503
 30
0.0
 11
75.867649
 21
-39.245633
 31
0.0
  0
LINE
  8
layer 1000
 10
74.800382
 20
-45.441938
 30
0.0
 11
76.754064
 21
-42.058062
 31
0.0
  0
LINE
  8
layer 1000
 10
54.242613
 20
-33.049038
 30
0.0
 11
55.742613
 21
-30.450962
 31
0.0
  0
LINE
  8
layer 1000
 10
58.217759
 20
-22.785798
 30
0.0
 11
59.157451
 21
-23.127818
 31
0.0
  0
LINE
  8
layer 1000
 10
59.882120
 20
-24.060611
 30
0.0
 11
78.830684
 21
-32.891384
 31
0.0
  0
LINE
  8
layer 1000
 10
59.243819
 20
-19.966720
 30
0.0
 11
60.183512
 21
-20.308740
 31
0.0
  0
LINE
  8
layer 1000
 10
61.338228
 20
-20.059988
 30
0.0
 11
81.529982
 21
-25.475125
 31
0.0
  0
LINE
  8
layer 1000
 10
81.554906
 20
-31.762623
 30
0.0
 11
82.891303
 21
-28.090902
 31
0.0
  0
LINE
  8
layer 1000
 10
59.157451
 20
-23.127818
 30
0.0
 11
60.183512
 21
-20.308740
 31
0.0
  0
LINE
  8
layer 1000
 10
61.290012
 20
-12.330223
 30
0.0
 11
62.274820
 21
-12.503871
 31
0.0
  0
LINE
  8
layer 1000
 10
63.150457
 20
-13.296655
 30
0.0
 11
83.344598
 21
-18.702886
 31
0.0
  0
LINE
  8
layer 1000
 10
61.810957
 20
-9.375799
 30
0.0
 11
62.795765
 21
-9.549448
 31
0.0
  0
LINE
  8
layer 1000
 10
63.889743
 20
-9.103960
 30
0.0
 11
84.715067
 21
-10.930568
 31
0.0
  0
LINE
  8
layer 1000
 10
85.831425
 20
-17.118216
 30
0.0
 11
86.509932
 21
-13.270215
 31
0.0
  0
LINE
  8
layer 1000
 10
62.274820
 20
-12.503871
 30
0.0
 11
62.795765
 21
-9.549448
 31
0.0
  0
ARC
  8
layer 1000
 10
65.173146
 20
0.051682
 30
0.000000
 40
2.281914
 50
222.842965
 51
252.842965
  0
ARC
  8
layer 1000
 10
85.500000
 20
-1.953682
 30
0.000000
 40
2.000000
 50
265.012635
 51
0.000000
  0
ARC
  8
layer 1000
 10
65.173146
 20
-0.051682
 30
0.000000
 40
2.281914
 50
107.157035
 51
137.157035
  0
ARC
  8
layer 1000
 10
85.500000
 20
1.953682
 30
0.000000
 40
2.000000
 50
360.000000
 51
94.987365
  0
ARC
  8
layer 1000
 10
0.000000
 20
0.000000
 30
0.000000
 40
62.517997
 50
351.374835
 51
358.625165
  0
ARC
  8
layer 1000
 10
-0.000000
 20
0.000000
 30
0.000000
 40
62.517997
 50
358.625165
 51
1.374835
  0
ARC
  8
layer 1000
 10
64.174045
 20
11.368095
 30
0.000000
 40
2.281914
 50
232.842965
 51
262.842965
  0
ARC
  8
layer 1000
 10
84.540316
 20
12.922918
 30
0.000000
 40
2.000000
 50
275.012635
 51
10.000000
  0
ARC
  8
layer 1000
 10
64.191994
 20
11.266301
 30
0.000000
 40
2.281914
 50
117.157035
 51
147.157035
  0
ARC
  8
layer 1000
 10
83.861810
 20
16.770920
 30
0.000000
 40
2.000000
 50
10.000000
 51
104.987365
  0
ARC
  8
layer 1000
 10
0.000000
 20
-0.000000
 30
0.000000
 40
62.517997
 50
1.374835
 51
8.625165
  0
ARC
  8
layer 1000
 10
0.000000
 20
0.000000
 30
0.000000
 40
62.517997
 50
8.625165
 51
11.374835
  0
ARC
  8
layer 1000
 10
61.225048
 20
22.339094
 30
0.000000
 40
2.281914
 50
242.842965
 51
272.842965
  0
ARC
  8
layer 1000
 10
81.011918
 20
27.406862
 30
0.000000
 40
2.000000
 50
285.012635
 51
20.000000
  0
ARC
  8
layer 1000
 10
61.260400
 20
22.241963
 30
0.000000
 40
2.281914
 50
127.157035
 51
157.157035
  0
ARC
  8
layer 1000
 10
79.675521
 20
31.078582
 30
0.000000
 40
2.000000
 50
20.000000
 51
114.987365
  0
ARC
  8
layer 1000
 10
0.000000
 20
0.000000
 30
0.000000
 40
62.517997
 50
11.374835
 51
18.625165
  0
ARC
  8
layer 1000
 10
0.000000
 20
-0.000000
 30
0.000000
 40
62.517997
 50
18.625165
 51
21.374835
  0
ARC
  8
layer 1000
 10
56.415759
 20
32.631331
 30
0.000000
 40
2.281914
 50
252.842965
 51
282.842965
  0
ARC
  8
layer 1000
 10
75.022013
 20
41.058062
 30
0.000000
 40
2.000000
 50
295.012635
 51
30.000000
  0
ARC
  8
layer 1000
 10
56.467441
 20
32.541815
 30
0.000000
 40
2.281914
 50
137.157035
 51
167.157035
  0
ARC
  8
layer 1000
 10
73.068331
 20
44.441938
 30
0.000000
 40
2.000000
 50
30.000000
 51
124.987365
  0
ARC
  8
layer 1000
 10
0.000000
 20
0.000000
 30
0.000000
 40
62.517997
 50
21.374835
 51
28.625165
  0
ARC
  8
layer 1000
 10
-0.000000
 20
-0.000000
 30
0.000000
 40
62.517997
 50
28.625165
 51
31.374835
  0
ARC
  8
layer 1000
 10
49.892305
 20
41.932081
 30
0.000000
 40
2.281914
 50
262.842965
 51
292.842965
  0
ARC
  8
layer 1000
 10
66.752602
 20
53.461734
 30
0.000000
 40
2.000000
 50
305.012635
 51
40.000000
  0
ARC
  8
layer 1000
 10
49.958747
 20
41.852900
 30
0.000000
 40
2.281914
 50
147.157035
 51
177.157035
  0
ARC
  8
layer 1000
 10
64.240998
 20
56.454948
 30
0.000000
 40
2.000000
 50
40.000000
 51
134.987365
  0
ARC
  8
layer 1000
 10
0.000000
 20
-0.000000
 30
0.000000
 40
62.517997
 50
31.374835
 51
38.625165
  0
ARC
  8
layer 1000
 10
-0.000000
 20
0.000000
 30
0.000000
 40
62.517997
 50
38.625165
 51
41.374835
  0
ARC
  8
layer 1000
 10
41.852900
 20
49.958747
 30
0.000000
 40
2.281914
 50
272.842965
 51
302.842965
  0
ARC
  8
layer 1000
 10
56.454948
 20
64.240998
 30
0.000000
 40
2.000000
 50
315.012635
 51
50.000000
  0
ARC
  8
layer 1000
 10
41.932081
 20
49.892305
 30
0.000000
 40
2.281914
 50
157.157035
 51
187.157035
  0
ARC
  8
layer 1000
 10
53.461734
 20
66.752602
 30
0.000000
 40
2.000000
 50
50.000000
 51
144.987365
  0
ARC
  8
layer 1000
 10
-0.000000
 20
0.000000
 30
0.000000
 40
62.517997
 50
41.374835
 51
48.625165
  0
ARC
  8
layer 1000
 10
0.000000
 20
-0.000000
 30
0.000000
 40
62.517997
 50
48.625165
 51
51.374835
  0
ARC
  8
layer 1000
 10
32.541815
 20
56.467441
 30
0.000000
 40
2.281914
 50
282.842965
 51
312.842965
  0
ARC
  8
layer 1000
 10
44.441938
 20
73.068331
 30
0.000000
 40
2.000000
 50
325.012635
 51
60.000000
  0
ARC
  8
layer 1000
 10
32.631331
 20
56.415759
 30
0.000000
 40
2.281914
 50
167.157035
 51
197.157035
  0
ARC
  8
layer 1000
 10
41.058062
 20
75.022013
 30
0.000000
 40
2.000000
 50
60.000000
 51
154.987365
  0
ARC
  8
layer 1000
 10
0.000000
 20
0.000000
 30
0.000000
 40
62.517997
 50
51.374835
 51
58.625165
  0
ARC
  8
layer 1000
 10
0.000000
 20
-0.000000
 30
0.000000
 40
62.517997
 50
58.625165
 51
61.374835
  0
ARC
  8
layer 1000
 10
22.241963
 20
61.260400
 30
0.000000
 40
2.281914
 50
292.842965
 51
322.842965
  0
ARC
  8
layer 1000
 10
31.078582
 20
79.675521
 30
0.000000
 40
2.000000
 50
335.012635
 51
70.000000
  0
ARC
  8
layer 1000
 10
22.339094
 20
61.225048
 30
0.000000
 40
2.281914
 50
177.157035
 51
207.157035
  0
ARC
  8
layer 1000
 10
27.406862
 20
81.011918
 30
0.000000
 40
2.000000
 50
70.000000
 51
164.987365
  0
ARC
  8
layer 1000
 10
0.000000
 20
-0.000000
 30
0.000000
 40
62.517997
 50
61.374835
 51
68.625165
  0
ARC
  8
layer 1000
 10
-0.000000
 20
0.000000
 30
0.000000
 40
62.517997
 50
68.625165
 51
71.374835
  0
ARC
  8
layer 1000
 10
11.266301
 20
64.191994
 30
0.000000
 40
2.281914
 50
302.842965
 51
332.842965
  0
ARC
  8
layer 1000
 10
16.770920
 20
83.861810
 30
0.000000
 40
2.000000
 50
345.012635
 51
80.000000
  0
ARC
  8
layer 1000
 10
11.368095
 20
64.174045
 30
0.000000
 40
2.281914
 50
187.157035
 51
217.157035
  0
ARC
  8
layer 1000
 10
12.922918
 20
84.540316
 30
0.000000
 40
2.000000
 50
80.000000
 51
174.987365
  0
ARC
  8
layer 1000
 10
-0.000000
 20
-0.000000
 30
0.000000
 40
62.517997
 50
71.374835
 51
78.625165
  0
ARC
  8
layer 1000
 10
0.000000
 20
0.000000
 30
0.000000
 40
62.517997
 50
78.625165
 51
81.374835
  0
ARC
  8
layer 1000
 10
-0.051682
 20
65.173146
 30
0.000000
 40
2.281914
 50
312.842965
 51
342.842965
  0
ARC
  8
layer 1000
 10
1.953682
 20
85.500000
 30
0.000000
 40
2.000000
 50
355.012635
 51
90.000000
  0
ARC
  8
layer 1000
 10
0.051682
 20
65.173146
 30
0.000000
 40
2.281914
 50
197.157035
 51
227.157035
  0
ARC
  8
layer 1000
 10
-1.953682
 20
85.500000
 30
0.000000
 40
2.000000
 50
90.000000
 51
184.987365
  0
ARC
  8
layer 1000
 10
-0.000000
 20
-0.000000
 30
0.000000
 40
62.517997
 50
81.374835
 51
88.625165
  0
ARC
  8
layer 1000
 10
0.000000
 20
-0.000000
 30
0.000000
 40
62.517997
 50
88.625165
 51
91.374835
  0
ARC
  8
layer 1000
 10
-11.368095
 20
64.174045
 30
0.000000
 40
2.281914
 50
322.842965
 51
352.842965
  0
ARC
  8
layer 1000
 10
-12.922918
 20
84.540316
 30
0.000000
 40
2.000000
 50
5.012635
 51
100.000000
  0
ARC
  8
layer 1000
 10
-11.266301
 20
64.191994
 30
0.000000
 40
2.281914
 50
207.157035
 51
237.157035
  0
ARC
  8
layer 1000
 10
-16.770920
 20
83.861810
 30
0.000000
 40
2.000000
 50
100.000000
 51
194.987365
  0
ARC
  8
layer 1000
 10
0.000000
 20
0.000000
 30
0.000000
 40
62.517997
 50
91.374835
 51
98.625165
  0
ARC
  8
layer 1000
 10
-0.000000
 20
0.000000
 30
0.000000
 40
62.517997
 50
98.625165
 51
101.374835
  0
ARC
  8
layer 1000
 10
-22.339094
 20
61.225048
 30
0.000000
 40
2.281914
 50
332.842965
 51
2.842965
  0
ARC
  8
layer 1000
 10
-27.406862
 20
81.011918
 30
0.000000
 40
2.000000
 50
15.012635
 51
110.000000
  0
ARC
  8
layer 1000
 10
-22.241963
 20
61.260400
 30
0.000000
 40
2.281914
 50
217.157035
 51
247.157035
  0
ARC
  8
layer 1000
 10
-31.078582
 20
79.675521
 30
0.000000
 40
2.000000
 50
110.000000
 51
204.987365
  0
ARC
  8
layer 1000
 10
-0.000000
 20
-0.000000
 30
0.000000
 40
62.517997
 50
101.374835
 51
108.625165
  0
ARC
  8
layer 1000
 10
0.000000
 20
0.000000
 30
0.000000
 40
62.517997
 50
108.625165
 51
111.374835
  0
ARC
  8
layer 1000
 10
-32.631331
 20
56.415759
 30
0.000000
 40
2.281914
 50
342.842965
 51
12.842965
  0
ARC
  8
layer 1000
 10
-41.058062
 20
75.022013
 30
0.000000
 40
2.000000
 50
25.012635
 51
120.000000
  0
ARC
  8
layer 1000
 10
-32.541815
 20
56.467441
 30
0.000000
 40
2.281914
 50
227.157035
 51
257.157035
  0
ARC
  8
layer 1000
 10
-44.441938
 20
73.068331
 30
0.000000
 40
2.000000
 50
120.000000
 51
214.987365
  0
ARC
  8
layer 1000
 10
-0.000000
 20
0.000000
 30
0.000000
 40
62.517997
 50
111.374835
 51
118.625165
  0
ARC
  8
layer 1000
 10
0.000000
 20
0.000000
 30
0.000000
 40
62.517997
 50
118.625165
 51
121.374835
  0
ARC
  8
layer 1000
 10
-41.932081
 20
49.892305
 30
0.000000
 40
2.281914
 50
352.842965
 51
22.842965
  0
ARC
  8
layer 1000
 10
-53.461734
 20
66.752602
 30
0.000000
 40
2.000000
 50
35.012635
 51
130.000000
  0
ARC
  8
layer 1000
 10
-41.852900
 20
49.958747
 30
0.000000
 40
2.281914
 50
237.157035
 51
267.157035
  0
ARC
  8
layer 1000
 10
-56.454948
 20
64.240998
 30
0.000000
 40
2.000000
 50
130.000000
 51
224.987365
  0
ARC
  8
layer 1000
 10
0.000000
 20
-0.000000
 30
0.000000
 40
62.517997
 50
121.374835
 51
128.625165
  0
ARC
  8
layer 1000
 10
-0.000000
 20
-0.000000
 30
0.000000
 40
62.517997
 50
128.625165
 51
131.374835
  0
ARC
  8
layer 1000
 10
-49.958747
 20
41.852900
 30
0.000000
 40
2.281914
 50
2.842965
 51
32.842965
  0
ARC
  8
layer 1000
 10
-64.240998
 20
56.454948
 30
0.000000
 40
2.000000
 50
45.012635
 51
140.000000
  0
ARC
  8
layer 1000
 10
-49.892305
 20
41.932081
 30
0.000000
 40
2.281914
 50
247.157035
 51
277.157035
  0
ARC
  8
layer 1000
 10
-66.752602
 20
53.461734
 30
0.000000
 40
2.000000
 50
140.000000
 51
234.987365
  0
ARC
  8
layer 1000
 10
-0.000000
 20
0.000000
 30
0.000000
 40
62.517997
 50
131.374835
 51
138.625165
  0
ARC
  8
layer 1000
 10
0.000000
 20
0.000000
 30
0.000000
 40
62.517997
 50
138.625165
 51
141.374835
  0
ARC
  8
layer 1000
 10
-56.467441
 20
32.541815
 30
0.000000
 40
2.281914
 50
12.842965
 51
42.842965
  0
ARC
  8
layer 1000
 10
-73.068331
 20
44.441938
 30
0.000000
 40
2.000000
 50
55.012635
 51
150.000000
  0
ARC
  8
layer 1000
 10
-56.415759
 20
32.631331
 30
0.000000
 40
2.281914
 50
257.157035
 51
287.157035
  0
ARC
  8
layer 1000
 10
-75.022013
 20
41.058062
 30
0.000000
 40
2.000000
 50
150.000000
 51
244.987365
  0
ARC
  8
layer 1000
 10
0.000000
 20
-0.000000
 30
0.000000
 40
62.517997
 50
141.374835
 51
148.625165
  0
ARC
  8
layer 1000
 10
0.000000
 20
-0.000000
 30
0.000000
 40
62.517997
 50
148.625165
 51
151.374835
  0
ARC
  8
layer 1000
 10
-61.260400
 20
22.241963
 30
0.000000
 40
2.281914
 50
22.842965
 51
52.842965
  0
ARC
  8
layer 1000
 10
-79.675521
 20
31.078582
 30
0.000000
 40
2.000000
 50
65.012635
 51
160.000000
  0
ARC
  8
layer 1000
 10
-61.225048
 20
22.339094
 30
0.000000
 40
2.281914
 50
267.157035
 51
297.157035
  0
ARC
  8
layer 1000
 10
-81.011918
 20
27.406862
 30
0.000000
 40
2.000000
 50
160.000000
 51
254.987365
  0
ARC
  8
layer 1000
 10
-0.000000
 20
0.000000
 30
0.000000
 40
62.517997
 50
151.374835
 51
158.625165
  0
ARC
  8
layer 1000
 10
-0.000000
 20
-0.000000
 30
0.000000
 40
62.517997
 50
158.625165
 51
161.374835
  0
ARC
  8
layer 1000
 10
-64.191994
 20
11.266301
 30
0.000000
 40
2.281914
 50
32.842965
 51
62.842965
  0
ARC
  8
layer 1000
 10
-83.861810
 20
16.770920
 30
0.000000
 40
2.000000
 50
75.012635
 51
170.000000
  0
ARC
  8
layer 1000
 10
-64.174045
 20
11.368095
 30
0.000000
 40
2.281914
 50
277.157035
 51
307.157035
  0
ARC
  8
layer 1000
 10
-84.540316
 20
12.922918
 30
0.000000
 40
2.000000
 50
170.000000
 51
264.987365
  0
ARC
  8
layer 1000
 10
0.000000
 20
-0.000000
 30
0.000000
 40
62.517997
 50
161.374835
 51
168.625165
  0
ARC
  8
layer 1000
 10
-0.000000
 20
0.000000
 30
0.000000
 40
62.517997
 50
168.625165
 51
171.374835
  0
ARC
  8
layer 1000
 10
-65.173146
 20
-0.051682
 30
0.000000
 40
2.281914
 50
42.842965
 51
72.842965
  0
ARC
  8
layer 1000
 10
-85.500000
 20
1.953682
 30
0.000000
 40
2.000000
 50
85.012635
 51
180.000000
  0
ARC
  8
layer 1000
 10
-65.173146
 20
0.051682
 30
0.000000
 40
2.281914
 50
287.157035
 51
317.157035
  0
ARC
  8
layer 1000
 10
-85.500000
 20
-1.953682
 30
0.000000
 40
2.000000
 50
180.000000
 51
274.987365
  0
ARC
  8
layer 1000
 10
-0.000000
 20
-0.000000
 30
0.000000
 40
62.517997
 50
171.374835
 51
178.625165
  0
ARC
  8
layer 1000
 10
0.000000
 20
0.000000
 30
0.000000
 40
62.517997
 50
178.625165
 51
181.374835
  0
ARC
  8
layer 1000
 10
-64.174045
 20
-11.368095
 30
0.000000
 40
2.281914
 50
52.842965
 51
82.842965
  0
ARC
  8
layer 1000
 10
-84.540316
 20
-12.922918
 30
0.000000
 40
2.000000
 50
95.012635
 51
190.000000
  0
ARC
  8
layer 1000
 10
-64.191994
 20
-11.266301
 30
0.000000
 40
2.281914
 50
297.157035
 51
327.157035
  0
ARC
  8
layer 1000
 10
-83.861810
 20
-16.770920
 30
0.000000
 40
2.000000
 50
190.000000
 51
284.987365
  0
ARC
  8
layer 1000
 10
0.000000
 20
0.000000
 30
0.000000
 40
62.517997
 50
181.374835
 51
188.625165
  0
ARC
  8
layer 1000
 10
-0.000000
 20
-0.000000
 30
0.000000
 40
62.517997
 50
188.625165
 51
191.374835
  0
ARC
  8
layer 1000
 10
-61.225048
 20
-22.339094
 30
0.000000
 40
2.281914
 50
62.842965
 51
92.842965
  0
ARC
  8
layer 1000
 10
-81.011918
 20
-27.406862
 30
0.000000
 40
2.000000
 50
105.012635
 51
200.000000
  0
ARC
  8
layer 1000
 10
-61.260400
 20
-22.241963
 30
0.000000
 40
2.281914
 50
307.157035
 51
337.157035
  0
ARC
  8
layer 1000
 10
-79.675521
 20
-31.078582
 30
0.000000
 40
2.000000
 50
200.000000
 51
294.987365
  0
ARC
  8
layer 1000
 10
-0.000000
 20
-0.000000
 30
0.000000
 40
62.517997
 50
191.374835
 51
198.625165
  0
ARC
  8
layer 1000
 10
-0.000000
 20
0.000000
 30
0.000000
 40
62.517997
 50
198.625165
 51
201.374835
  0
ARC
  8
layer 1000
 10
-56.415759
 20
-32.631331
 30
0.000000
 40
2.281914
 50
72.842965
 51
102.842965
  0
ARC
  8
layer 1000
 10
-75.022013
 20
-41.058062
 30
0.000000
 40
2.000000
 50
115.012635
 51
210.000000
  0
ARC
  8
layer 1000
 10
-56.467441
 20
-32.541815
 30
0.000000
 40
2.281914
 50
317.157035
 51
347.157035
  0
ARC
  8
layer 1000
 10
-73.068331
 20
-44.441938
 30
0.000000
 40
2.000000
 50
210.000000
 51
304.987365
  0
ARC
  8
layer 1000
 10
0.000000
 20
0.000000
 30
0.000000
 40
62.517997
 50
201.374835
 51
208.625165
  0
ARC
  8
layer 1000
 10
-0.000000
 20
-0.000000
 30
0.000000
 40
62.517997
 50
208.625165
 51
211.374835
  0
ARC
  8
layer 1000
 10
-49.892305
 20
-41.932081
 30
0.000000
 40
2.281914
 50
82.842965
 51
112.842965
  0
ARC
  8
layer 1000
 10
-66.752602
 20
-53.461734
 30
0.000000
 40
2.000000
 50
125.012635
 51
220.000000
  0
ARC
  8
layer 1000
 10
-49.958747
 20
-41.852900
 30
0.000000
 40
2.281914
 50
327.157035
 51
357.157035
  0
ARC
  8
layer 1000
 10
-64.240998
 20
-56.454948
 30
0.000000
 40
2.000000
 50
220.000000
 51
314.987365
  0
ARC
  8
layer 1000
 10
-0.000000
 20
-0.000000
 30
0.000000
 40
62.517997
 50
211.374835
 51
218.625165
  0
ARC
  8
layer 1000
 10
0.000000
 20
-0.000000
 30
0.000000
 40
62.517997
 50
218.625165
 51
221.374835
  0
ARC
  8
layer 1000
 10
-41.852900
 20
-49.958747
 30
0.000000
 40
2.281914
 50
92.842965
 51
122.842965
  0
ARC
  8
layer 1000
 10
-56.454948
 20
-64.240998
 30
0.000000
 40
2.000000
 50
135.012635
 51
230.000000
  0
ARC
  8
layer 1000
 10
-41.932081
 20
-49.892305
 30
0.000000
 40
2.281914
 50
337.157035
 51
7.157035
  0
ARC
  8
layer 1000
 10
-53.461734
 20
-66.752602
 30
0.000000
 40
2.000000
 50
230.000000
 51
324.987365
  0
ARC
  8
layer 1000
 10
0.000000
 20
-0.000000
 30
0.000000
 40
62.517997
 50
221.374835
 51
228.625165
  0
ARC
  8
layer 1000
 10
-0.000000
 20
0.000000
 30
0.000000
 40
62.517997
 50
228.625165
 51
231.374835
  0
ARC
  8
layer 1000
 10
-32.541815
 20
-56.467441
 30
0.000000
 40
2.281914
 50
102.842965
 51
132.842965
  0
ARC
  8
layer 1000
 10
-44.441938
 20
-73.068331
 30
0.000000
 40
2.000000
 50
145.012635
 51
240.000000
  0
ARC
  8
layer 1000
 10
-32.631331
 20
-56.415759
 30
0.000000
 40
2.281914
 50
347.157035
 51
17.157035
  0
ARC
  8
layer 1000
 10
-41.058062
 20
-75.022013
 30
0.000000
 40
2.000000
 50
240.000000
 51
334.987365
  0
ARC
  8
layer 1000
 10
-0.000000
 20
-0.000000
 30
0.000000
 40
62.517997
 50
231.374835
 51
238.625165
  0
ARC
  8
layer 1000
 10
-0.000000
 20
-0.000000
 30
0.000000
 40
62.517997
 50
238.625165
 51
241.374835
  0
ARC
  8
layer 1000
 10
-22.241963
 20
-61.260400
 30
0.000000
 40
2.281914
 50
112.842965
 51
142.842965
  0
ARC
  8
layer 1000
 10
-31.078582
 20
-79.675521
 30
0.000000
 40
2.000000
 50
155.012635
 51
250.000000
  0
ARC
  8
layer 1000
 10
-22.339094
 20
-61.225048
 30
0.000000
 40
2.281914
 50
357.157035
 51
27.157035
  0
ARC
  8
layer 1000
 10
-27.406862
 20
-81.011918
 30
0.000000
 40
2.000000
 50
250.000000
 51
344.987365
  0
ARC
  8
layer 1000
 10
-0.000000
 20
-0.000000
 30
0.000000
 40
62.517997
 50
241.374835
 51
248.625165
  0
ARC
  8
layer 1000
 10
0.000000
 20
-0.000000
 30
0.000000
 40
62.517997
 50
248.625165
 51
251.374835
  0
ARC
  8
layer 1000
 10
-11.266301
 20
-64.191994
 30
0.000000
 40
2.281914
 50
122.842965
 51
152.842965
  0
ARC
  8
layer 1000
 10
-16.770920
 20
-83.861810
 30
0.000000
 40
2.000000
 50
165.012635
 51
260.000000
  0
ARC
  8
layer 1000
 10
-11.368095
 20
-64.174045
 30
0.000000
 40
2.281914
 50
7.157035
 51
37.157035
  0
ARC
  8
layer 1000
 10
-12.922918
 20
-84.540316
 30
0.000000
 40
2.000000
 50
260.000000
 51
354.987365
  0
ARC
  8
layer 1000
 10
0.000000
 20
0.000000
 30
0.000000
 40
62.517997
 50
251.374835
 51
258.625165
  0
ARC
  8
layer 1000
 10
-0.000000
 20
-0.000000
 30
0.000000
 40
62.517997
 50
258.625165
 51
261.374835
  0
ARC
  8
layer 1000
 10
0.051682
 20
-65.173146
 30
0.000000
 40
2.281914
 50
132.842965
 51
162.842965
  0
ARC
  8
layer 1000
 10
-1.953682
 20
-85.500000
 30
0.000000
 40
2.000000
 50
175.012635
 51
270.000000
  0
ARC
  8
layer 1000
 10
-0.051682
 20
-65.173146
 30
0.000000
 40
2.281914
 50
17.157035
 51
47.157035
  0
ARC
  8
layer 1000
 10
1.953682
 20
-85.500000
 30
0.000000
 40
2.000000
 50
270.000000
 51
4.987365
  0
ARC
  8
layer 1000
 10
0.000000
 20
-0.000000
 30
0.000000
 40
62.517997
 50
261.374835
 51
268.625165
  0
ARC
  8
layer 1000
 10
-0.000000
 20
0.000000
 30
0.000000
 40
62.517997
 50
268.625165
 51
271.374835
  0
ARC
  8
layer 1000
 10
11.368095
 20
-64.174045
 30
0.000000
 40
2.281914
 50
142.842965
 51
172.842965
  0
ARC
  8
layer 1000
 10
12.922918
 20
-84.540316
 30
0.000000
 40
2.000000
 50
185.012635
 51
280.000000
  0
ARC
  8
layer 1000
 10
11.266301
 20
-64.191994
 30
0.000000
 40
2.281914
 50
27.157035
 51
57.157035
  0
ARC
  8
layer 1000
 10
16.770920
 20
-83.861810
 30
0.000000
 40
2.000000
 50
280.000000
 51
14.987365
  0
ARC
  8
layer 1000
 10
-0.000000
 20
-0.000000
 30
0.000000
 40
62.517997
 50
271.374835
 51
278.625165
  0
ARC
  8
layer 1000
 10
0.000000
 20
-0.000000
 30
0.000000
 40
62.517997
 50
278.625165
 51
281.374835
  0
ARC
  8
layer 1000
 10
22.339094
 20
-61.225048
 30
0.000000
 40
2.281914
 50
152.842965
 51
182.842965
  0
ARC
  8
layer 1000
 10
27.406862
 20
-81.011918
 30
0.000000
 40
2.000000
 50
195.012635
 51
290.000000
  0
ARC
  8
layer 1000
 10
22.241963
 20
-61.260400
 30
0.000000
 40
2.281914
 50
37.157035
 51
67.157035
  0
ARC
  8
layer 1000
 10
31.078582
 20
-79.675521
 30
0.000000
 40
2.000000
 50
290.000000
 51
24.987365
  0
ARC
  8
layer 1000
 10
0.000000
 20
-0.000000
 30
0.000000
 40
62.517997
 50
281.374835
 51
288.625165
  0
ARC
  8
layer 1000
 10
-0.000000
 20
-0.000000
 30
0.000000
 40
62.517997
 50
288.625165
 51
291.374835
  0
ARC
  8
layer 1000
 10
32.631331
 20
-56.415759
 30
0.000000
 40
2.281914
 50
162.842965
 51
192.842965
  0
ARC
  8
layer 1000
 10
41.058062
 20
-75.022013
 30
0.000000
 40
2.000000
 50
205.012635
 51
300.000000
  0
ARC
  8
layer 1000
 10
32.541815
 20
-56.467441
 30
0.000000
 40
2.281914
 50
47.157035
 51
77.157035
  0
ARC
  8
layer 1000
 10
44.441938
 20
-73.068331
 30
0.000000
 40
2.000000
 50
300.000000
 51
34.987365
  0
ARC
  8
layer 1000
 10
-0.000000
 20
0.000000
 30
0.000000
 40
62.517997
 50
291.374835
 51
298.625165
  0
ARC
  8
layer 1000
 10
0.000000
 20
-0.000000
 30
0.000000
 40
62.517997
 50
298.625165
 51
301.374835
  0
ARC
  8
layer 1000
 10
41.932081
 20
-49.892305
 30
0.000000
 40
2.281914
 50
172.842965
 51
202.842965
  0
ARC
  8
layer 1000
 10
53.461734
 20
-66.752602
 30
0.000000
 40
2.000000
 50
215.012635
 51
310.000000
  0
ARC
  8
layer 1000
 10
41.852900
 20
-49.958747
 30
0.000000
 40
2.281914
 50
57.157035
 51
87.157035
  0
ARC
  8
layer 1000
 10
56.454948
 20
-64.240998
 30
0.000000
 40
2.000000
 50
310.000000
 51
44.987365
  0
ARC
  8
layer 1000
 10
0.000000
 20
-0.000000
 30
0.000000
 40
62.517997
 50
301.374835
 51
308.625165
  0
ARC
  8
layer 1000
 10
0.000000
 20
0.000000
 30
0.000000
 40
62.517997
 50
308.625165
 51
311.374835
  0
ARC
  8
layer 1000
 10
49.958747
 20
-41.852900
 30
0.000000
 40
2.281914
 50
182.842965
 51
212.842965
  0
ARC
  8
layer 1000
 10
64.240998
 20
-56.454948
 30
0.000000
 40
2.000000
 50
225.012635
 51
320.000000
  0
ARC
  8
layer 1000
 10
49.892305
 20
-41.932081
 30
0.000000
 40
2.281914
 50
67.157035
 51
97.157035
  0
ARC
  8
layer 1000
 10
66.752602
 20
-53.461734
 30
0.000000
 40
2.000000
 50
320.000000
 51
54.987365
  0
ARC
  8
layer 1000
 10
0.000000
 20
-0.000000
 30
0.000000
 40
62.517997
 50
311.374835
 51
318.625165
  0
ARC
  8
layer 1000
 10
-0.000000
 20
-0.000000
 30
0.000000
 40
62.517997
 50
318.625165
 51
321.374835
  0
ARC
  8
layer 1000
 10
56.467441
 20
-32.541815
 30
0.000000
 40
2.281914
 50
192.842965
 51
222.842965
  0
ARC
  8
layer 1000
 10
73.068331
 20
-44.441938
 30
0.000000
 40
2.000000
 50
235.012635
 51
330.000000
  0
ARC
  8
layer 1000
 10
56.415759
 20
-32.631331
 30
0.000000
 40
2.281914
 50
77.157035
 51
107.157035
  0
ARC
  8
layer 1000
 10
75.022013
 20
-41.058062
 30
0.000000
 40
2.000000
 50
330.000000
 51
64.987365
  0
ARC
  8
layer 1000
 10
0.000000
 20
-0.000000
 30
0.000000
 40
62.517997
 50
321.374835
 51
328.625165
  0
ARC
  8
layer 1000
 10
0.000000
 20
-0.000000
 30
0.000000
 40
62.517997
 50
328.625165
 51
331.374835
  0
ARC
  8
layer 1000
 10
61.260400
 20
-22.241963
 30
0.000000
 40
2.281914
 50
202.842965
 51
232.842965
  0
ARC
  8
layer 1000
 10
79.675521
 20
-31.078582
 30
0.000000
 40
2.000000
 50
245.012635
 51
340.000000
  0
ARC
  8
layer 1000
 10
61.225048
 20
-22.339094
 30
0.000000
 40
2.281914
 50
87.157035
 51
117.157035
  0
ARC
  8
layer 1000
 10
81.011918
 20
-27.406862
 30
0.000000
 40
2.000000
 50
340.000000
 51
74.987365
  0
ARC
  8
layer 1000
 10
-0.000000
 20
0.000000
 30
0.000000
 40
62.517997
 50
331.374835
 51
338.625165
  0
ARC
  8
layer 1000
 10
0.000000
 20
0.000000
 30
0.000000
 40
62.517997
 50
338.625165
 51
341.374835
  0
ARC
  8
layer 1000
 10
64.191994
 20
-11.266301
 30
0.000000
 40
2.281914
 50
212.842965
 51
242.842965
  0
ARC
  8
layer 1000
 10
83.861810
 20
-16.770920
 30
0.000000
 40
2.000000
 50
255.012635
 51
350.000000
  0
ARC
  8
layer 1000
 10
64.174045
 20
-11.368095
 30
0.000000
 40
2.281914
 50
97.157035
 51
127.157035
  0
ARC
  8
layer 1000
 10
84.540316
 20
-12.922918
 30
0.000000
 40
2.000000
 50
350.000000
 51
84.987365
  0
ARC
  8
layer 1000
 10
0.000000
 20
-0.000000
 30
0.000000
 40
62.517997
 50
341.374835
 51
348.625165
  0
ARC
  8
layer 1000
 10
-0.000000
 20
0.000000
 30
0.000000
 40
62.517997
 50
348.625165
 51
351.374835
  0
ARC
  8
layer 1000
 10
0.000000
 20
0.000000
 30
0.000000
 40
100.000000
 50
0.000000
 51
180.000000
  0
ARC
  8
layer 1000
 10
0.000000
 20
0.000000
 30
0.000000
 40
100.000000
 50
180.000000
 51
0.000000
  0
ENDSEC
  0
EOF
