<?xml version="1.0" encoding="UTF-8" standalone="no"?>
<!-- Created with Inkscape (http://www.inkscape.org/) -->

<svg
   xmlns:dc="http://purl.org/dc/elements/1.1/"
   xmlns:cc="http://creativecommons.org/ns#"
   xmlns:rdf="http://www.w3.org/1999/02/22-rdf-syntax-ns#"
   xmlns:svg="http://www.w3.org/2000/svg"
   xmlns="http://www.w3.org/2000/svg"
   xmlns:sodipodi="http://sodipodi.sourceforge.net/DTD/sodipodi-0.dtd"
   xmlns:inkscape="http://www.inkscape.org/namespaces/inkscape"
   width="210mm"
   height="297mm"
   viewBox="0 0 744.09448819 1052.3622047"
   id="svg2"
   version="1.1"
   inkscape:version="0.91 r13725"
   sodipodi:docname="icon.svg">
  <defs
     id="defs4">
    <marker
       orient="auto"
       id="DistanceX"
       style="overflow:visible"
       refX="0.0"
       refY="0.0">
      <path
         id="path4143"
         d="M 3,-3 L -3,3 M 0,-5 L  0,5"
         style="stroke:#000000; stroke-width:0.5" />
    </marker>
    <pattern
       id="Hatch"
       x="0"
       y="0"
       patternUnits="userSpaceOnUse"
       width="8"
       height="8">
      <path
         id="path4146"
         d="M8 4 l-4,4"
         stroke-width="0.25"
         stroke="#000000"
         linecap="square" />
      <path
         id="path4148"
         d="M6 2 l-4,4"
         stroke-width="0.25"
         stroke="#000000"
         linecap="square" />
      <path
         id="path4150"
         d="M4 0 l-4,4"
         stroke-width="0.25"
         stroke="#000000"
         linecap="square" />
    </pattern>
    <marker
       orient="auto"
       id="DistanceX-1"
       style="overflow:visible"
       refX="0.0"
       refY="0.0">
      <path
         id="path5294"
         d="M 3,-3 L -3,3 M 0,-5 L  0,5"
         style="stroke:#000000; stroke-width:0.5" />
    </marker>
    <pattern
       id="Hatch-9"
       x="0"
       y="0"
       patternUnits="userSpaceOnUse"
       width="8"
       height="8">
      <path
         id="path5297"
         d="M8 4 l-4,4"
         stroke-width="0.25"
         stroke="#000000"
         linecap="square" />
      <path
         id="path5299"
         d="M6 2 l-4,4"
         stroke-width="0.25"
         stroke="#000000"
         linecap="square" />
      <path
         id="path5301"
         d="M4 0 l-4,4"
         stroke-width="0.25"
         stroke="#000000"
         linecap="square" />
    </pattern>
  </defs>
  <sodipodi:namedview
     id="base"
     pagecolor="#ffffff"
     bordercolor="#666666"
     borderopacity="1.0"
     inkscape:pageopacity="0.0"
     inkscape:pageshadow="2"
     inkscape:zoom="0.70710678"
     inkscape:cx="577.33706"
     inkscape:cy="551.22867"
     inkscape:document-units="px"
     inkscape:current-layer="layer1"
     showgrid="false"
     inkscape:window-width="1920"
     inkscape:window-height="1017"
     inkscape:window-x="1272"
     inkscape:window-y="-8"
     inkscape:window-maximized="1" />
  <metadata
     id="metadata7">
    <rdf:RDF>
      <cc:Work
         rdf:about="">
        <dc:format>image/svg+xml</dc:format>
        <dc:type
           rdf:resource="http://purl.org/dc/dcmitype/StillImage" />
      </cc:Work>
    </rdf:RDF>
  </metadata>
  <g
     inkscape:label="Livello 1"
     inkscape:groupmode="layer"
     id="layer1">
    <g
       inkscape:label="default"
       id="g4152"
       transform="matrix(0.55013244,0,0,0.55013244,285.90629,-38.196966)" />
    <g
       id="g5283"
       transform="translate(500.00028,0)">
      <path
         sodipodi:nodetypes="ccccsc"
         inkscape:connector-curvature="0"
         id="path5032"
         d="m -24.739004,565.7349 -66.871119,-8.78622 C -72.300059,400.24869 -317.47506,372.57256 -339.17972,524.28983 l -64.04242,-8.38318 c 13.77483,-104.63018 109.66787,-178.29527 214.1831,-164.53558 104.515231,13.75969 178.074861,109.73365 164.300036,214.36383 z"
         style="color:#000000;display:inline;overflow:visible;visibility:visible;opacity:1;fill:#cc6e52;fill-opacity:1;fill-rule:evenodd;stroke:none;stroke-width:0.60000002;stroke-linecap:round;stroke-linejoin:round;stroke-miterlimit:4;stroke-dasharray:none;stroke-dashoffset:0;stroke-opacity:1;marker:none;enable-background:accumulate" />
      <path
         sodipodi:nodetypes="ccccccccsccccccccsccccccccsccccccccccccccccccccccccccccccccsccccccsccccccsccccccccsccccccccccccccccccccccccc"
         inkscape:connector-curvature="0"
         style="fill:#4d4d4d;stroke:none;stroke-width:0.99999994"
         d="m -152.80119,423.32741 20.43473,-49.23073 9.56753,-1.22871 1.94929,-3.37626 c -12.10212,-6.5895 -24.86865,-11.87758 -38.08562,-15.77559 l -1.00903,3.76574 5.89644,7.6341 -20.36185,49.26091 c -0.80669,2.99842 -3.88996,4.77646 -6.8892,3.97281 -2.99924,-0.80364 -4.78041,-3.88509 -3.97982,-6.88515 l 6.99659,-52.84213 8.92351,-3.6631 1.00902,-3.76574 c -13.39523,-3.2327 -27.09541,-5.03636 -40.8709,-5.38075 l 0,3.89857 7.67137,5.84786 -6.91837,52.85243 c -0.002,3.10597 -2.52025,5.62286 -5.62622,5.62286 -3.10597,0 -5.62437,-2.51689 -5.62622,-5.62286 l -6.91837,-52.85243 7.67137,-5.84786 0,-3.89857 c -13.77549,0.34439 -27.47567,2.14805 -40.8709,5.38075 l 1.00902,3.76574 8.92351,3.6631 6.99659,52.84213 c 0.80785,3.00274 -0.9733,6.09141 -3.97686,6.89621 -3.00356,0.8048 -6.09041,-0.97949 -6.89216,-3.98387 l -20.36185,-49.26091 5.89644,-7.6341 -1.00903,-3.76574 c -13.21697,3.89801 -25.9835,9.18609 -38.08562,15.77559 l 1.94929,3.37626 9.56753,1.22871 20.43473,49.23073 c 3.73737,6.49298 -5.99048,12.10937 -9.74489,5.62622 l -32.4177,-42.31236 3.71967,-8.90008 -1.94929,-3.37627 c -11.75773,7.186 -22.7206,15.5981 -32.70486,25.09533 l 2.75671,2.75671 9.55954,-1.28942 32.48028,42.26434 c 5.31415,5.30445 -2.65224,13.27083 -7.95668,7.95667 l -42.26432,-32.48028 1.2894,-9.55954 -2.75671,-2.75671 c -9.49722,9.98426 -17.90933,20.94713 -25.09532,32.70486 l 3.37627,1.94929 8.90008,-3.71967 42.31236,32.41769 c 6.4966,3.75081 0.87038,13.49572 -5.62622,9.74491 l -49.23073,-20.43474 -1.22871,-9.56753 -3.37627,-1.94928 c -6.58949,12.10211 -11.87756,24.86864 -15.77557,38.08561 l 3.76573,1.00903 7.6341,-5.89644 49.26092,20.36185 c 2.99918,0.80607 4.77801,3.88979 3.97422,6.88958 -0.8038,2.99979 -3.88617,4.78096 -6.88657,3.97944 l -52.84213,-6.99658 -3.66311,-8.92351 -3.76573,-1.00903 c -1.61522,6.69292 -2.87482,13.46669 -3.7735,20.29285 l 116.01709,15.27393 c 5.61991,-42.69492 44.78727,-72.74973 87.48204,-67.12885 42.69476,5.62088 72.74875,44.78886 67.1269,87.48353 l 116.017087,15.27393 c 0.898682,-6.82616 1.435187,-13.69512 1.607261,-20.57803 l -3.898579,0 -5.847864,7.67137 -52.852423,-6.91841 c -3.102031,-0.007 -5.612801,-2.52417 -5.612801,-5.6262 0,-3.10204 2.51077,-5.61881 5.612801,-5.62621 l 52.852423,-6.91835 5.847864,7.67132 3.898579,0 c -0.344389,-13.77548 -2.148052,-27.47565 -5.380757,-40.87088 l -3.765734,1.00903 -3.663112,8.92351 -52.842124,6.99658 c -3.000251,0.80112 -6.082224,-0.98005 -6.885951,-3.9796 -0.803728,-2.99956 0.974753,-6.08308 3.973605,-6.88942 l 49.260916,-20.36185 7.6341,5.89644 3.765733,-1.00903 c -3.89801,-13.21697 -9.18608,-25.9835 -15.775575,-38.08561 l -3.376268,1.94928 -1.228715,9.56753 -49.230725,20.43474 c -6.496271,3.74957 -12.121581,-5.99377 -5.626221,-9.74491 l 42.312358,-32.41769 8.900082,3.71967 3.376267,-1.94929 c -7.185992,-11.75773 -15.598097,-22.7206 -25.09532,-32.70486 l -2.756708,2.75671 1.289406,9.55954 -42.264325,32.48028 c -5.30444,5.29476 -13.25143,-2.65222 -7.95668,-7.95667 l 32.480279,-42.26434 9.559541,1.28942 2.756714,-2.75671 c -9.984261,-9.49723 -20.947134,-17.90934 -32.704864,-25.09533 l -1.94929,3.37627 3.71967,8.90008 -32.41769,42.31236 c -3.75442,6.48315 -13.48227,0.86676 -9.7449,-5.62622 z"
         id="path4370" />
    </g>
    <path
       id="path4414"
       d="m 79.153057,333.98839 c 114.186743,-114.18673 299.319723,-114.18656 413.506383,1e-4 114.18665,114.18666 114.18682,299.31965 8e-5,413.50638 l -52.37749,-52.37751 c 6.73833,-6.73832 13.02824,-13.91059 18.82938,-21.47079 60.15353,-78.39362 60.15353,-187.41629 0,-265.80991 -5.80114,-7.5602 -12.09105,-14.73247 -18.82937,-21.47079 -6.73832,-6.73832 -13.91059,-13.02823 -21.47079,-18.82937 -78.39362,-60.15354 -187.4163,-60.15354 -265.80992,0 -7.5602,5.80114 -14.73247,12.09105 -21.47078,18.82937 z"
       style="fill:#4d4d4d;stroke:none;stroke-width:1;stroke-linecap:round;stroke-miterlimit:4;stroke-dasharray:none"
       inkscape:connector-curvature="0"
       sodipodi:nodetypes="csccccccccc" />
    <g
       inkscape:label="0"
       id="g4436"
       transform="matrix(0.55013244,0,0,0.55013244,285.90629,-38.196966)" />
    <g
       inkscape:label="default"
       id="g5303"
       transform="matrix(0.55013245,0,0,0.55013245,1591.4974,-60.242047)" />
    <g
       id="g5914"
       transform="translate(-1305.4787,21.932767)"
       style="fill:#008080">
      <path
         sodipodi:nodetypes="ccccc"
         inkscape:connector-curvature="0"
         style="fill:#008080;fill-opacity:1;stroke:none;stroke-width:0.99999994"
         d="m 1749.2378,397.6581 c 54.7827,71.39419 54.7827,170.68269 0,242.07688 l 15.4647,11.86653 c 60.1535,-78.39362 60.1535,-187.41631 0,-265.80993 z"
         id="path5575" />
      <path
         sodipodi:nodetypes="ccccc"
         inkscape:connector-curvature="0"
         style="fill:#008080;fill-opacity:1;stroke:none;stroke-width:0.99999994"
         d="m 1470.4589,360.95617 -11.8665,-15.46474 c 78.3936,-60.15358 187.4164,-60.15358 265.81,0 l -11.8665,15.46474 c -71.3942,-54.78274 -170.6828,-54.78274 -242.077,0 z"
         id="path5579" />
    </g>
    <g
       inkscape:label="0"
       id="g5587"
       transform="matrix(0.55013245,0,0,0.55013245,1591.4974,-60.242047)" />
  </g>
</svg>
