  0
SECTION
  2
HEADER
  9
$INSBASE
 10
0.0000
 20
0.0000
  9
$EXTMIN
 10
-115.119318
 20
-115.119318
  9
$EXTMAX
 10
159.053301
 20
159.053301
  9
$LIMMIN
 10
-115.119318
 20
-115.119318
  9
$LIMMAX
 10
159.053301
 20
159.053301
  9
$TEXTSTYLE
  7
STANDARD
  9
$CLAYER
  8
default
  0
ENDSEC
  0
SECTION
  2
TABLES
  0
TABLE
  2
LTYPE
 70
4948253
  0
LTYPE
  2
CONTINUOUS
 70
    64
  3
Solid line
 72
    65
 73
     0
 40
0.0
  0
ENDTAB
  0
TABLE
  2
LAYER
 70
     5
  0
LAYER
  2
default
 70
    64
 62
     7
  6
CONTINUOUS
  0
LAYER
  2
layer 1000
 70
    64
 62
     7
  6
CONTINUOUS
  0
LAYER
  2
layer 10
 70
    64
 62
     7
  6
CONTINUOUS
  0
ENDTAB
  0
TABLE
  2
STYLE
 70
     1
  0
STYLE
  2
STANDARD
 70
     0
 40
0.0
 41
1.0
 50
0.0
 71
     0
 42
0.2
  3
txt
  4

  0
ENDTAB
  0
TABLE
  2
VIEW
 70
     0
  0
ENDTAB
  0
ENDSEC
  0
SECTION
  2
BLOCKS
  0
ENDSEC
  0
SECTION
  2
ENTITIES
  0
LINE
  8
layer 1000
 10
100.000000
 20
-2.500000
 30
0.0
 11
98.000000
 21
-2.500000
 31
0.0
  0
LINE
  8
layer 1000
 10
95.000000
 20
-6.435471
 30
0.0
 11
67.886295
 21
-2.886295
 31
0.0
  0
LINE
  8
layer 1000
 10
98.000000
 20
-2.500000
 30
0.0
 11
95.000000
 21
-6.435471
 31
0.0
  0
LINE
  8
layer 1000
 10
100.000000
 20
2.500000
 30
0.0
 11
98.000000
 21
2.500000
 31
0.0
  0
LINE
  8
layer 1000
 10
95.000000
 20
6.435471
 30
0.0
 11
67.886295
 21
2.886295
 31
0.0
  0
LINE
  8
layer 1000
 10
98.000000
 20
2.500000
 30
0.0
 11
95.000000
 21
6.435471
 31
0.0
  0
LINE
  8
layer 1000
 10
98.000000
 20
-2.500000
 30
0.0
 11
98.000000
 21
2.500000
 31
0.0
  0
LINE
  8
layer 1000
 10
97.239630
 20
23.467090
 30
0.0
 11
95.307779
 21
22.949452
 31
0.0
  0
LINE
  8
layer 1000
 10
93.428576
 20
18.371622
 30
0.0
 11
66.320154
 21
14.782319
 31
0.0
  0
LINE
  8
layer 1000
 10
95.307779
 20
22.949452
 30
0.0
 11
93.428576
 21
18.371622
 31
0.0
  0
LINE
  8
layer 1000
 10
95.945535
 20
28.296719
 30
0.0
 11
94.013683
 21
27.779081
 31
0.0
  0
LINE
  8
layer 1000
 10
90.097331
 20
30.803997
 30
0.0
 11
64.826098
 21
20.358213
 31
0.0
  0
LINE
  8
layer 1000
 10
94.013683
 20
27.779081
 30
0.0
 11
90.097331
 21
30.803997
 31
0.0
  0
LINE
  8
layer 1000
 10
95.307779
 20
22.949452
 30
0.0
 11
94.013683
 21
27.779081
 31
0.0
  0
LINE
  8
layer 1000
 10
87.852540
 20
47.834936
 30
0.0
 11
86.120490
 21
46.834936
 31
0.0
  0
LINE
  8
layer 1000
 10
85.490149
 20
41.926719
 30
0.0
 11
60.234404
 21
31.443543
 31
0.0
  0
LINE
  8
layer 1000
 10
86.120490
 20
46.834936
 30
0.0
 11
85.490149
 21
41.926719
 31
0.0
  0
LINE
  8
layer 1000
 10
85.352540
 20
52.165064
 30
0.0
 11
83.620490
 21
51.165064
 31
0.0
  0
LINE
  8
layer 1000
 10
79.054678
 20
53.073281
 30
0.0
 11
57.348109
 21
36.442753
 31
0.0
  0
LINE
  8
layer 1000
 10
83.620490
 20
51.165064
 30
0.0
 11
79.054678
 21
53.073281
 31
0.0
  0
LINE
  8
layer 1000
 10
86.120490
 20
46.834936
 30
0.0
 11
83.620490
 21
51.165064
 31
0.0
  0
LINE
  8
layer 1000
 10
72.478445
 20
68.942911
 30
0.0
 11
71.064232
 21
67.528698
 31
0.0
  0
LINE
  8
layer 1000
 10
71.725709
 20
62.624579
 30
0.0
 11
50.043779
 21
45.961941
 31
0.0
  0
LINE
  8
layer 1000
 10
71.064232
 20
67.528698
 30
0.0
 11
71.725709
 21
62.624579
 31
0.0
  0
LINE
  8
layer 1000
 10
68.942911
 20
72.478445
 30
0.0
 11
67.528698
 21
71.064232
 31
0.0
  0
LINE
  8
layer 1000
 10
62.624579
 20
71.725709
 30
0.0
 11
45.961941
 21
50.043779
 31
0.0
  0
LINE
  8
layer 1000
 10
67.528698
 20
71.064232
 30
0.0
 11
62.624579
 21
71.725709
 31
0.0
  0
LINE
  8
layer 1000
 10
71.064232
 20
67.528698
 30
0.0
 11
67.528698
 21
71.064232
 31
0.0
  0
LINE
  8
layer 1000
 10
52.165064
 20
85.352540
 30
0.0
 11
51.165064
 21
83.620490
 31
0.0
  0
LINE
  8
layer 1000
 10
53.073281
 20
79.054678
 30
0.0
 11
36.442753
 21
57.348109
 31
0.0
  0
LINE
  8
layer 1000
 10
51.165064
 20
83.620490
 30
0.0
 11
53.073281
 21
79.054678
 31
0.0
  0
LINE
  8
layer 1000
 10
47.834936
 20
87.852540
 30
0.0
 11
46.834936
 21
86.120490
 31
0.0
  0
LINE
  8
layer 1000
 10
41.926719
 20
85.490149
 30
0.0
 11
31.443543
 21
60.234404
 31
0.0
  0
LINE
  8
layer 1000
 10
46.834936
 20
86.120490
 30
0.0
 11
41.926719
 21
85.490149
 31
0.0
  0
LINE
  8
layer 1000
 10
51.165064
 20
83.620490
 30
0.0
 11
46.834936
 21
86.120490
 31
0.0
  0
LINE
  8
layer 1000
 10
28.296719
 20
95.945535
 30
0.0
 11
27.779081
 21
94.013683
 31
0.0
  0
LINE
  8
layer 1000
 10
30.803997
 20
90.097331
 30
0.0
 11
20.358213
 21
64.826098
 31
0.0
  0
LINE
  8
layer 1000
 10
27.779081
 20
94.013683
 30
0.0
 11
30.803997
 21
90.097331
 31
0.0
  0
LINE
  8
layer 1000
 10
23.467090
 20
97.239630
 30
0.0
 11
22.949452
 21
95.307779
 31
0.0
  0
LINE
  8
layer 1000
 10
18.371622
 20
93.428576
 30
0.0
 11
14.782319
 21
66.320154
 31
0.0
  0
LINE
  8
layer 1000
 10
22.949452
 20
95.307779
 30
0.0
 11
18.371622
 21
93.428576
 31
0.0
  0
LINE
  8
layer 1000
 10
27.779081
 20
94.013683
 30
0.0
 11
22.949452
 21
95.307779
 31
0.0
  0
LINE
  8
layer 1000
 10
2.500000
 20
100.000000
 30
0.0
 11
2.500000
 21
98.000000
 31
0.0
  0
LINE
  8
layer 1000
 10
6.435471
 20
95.000000
 30
0.0
 11
2.886295
 21
67.886295
 31
0.0
  0
LINE
  8
layer 1000
 10
2.500000
 20
98.000000
 30
0.0
 11
6.435471
 21
95.000000
 31
0.0
  0
LINE
  8
layer 1000
 10
-2.500000
 20
100.000000
 30
0.0
 11
-2.500000
 21
98.000000
 31
0.0
  0
LINE
  8
layer 1000
 10
-6.435471
 20
95.000000
 30
0.0
 11
-2.886295
 21
67.886295
 31
0.0
  0
LINE
  8
layer 1000
 10
-2.500000
 20
98.000000
 30
0.0
 11
-6.435471
 21
95.000000
 31
0.0
  0
LINE
  8
layer 1000
 10
2.500000
 20
98.000000
 30
0.0
 11
-2.500000
 21
98.000000
 31
0.0
  0
LINE
  8
layer 1000
 10
-23.467090
 20
97.239630
 30
0.0
 11
-22.949452
 21
95.307779
 31
0.0
  0
LINE
  8
layer 1000
 10
-18.371622
 20
93.428576
 30
0.0
 11
-14.782319
 21
66.320154
 31
0.0
  0
LINE
  8
layer 1000
 10
-22.949452
 20
95.307779
 30
0.0
 11
-18.371622
 21
93.428576
 31
0.0
  0
LINE
  8
layer 1000
 10
-28.296719
 20
95.945535
 30
0.0
 11
-27.779081
 21
94.013683
 31
0.0
  0
LINE
  8
layer 1000
 10
-30.803997
 20
90.097331
 30
0.0
 11
-20.358213
 21
64.826098
 31
0.0
  0
LINE
  8
layer 1000
 10
-27.779081
 20
94.013683
 30
0.0
 11
-30.803997
 21
90.097331
 31
0.0
  0
LINE
  8
layer 1000
 10
-22.949452
 20
95.307779
 30
0.0
 11
-27.779081
 21
94.013683
 31
0.0
  0
LINE
  8
layer 1000
 10
-47.834936
 20
87.852540
 30
0.0
 11
-46.834936
 21
86.120490
 31
0.0
  0
LINE
  8
layer 1000
 10
-41.926719
 20
85.490149
 30
0.0
 11
-31.443543
 21
60.234404
 31
0.0
  0
LINE
  8
layer 1000
 10
-46.834936
 20
86.120490
 30
0.0
 11
-41.926719
 21
85.490149
 31
0.0
  0
LINE
  8
layer 1000
 10
-52.165064
 20
85.352540
 30
0.0
 11
-51.165064
 21
83.620490
 31
0.0
  0
LINE
  8
layer 1000
 10
-53.073281
 20
79.054678
 30
0.0
 11
-36.442753
 21
57.348109
 31
0.0
  0
LINE
  8
layer 1000
 10
-51.165064
 20
83.620490
 30
0.0
 11
-53.073281
 21
79.054678
 31
0.0
  0
LINE
  8
layer 1000
 10
-46.834936
 20
86.120490
 30
0.0
 11
-51.165064
 21
83.620490
 31
0.0
  0
LINE
  8
layer 1000
 10
-68.942911
 20
72.478445
 30
0.0
 11
-67.528698
 21
71.064232
 31
0.0
  0
LINE
  8
layer 1000
 10
-62.624579
 20
71.725709
 30
0.0
 11
-45.961941
 21
50.043779
 31
0.0
  0
LINE
  8
layer 1000
 10
-67.528698
 20
71.064232
 30
0.0
 11
-62.624579
 21
71.725709
 31
0.0
  0
LINE
  8
layer 1000
 10
-72.478445
 20
68.942911
 30
0.0
 11
-71.064232
 21
67.528698
 31
0.0
  0
LINE
  8
layer 1000
 10
-71.725709
 20
62.624579
 30
0.0
 11
-50.043779
 21
45.961941
 31
0.0
  0
LINE
  8
layer 1000
 10
-71.064232
 20
67.528698
 30
0.0
 11
-71.725709
 21
62.624579
 31
0.0
  0
LINE
  8
layer 1000
 10
-67.528698
 20
71.064232
 30
0.0
 11
-71.064232
 21
67.528698
 31
0.0
  0
LINE
  8
layer 1000
 10
-85.352540
 20
52.165064
 30
0.0
 11
-83.620490
 21
51.165064
 31
0.0
  0
LINE
  8
layer 1000
 10
-79.054678
 20
53.073281
 30
0.0
 11
-57.348109
 21
36.442753
 31
0.0
  0
LINE
  8
layer 1000
 10
-83.620490
 20
51.165064
 30
0.0
 11
-79.054678
 21
53.073281
 31
0.0
  0
LINE
  8
layer 1000
 10
-87.852540
 20
47.834936
 30
0.0
 11
-86.120490
 21
46.834936
 31
0.0
  0
LINE
  8
layer 1000
 10
-85.490149
 20
41.926719
 30
0.0
 11
-60.234404
 21
31.443543
 31
0.0
  0
LINE
  8
layer 1000
 10
-86.120490
 20
46.834936
 30
0.0
 11
-85.490149
 21
41.926719
 31
0.0
  0
LINE
  8
layer 1000
 10
-83.620490
 20
51.165064
 30
0.0
 11
-86.120490
 21
46.834936
 31
0.0
  0
LINE
  8
layer 1000
 10
-95.945535
 20
28.296719
 30
0.0
 11
-94.013683
 21
27.779081
 31
0.0
  0
LINE
  8
layer 1000
 10
-90.097331
 20
30.803997
 30
0.0
 11
-64.826098
 21
20.358213
 31
0.0
  0
LINE
  8
layer 1000
 10
-94.013683
 20
27.779081
 30
0.0
 11
-90.097331
 21
30.803997
 31
0.0
  0
LINE
  8
layer 1000
 10
-97.239630
 20
23.467090
 30
0.0
 11
-95.307779
 21
22.949452
 31
0.0
  0
LINE
  8
layer 1000
 10
-93.428576
 20
18.371622
 30
0.0
 11
-66.320154
 21
14.782319
 31
0.0
  0
LINE
  8
layer 1000
 10
-95.307779
 20
22.949452
 30
0.0
 11
-93.428576
 21
18.371622
 31
0.0
  0
LINE
  8
layer 1000
 10
-94.013683
 20
27.779081
 30
0.0
 11
-95.307779
 21
22.949452
 31
0.0
  0
LINE
  8
layer 1000
 10
99.175464
 20
-13.056698
 30
0.0
 11
39.657794
 21
-5.221048
 31
0.0
  0
LINE
  8
layer 1000
 10
-99.175464
 20
13.056698
 30
0.0
 11
-39.657794
 21
5.221048
 31
0.0
  0
LINE
  8
layer 10
 10
88.855574
 20
-68.181280
 30
0.0
 11
80.922041
 21
-62.093666
 31
0.0
  0
LINE
  8
layer 10
 10
88.855574
 20
68.181280
 30
0.0
 11
80.922041
 21
62.093666
 31
0.0
  0
LINE
  8
layer 10
 10
68.181280
 20
88.855574
 30
0.0
 11
62.093666
 21
80.922041
 31
0.0
  0
LINE
  8
layer 10
 10
-68.181280
 20
88.855574
 30
0.0
 11
-62.093666
 21
80.922041
 31
0.0
  0
LINE
  8
layer 10
 10
79.195959
 20
-79.195959
 30
0.0
 11
106.066017
 21
-106.066017
 31
0.0
  0
LINE
  8
layer 10
 10
-79.195959
 20
79.195959
 30
0.0
 11
-106.066017
 21
106.066017
 31
0.0
  0
ARC
  8
layer 1000
 10
67.886295
 20
0.000000
 30
0.000000
 40
2.886295
 50
90.000000
 51
270.000000
  0
ARC
  8
layer 1000
 10
-0.000000
 20
0.000000
 30
0.000000
 40
100.031245
 50
358.567904
 51
1.432096
  0
ARC
  8
layer 1000
 10
65.573126
 20
17.570266
 30
0.000000
 40
2.886295
 50
105.000000
 51
285.000000
  0
ARC
  8
layer 1000
 10
-0.000000
 20
-0.000000
 30
0.000000
 40
100.031245
 50
1.432096
 51
13.567904
  0
ARC
  8
layer 1000
 10
0.000000
 20
-0.000000
 30
0.000000
 40
100.031245
 50
13.567904
 51
16.432096
  0
ARC
  8
layer 1000
 10
58.791256
 20
33.943148
 30
0.000000
 40
2.886295
 50
120.000000
 51
300.000000
  0
ARC
  8
layer 1000
 10
-0.000000
 20
0.000000
 30
0.000000
 40
100.031245
 50
16.432096
 51
28.567904
  0
ARC
  8
layer 1000
 10
0.000000
 20
-0.000000
 30
0.000000
 40
100.031245
 50
28.567904
 51
31.432096
  0
ARC
  8
layer 1000
 10
48.002860
 20
48.002860
 30
0.000000
 40
2.886295
 50
135.000000
 51
315.000000
  0
ARC
  8
layer 1000
 10
0.000000
 20
-0.000000
 30
0.000000
 40
100.031245
 50
31.432096
 51
43.567904
  0
ARC
  8
layer 1000
 10
0.000000
 20
-0.000000
 30
0.000000
 40
100.031245
 50
43.567904
 51
46.432096
  0
ARC
  8
layer 1000
 10
33.943148
 20
58.791256
 30
0.000000
 40
2.886295
 50
150.000000
 51
330.000000
  0
ARC
  8
layer 1000
 10
-0.000000
 20
0.000000
 30
0.000000
 40
100.031245
 50
46.432096
 51
58.567904
  0
ARC
  8
layer 1000
 10
0.000000
 20
0.000000
 30
0.000000
 40
100.031245
 50
58.567904
 51
61.432096
  0
ARC
  8
layer 1000
 10
17.570266
 20
65.573126
 30
0.000000
 40
2.886295
 50
165.000000
 51
345.000000
  0
ARC
  8
layer 1000
 10
-0.000000
 20
-0.000000
 30
0.000000
 40
100.031245
 50
61.432096
 51
73.567904
  0
ARC
  8
layer 1000
 10
-0.000000
 20
0.000000
 30
0.000000
 40
100.031245
 50
73.567904
 51
76.432096
  0
ARC
  8
layer 1000
 10
0.000000
 20
67.886295
 30
0.000000
 40
2.886295
 50
180.000000
 51
0.000000
  0
ARC
  8
layer 1000
 10
0.000000
 20
0.000000
 30
0.000000
 40
100.031245
 50
76.432096
 51
88.567904
  0
ARC
  8
layer 1000
 10
0.000000
 20
-0.000000
 30
0.000000
 40
100.031245
 50
88.567904
 51
91.432096
  0
ARC
  8
layer 1000
 10
-17.570266
 20
65.573126
 30
0.000000
 40
2.886295
 50
195.000000
 51
15.000000
  0
ARC
  8
layer 1000
 10
0.000000
 20
-0.000000
 30
0.000000
 40
100.031245
 50
91.432096
 51
103.567904
  0
ARC
  8
layer 1000
 10
0.000000
 20
0.000000
 30
0.000000
 40
100.031245
 50
103.567904
 51
106.432096
  0
ARC
  8
layer 1000
 10
-33.943148
 20
58.791256
 30
0.000000
 40
2.886295
 50
210.000000
 51
30.000000
  0
ARC
  8
layer 1000
 10
-0.000000
 20
0.000000
 30
0.000000
 40
100.031245
 50
106.432096
 51
118.567904
  0
ARC
  8
layer 1000
 10
0.000000
 20
0.000000
 30
0.000000
 40
100.031245
 50
118.567904
 51
121.432096
  0
ARC
  8
layer 1000
 10
-48.002860
 20
48.002860
 30
0.000000
 40
2.886295
 50
225.000000
 51
45.000000
  0
ARC
  8
layer 1000
 10
0.000000
 20
-0.000000
 30
0.000000
 40
100.031245
 50
121.432096
 51
133.567904
  0
ARC
  8
layer 1000
 10
0.000000
 20
0.000000
 30
0.000000
 40
100.031245
 50
133.567904
 51
136.432096
  0
ARC
  8
layer 1000
 10
-58.791256
 20
33.943148
 30
0.000000
 40
2.886295
 50
240.000000
 51
60.000000
  0
ARC
  8
layer 1000
 10
0.000000
 20
-0.000000
 30
0.000000
 40
100.031245
 50
136.432096
 51
148.567904
  0
ARC
  8
layer 1000
 10
-0.000000
 20
-0.000000
 30
0.000000
 40
100.031245
 50
148.567904
 51
151.432096
  0
ARC
  8
layer 1000
 10
-65.573126
 20
17.570266
 30
0.000000
 40
2.886295
 50
255.000000
 51
75.000000
  0
ARC
  8
layer 1000
 10
-0.000000
 20
0.000000
 30
0.000000
 40
100.031245
 50
151.432096
 51
163.567904
  0
ARC
  8
layer 1000
 10
0.000000
 20
-0.000000
 30
0.000000
 40
100.031245
 50
163.567904
 51
166.432096
  0
ARC
  8
layer 1000
 10
0.000000
 20
0.000000
 30
0.000000
 40
100.031245
 50
166.432096
 51
172.500000
  0
ARC
  8
layer 1000
 10
-0.000000
 20
-0.000000
 30
0.000000
 40
100.031245
 50
352.500000
 51
358.567904
  0
ARC
  8
layer 1000
 10
0.000000
 20
0.000000
 30
0.000000
 40
40.000000
 50
352.500000
 51
172.500000
  0
ARC
  8
layer 10
 10
0.000000
 20
0.000000
 30
0.000000
 40
112.000000
 50
315.000000
 51
322.500000
  0
ARC
  8
layer 10
 10
0.000000
 20
0.000000
 30
0.000000
 40
112.000000
 50
322.500000
 51
37.500000
  0
ARC
  8
layer 10
 10
0.000000
 20
-0.000000
 30
0.000000
 40
112.000000
 50
37.500000
 51
45.000000
  0
ARC
  8
layer 10
 10
0.000000
 20
0.000000
 30
0.000000
 40
102.000000
 50
322.500000
 51
37.500000
  0
ARC
  8
layer 10
 10
-0.000000
 20
-0.000000
 30
0.000000
 40
112.000000
 50
45.000000
 51
52.500000
  0
ARC
  8
layer 10
 10
0.000000
 20
0.000000
 30
0.000000
 40
112.000000
 50
52.500000
 51
127.500000
  0
ARC
  8
layer 10
 10
0.000000
 20
0.000000
 30
0.000000
 40
112.000000
 50
127.500000
 51
135.000000
  0
ARC
  8
layer 10
 10
0.000000
 20
0.000000
 30
0.000000
 40
102.000000
 50
52.500000
 51
127.500000
  0
ARC
  8
layer 10
 10
0.000000
 20
0.000000
 30
0.000000
 40
150.000000
 50
315.000000
 51
135.000000
  0
ENDSEC
  0
EOF
