  0
SECTION
  2
HEADER
  9
$INSBASE
 10
0.0000
 20
0.0000
  9
$EXTMIN
 10
-29.697027
 20
47.483409
  9
$EXTMAX
 10
29.697027
 20
62.945986
  9
$LIMMIN
 10
-29.697027
 20
47.483409
  9
$LIMMAX
 10
29.697027
 20
62.945986
  9
$TEXTSTYLE
  7
STANDARD
  9
$CLAYER
  8
default
  0
ENDSEC
  0
SECTION
  2
TABLES
  0
TABLE
  2
LTYPE
 70
4948253
  0
LTYPE
  2
CONTINUOUS
 70
    64
  3
Solid line
 72
    65
 73
     0
 40
0.0
  0
ENDTAB
  0
TABLE
  2
LAYER
 70
     5
  0
LAYER
  2
default
 70
    64
 62
     7
  6
CONTINUOUS
  0
LAYER
  2
layer 10
 70
    64
 62
     7
  6
CONTINUOUS
  0
ENDTAB
  0
TABLE
  2
STYLE
 70
     1
  0
STYLE
  2
STANDARD
 70
     0
 40
0.0
 41
1.0
 50
0.0
 71
     0
 42
0.2
  3
txt
  4

  0
ENDTAB
  0
TABLE
  2
VIEW
 70
     0
  0
ENDTAB
  0
ENDSEC
  0
SECTION
  2
BLOCKS
  0
ENDSEC
  0
SECTION
  2
ENTITIES
  0
LINE
  8
layer 10
 10
23.877932
 20
51.206390
 30
0.0
 11
25.991023
 21
55.737929
 31
0.0
  0
LINE
  8
layer 10
 10
22.980620
 20
51.615318
 30
0.0
 11
25.014304
 21
56.183046
 31
0.0
  0
LINE
  8
layer 10
 10
22.076309
 20
52.008524
 30
0.0
 11
24.029964
 21
56.611048
 31
0.0
  0
LINE
  8
layer 10
 10
21.165273
 20
52.385888
 30
0.0
 11
23.038305
 21
57.021807
 31
0.0
  0
LINE
  8
layer 10
 10
20.247789
 20
52.747294
 30
0.0
 11
22.039629
 21
57.415196
 31
0.0
  0
LINE
  8
layer 10
 10
19.324138
 20
53.092633
 30
0.0
 11
21.034239
 21
57.791096
 31
0.0
  0
LINE
  8
layer 10
 10
18.394601
 20
53.421800
 30
0.0
 11
20.022441
 21
58.149392
 31
0.0
  0
LINE
  8
layer 10
 10
17.459460
 20
53.734693
 30
0.0
 11
19.004545
 21
58.489976
 31
0.0
  0
LINE
  8
layer 10
 10
16.519001
 20
54.031219
 30
0.0
 11
17.980860
 21
58.812742
 31
0.0
  0
LINE
  8
layer 10
 10
15.573511
 20
54.311286
 30
0.0
 11
16.951697
 21
59.117594
 31
0.0
  0
LINE
  8
layer 10
 10
14.623276
 20
54.574809
 30
0.0
 11
15.917371
 21
59.404438
 31
0.0
  0
LINE
  8
layer 10
 10
13.668587
 20
54.821709
 30
0.0
 11
14.878197
 21
59.673187
 31
0.0
  0
LINE
  8
layer 10
 10
12.709735
 20
55.051909
 30
0.0
 11
13.834490
 21
59.923759
 31
0.0
  0
LINE
  8
layer 10
 10
11.747011
 20
55.265339
 30
0.0
 11
12.786569
 21
60.156077
 31
0.0
  0
LINE
  8
layer 10
 10
10.780708
 20
55.461936
 30
0.0
 11
11.734753
 21
60.370072
 31
0.0
  0
LINE
  8
layer 10
 10
9.811122
 20
55.641638
 30
0.0
 11
10.679363
 21
60.565677
 31
0.0
  0
LINE
  8
layer 10
 10
8.838547
 20
55.804391
 30
0.0
 11
9.620720
 21
60.742833
 31
0.0
  0
LINE
  8
layer 10
 10
7.863280
 20
55.950146
 30
0.0
 11
8.559146
 21
60.901486
 31
0.0
  0
LINE
  8
layer 10
 10
6.885618
 20
56.078858
 30
0.0
 11
7.494965
 21
61.041588
 31
0.0
  0
LINE
  8
layer 10
 10
5.905858
 20
56.190487
 30
0.0
 11
6.428500
 21
61.163097
 31
0.0
  0
LINE
  8
layer 10
 10
4.924299
 20
56.285000
 30
0.0
 11
5.360078
 21
61.265974
 31
0.0
  0
LINE
  8
layer 10
 10
3.941241
 20
56.362369
 30
0.0
 11
4.290023
 21
61.350189
 31
0.0
  0
LINE
  8
layer 10
 10
2.956982
 20
56.422569
 30
0.0
 11
3.218661
 21
61.415716
 31
0.0
  0
LINE
  8
layer 10
 10
1.971822
 20
56.465582
 30
0.0
 11
2.146319
 21
61.462536
 31
0.0
  0
LINE
  8
layer 10
 10
0.986061
 20
56.491395
 30
0.0
 11
1.073323
 21
61.490633
 31
0.0
  0
LINE
  8
layer 10
 10
-23.877932
 20
51.206390
 30
0.0
 11
-25.991023
 21
55.737929
 31
0.0
  0
LINE
  8
layer 10
 10
-22.980620
 20
51.615318
 30
0.0
 11
-25.014304
 21
56.183046
 31
0.0
  0
LINE
  8
layer 10
 10
-22.076309
 20
52.008524
 30
0.0
 11
-24.029964
 21
56.611048
 31
0.0
  0
LINE
  8
layer 10
 10
-21.165273
 20
52.385888
 30
0.0
 11
-23.038305
 21
57.021807
 31
0.0
  0
LINE
  8
layer 10
 10
-20.247789
 20
52.747294
 30
0.0
 11
-22.039629
 21
57.415196
 31
0.0
  0
LINE
  8
layer 10
 10
-19.324138
 20
53.092633
 30
0.0
 11
-21.034239
 21
57.791096
 31
0.0
  0
LINE
  8
layer 10
 10
-18.394601
 20
53.421800
 30
0.0
 11
-20.022441
 21
58.149392
 31
0.0
  0
LINE
  8
layer 10
 10
-17.459460
 20
53.734693
 30
0.0
 11
-19.004545
 21
58.489976
 31
0.0
  0
LINE
  8
layer 10
 10
-16.519001
 20
54.031219
 30
0.0
 11
-17.980860
 21
58.812742
 31
0.0
  0
LINE
  8
layer 10
 10
-15.573511
 20
54.311286
 30
0.0
 11
-16.951697
 21
59.117594
 31
0.0
  0
LINE
  8
layer 10
 10
-14.623276
 20
54.574809
 30
0.0
 11
-15.917371
 21
59.404438
 31
0.0
  0
LINE
  8
layer 10
 10
-13.668587
 20
54.821709
 30
0.0
 11
-14.878197
 21
59.673187
 31
0.0
  0
LINE
  8
layer 10
 10
-12.709735
 20
55.051909
 30
0.0
 11
-13.834490
 21
59.923759
 31
0.0
  0
LINE
  8
layer 10
 10
-11.747011
 20
55.265339
 30
0.0
 11
-12.786569
 21
60.156077
 31
0.0
  0
LINE
  8
layer 10
 10
-10.780708
 20
55.461936
 30
0.0
 11
-11.734753
 21
60.370072
 31
0.0
  0
LINE
  8
layer 10
 10
-9.811122
 20
55.641638
 30
0.0
 11
-10.679363
 21
60.565677
 31
0.0
  0
LINE
  8
layer 10
 10
-8.838547
 20
55.804391
 30
0.0
 11
-9.620720
 21
60.742833
 31
0.0
  0
LINE
  8
layer 10
 10
-7.863280
 20
55.950146
 30
0.0
 11
-8.559146
 21
60.901486
 31
0.0
  0
LINE
  8
layer 10
 10
-6.885618
 20
56.078858
 30
0.0
 11
-7.494965
 21
61.041588
 31
0.0
  0
LINE
  8
layer 10
 10
-5.905858
 20
56.190487
 30
0.0
 11
-6.428500
 21
61.163097
 31
0.0
  0
LINE
  8
layer 10
 10
-4.924299
 20
56.285000
 30
0.0
 11
-5.360078
 21
61.265974
 31
0.0
  0
LINE
  8
layer 10
 10
-3.941241
 20
56.362369
 30
0.0
 11
-4.290023
 21
61.350189
 31
0.0
  0
LINE
  8
layer 10
 10
-2.956982
 20
56.422569
 30
0.0
 11
-3.218661
 21
61.415716
 31
0.0
  0
LINE
  8
layer 10
 10
-1.971822
 20
56.465582
 30
0.0
 11
-2.146319
 21
61.462536
 31
0.0
  0
LINE
  8
layer 10
 10
-0.986061
 20
56.491395
 30
0.0
 11
-1.073323
 21
61.490633
 31
0.0
  0
ARC
  8
layer 10
 10
0.000000
 20
-0.000000
 30
0.000000
 40
56.500000
 50
60.000000
 51
65.000000
  0
ARC
  8
layer 10
 10
-0.000000
 20
-0.000000
 30
0.000000
 40
56.500000
 50
65.000000
 51
66.000000
  0
ARC
  8
layer 10
 10
0.000000
 20
0.000000
 30
0.000000
 40
56.500000
 50
66.000000
 51
67.000000
  0
ARC
  8
layer 10
 10
0.000000
 20
-0.000000
 30
0.000000
 40
56.500000
 50
67.000000
 51
68.000000
  0
ARC
  8
layer 10
 10
0.000000
 20
0.000000
 30
0.000000
 40
56.500000
 50
68.000000
 51
69.000000
  0
ARC
  8
layer 10
 10
-0.000000
 20
0.000000
 30
0.000000
 40
56.500000
 50
69.000000
 51
70.000000
  0
ARC
  8
layer 10
 10
-0.000000
 20
0.000000
 30
0.000000
 40
56.500000
 50
70.000000
 51
71.000000
  0
ARC
  8
layer 10
 10
0.000000
 20
-0.000000
 30
0.000000
 40
56.500000
 50
71.000000
 51
72.000000
  0
ARC
  8
layer 10
 10
-0.000000
 20
0.000000
 30
0.000000
 40
56.500000
 50
72.000000
 51
73.000000
  0
ARC
  8
layer 10
 10
0.000000
 20
0.000000
 30
0.000000
 40
56.500000
 50
73.000000
 51
74.000000
  0
ARC
  8
layer 10
 10
0.000000
 20
0.000000
 30
0.000000
 40
56.500000
 50
74.000000
 51
75.000000
  0
ARC
  8
layer 10
 10
0.000000
 20
-0.000000
 30
0.000000
 40
56.500000
 50
75.000000
 51
76.000000
  0
ARC
  8
layer 10
 10
-0.000000
 20
0.000000
 30
0.000000
 40
56.500000
 50
76.000000
 51
77.000000
  0
ARC
  8
layer 10
 10
0.000000
 20
0.000000
 30
0.000000
 40
56.500000
 50
77.000000
 51
78.000000
  0
ARC
  8
layer 10
 10
0.000000
 20
-0.000000
 30
0.000000
 40
56.500000
 50
78.000000
 51
79.000000
  0
ARC
  8
layer 10
 10
-0.000000
 20
0.000000
 30
0.000000
 40
56.500000
 50
79.000000
 51
80.000000
  0
ARC
  8
layer 10
 10
0.000000
 20
0.000000
 30
0.000000
 40
56.500000
 50
80.000000
 51
81.000000
  0
ARC
  8
layer 10
 10
0.000000
 20
0.000000
 30
0.000000
 40
56.500000
 50
81.000000
 51
82.000000
  0
ARC
  8
layer 10
 10
-0.000000
 20
-0.000000
 30
0.000000
 40
56.500000
 50
82.000000
 51
83.000000
  0
ARC
  8
layer 10
 10
-0.000000
 20
0.000000
 30
0.000000
 40
56.500000
 50
83.000000
 51
84.000000
  0
ARC
  8
layer 10
 10
0.000000
 20
0.000000
 30
0.000000
 40
56.500000
 50
84.000000
 51
85.000000
  0
ARC
  8
layer 10
 10
-0.000000
 20
0.000000
 30
0.000000
 40
56.500000
 50
85.000000
 51
86.000000
  0
ARC
  8
layer 10
 10
0.000000
 20
0.000000
 30
0.000000
 40
56.500000
 50
86.000000
 51
87.000000
  0
ARC
  8
layer 10
 10
-0.000000
 20
0.000000
 30
0.000000
 40
56.500000
 50
87.000000
 51
88.000000
  0
ARC
  8
layer 10
 10
0.000000
 20
0.000000
 30
0.000000
 40
56.500000
 50
88.000000
 51
89.000000
  0
ARC
  8
layer 10
 10
0.000000
 20
0.000000
 30
0.000000
 40
56.500000
 50
89.000000
 51
91.000000
  0
ARC
  8
layer 10
 10
-0.000000
 20
0.000000
 30
0.000000
 40
56.500000
 50
91.000000
 51
92.000000
  0
ARC
  8
layer 10
 10
0.000000
 20
0.000000
 30
0.000000
 40
56.500000
 50
92.000000
 51
93.000000
  0
ARC
  8
layer 10
 10
-0.000000
 20
0.000000
 30
0.000000
 40
56.500000
 50
93.000000
 51
94.000000
  0
ARC
  8
layer 10
 10
0.000000
 20
0.000000
 30
0.000000
 40
56.500000
 50
94.000000
 51
95.000000
  0
ARC
  8
layer 10
 10
-0.000000
 20
0.000000
 30
0.000000
 40
56.500000
 50
95.000000
 51
96.000000
  0
ARC
  8
layer 10
 10
0.000000
 20
0.000000
 30
0.000000
 40
56.500000
 50
96.000000
 51
97.000000
  0
ARC
  8
layer 10
 10
0.000000
 20
0.000000
 30
0.000000
 40
56.500000
 50
97.000000
 51
98.000000
  0
ARC
  8
layer 10
 10
-0.000000
 20
0.000000
 30
0.000000
 40
56.500000
 50
98.000000
 51
99.000000
  0
ARC
  8
layer 10
 10
-0.000000
 20
0.000000
 30
0.000000
 40
56.500000
 50
99.000000
 51
100.000000
  0
ARC
  8
layer 10
 10
0.000000
 20
0.000000
 30
0.000000
 40
56.500000
 50
100.000000
 51
101.000000
  0
ARC
  8
layer 10
 10
-0.000000
 20
0.000000
 30
0.000000
 40
56.500000
 50
101.000000
 51
102.000000
  0
ARC
  8
layer 10
 10
-0.000000
 20
-0.000000
 30
0.000000
 40
56.500000
 50
102.000000
 51
103.000000
  0
ARC
  8
layer 10
 10
0.000000
 20
0.000000
 30
0.000000
 40
56.500000
 50
103.000000
 51
104.000000
  0
ARC
  8
layer 10
 10
-0.000000
 20
0.000000
 30
0.000000
 40
56.500000
 50
104.000000
 51
105.000000
  0
ARC
  8
layer 10
 10
-0.000000
 20
-0.000000
 30
0.000000
 40
56.500000
 50
105.000000
 51
106.000000
  0
ARC
  8
layer 10
 10
-0.000000
 20
0.000000
 30
0.000000
 40
56.500000
 50
106.000000
 51
107.000000
  0
ARC
  8
layer 10
 10
0.000000
 20
0.000000
 30
0.000000
 40
56.500000
 50
107.000000
 51
108.000000
  0
ARC
  8
layer 10
 10
-0.000000
 20
-0.000000
 30
0.000000
 40
56.500000
 50
108.000000
 51
109.000000
  0
ARC
  8
layer 10
 10
0.000000
 20
0.000000
 30
0.000000
 40
56.500000
 50
109.000000
 51
110.000000
  0
ARC
  8
layer 10
 10
0.000000
 20
0.000000
 30
0.000000
 40
56.500000
 50
110.000000
 51
111.000000
  0
ARC
  8
layer 10
 10
-0.000000
 20
0.000000
 30
0.000000
 40
56.500000
 50
111.000000
 51
112.000000
  0
ARC
  8
layer 10
 10
-0.000000
 20
-0.000000
 30
0.000000
 40
56.500000
 50
112.000000
 51
113.000000
  0
ARC
  8
layer 10
 10
-0.000000
 20
0.000000
 30
0.000000
 40
56.500000
 50
113.000000
 51
114.000000
  0
ARC
  8
layer 10
 10
0.000000
 20
0.000000
 30
0.000000
 40
56.500000
 50
114.000000
 51
115.000000
  0
ARC
  8
layer 10
 10
-0.000000
 20
0.000000
 30
0.000000
 40
56.500000
 50
115.000000
 51
120.000000
  0
ARC
  8
layer 10
 10
-0.000000
 20
0.000000
 30
0.000000
 40
61.500000
 50
65.000000
 51
66.000000
  0
ARC
  8
layer 10
 10
0.000000
 20
0.000000
 30
0.000000
 40
61.500000
 50
66.000000
 51
67.000000
  0
ARC
  8
layer 10
 10
0.000000
 20
-0.000000
 30
0.000000
 40
61.500000
 50
67.000000
 51
68.000000
  0
ARC
  8
layer 10
 10
0.000000
 20
-0.000000
 30
0.000000
 40
61.500000
 50
68.000000
 51
69.000000
  0
ARC
  8
layer 10
 10
-0.000000
 20
0.000000
 30
0.000000
 40
61.500000
 50
69.000000
 51
70.000000
  0
ARC
  8
layer 10
 10
0.000000
 20
-0.000000
 30
0.000000
 40
61.500000
 50
70.000000
 51
71.000000
  0
ARC
  8
layer 10
 10
0.000000
 20
-0.000000
 30
0.000000
 40
61.500000
 50
71.000000
 51
72.000000
  0
ARC
  8
layer 10
 10
-0.000000
 20
0.000000
 30
0.000000
 40
61.500000
 50
72.000000
 51
73.000000
  0
ARC
  8
layer 10
 10
-0.000000
 20
-0.000000
 30
0.000000
 40
61.500000
 50
73.000000
 51
74.000000
  0
ARC
  8
layer 10
 10
0.000000
 20
-0.000000
 30
0.000000
 40
61.500000
 50
74.000000
 51
75.000000
  0
ARC
  8
layer 10
 10
0.000000
 20
-0.000000
 30
0.000000
 40
61.500000
 50
75.000000
 51
76.000000
  0
ARC
  8
layer 10
 10
-0.000000
 20
0.000000
 30
0.000000
 40
61.500000
 50
76.000000
 51
77.000000
  0
ARC
  8
layer 10
 10
-0.000000
 20
0.000000
 30
0.000000
 40
61.500000
 50
77.000000
 51
78.000000
  0
ARC
  8
layer 10
 10
0.000000
 20
0.000000
 30
0.000000
 40
61.500000
 50
78.000000
 51
79.000000
  0
ARC
  8
layer 10
 10
-0.000000
 20
0.000000
 30
0.000000
 40
61.500000
 50
79.000000
 51
80.000000
  0
ARC
  8
layer 10
 10
0.000000
 20
0.000000
 30
0.000000
 40
61.500000
 50
80.000000
 51
81.000000
  0
ARC
  8
layer 10
 10
0.000000
 20
-0.000000
 30
0.000000
 40
61.500000
 50
81.000000
 51
82.000000
  0
ARC
  8
layer 10
 10
-0.000000
 20
0.000000
 30
0.000000
 40
61.500000
 50
82.000000
 51
83.000000
  0
ARC
  8
layer 10
 10
-0.000000
 20
0.000000
 30
0.000000
 40
61.500000
 50
83.000000
 51
84.000000
  0
ARC
  8
layer 10
 10
-0.000000
 20
0.000000
 30
0.000000
 40
61.500000
 50
84.000000
 51
85.000000
  0
ARC
  8
layer 10
 10
0.000000
 20
0.000000
 30
0.000000
 40
61.500000
 50
85.000000
 51
86.000000
  0
ARC
  8
layer 10
 10
-0.000000
 20
0.000000
 30
0.000000
 40
61.500000
 50
86.000000
 51
87.000000
  0
ARC
  8
layer 10
 10
0.000000
 20
0.000000
 30
0.000000
 40
61.500000
 50
87.000000
 51
88.000000
  0
ARC
  8
layer 10
 10
-0.000000
 20
0.000000
 30
0.000000
 40
61.500000
 50
88.000000
 51
89.000000
  0
ARC
  8
layer 10
 10
0.000000
 20
0.000000
 30
0.000000
 40
61.500000
 50
89.000000
 51
91.000000
  0
ARC
  8
layer 10
 10
0.000000
 20
0.000000
 30
0.000000
 40
61.500000
 50
91.000000
 51
92.000000
  0
ARC
  8
layer 10
 10
-0.000000
 20
0.000000
 30
0.000000
 40
61.500000
 50
92.000000
 51
93.000000
  0
ARC
  8
layer 10
 10
0.000000
 20
0.000000
 30
0.000000
 40
61.500000
 50
93.000000
 51
94.000000
  0
ARC
  8
layer 10
 10
-0.000000
 20
0.000000
 30
0.000000
 40
61.500000
 50
94.000000
 51
95.000000
  0
ARC
  8
layer 10
 10
0.000000
 20
0.000000
 30
0.000000
 40
61.500000
 50
95.000000
 51
96.000000
  0
ARC
  8
layer 10
 10
0.000000
 20
0.000000
 30
0.000000
 40
61.500000
 50
96.000000
 51
97.000000
  0
ARC
  8
layer 10
 10
0.000000
 20
0.000000
 30
0.000000
 40
61.500000
 50
97.000000
 51
98.000000
  0
ARC
  8
layer 10
 10
-0.000000
 20
0.000000
 30
0.000000
 40
61.500000
 50
98.000000
 51
99.000000
  0
ARC
  8
layer 10
 10
-0.000000
 20
0.000000
 30
0.000000
 40
61.500000
 50
99.000000
 51
100.000000
  0
ARC
  8
layer 10
 10
0.000000
 20
0.000000
 30
0.000000
 40
61.500000
 50
100.000000
 51
101.000000
  0
ARC
  8
layer 10
 10
-0.000000
 20
-0.000000
 30
0.000000
 40
61.500000
 50
101.000000
 51
102.000000
  0
ARC
  8
layer 10
 10
0.000000
 20
0.000000
 30
0.000000
 40
61.500000
 50
102.000000
 51
103.000000
  0
ARC
  8
layer 10
 10
0.000000
 20
0.000000
 30
0.000000
 40
61.500000
 50
103.000000
 51
104.000000
  0
ARC
  8
layer 10
 10
-0.000000
 20
0.000000
 30
0.000000
 40
61.500000
 50
104.000000
 51
105.000000
  0
ARC
  8
layer 10
 10
-0.000000
 20
-0.000000
 30
0.000000
 40
61.500000
 50
105.000000
 51
106.000000
  0
ARC
  8
layer 10
 10
0.000000
 20
0.000000
 30
0.000000
 40
61.500000
 50
106.000000
 51
107.000000
  0
ARC
  8
layer 10
 10
0.000000
 20
0.000000
 30
0.000000
 40
61.500000
 50
107.000000
 51
108.000000
  0
ARC
  8
layer 10
 10
-0.000000
 20
-0.000000
 30
0.000000
 40
61.500000
 50
108.000000
 51
109.000000
  0
ARC
  8
layer 10
 10
-0.000000
 20
0.000000
 30
0.000000
 40
61.500000
 50
109.000000
 51
110.000000
  0
ARC
  8
layer 10
 10
0.000000
 20
0.000000
 30
0.000000
 40
61.500000
 50
110.000000
 51
111.000000
  0
ARC
  8
layer 10
 10
-0.000000
 20
-0.000000
 30
0.000000
 40
61.500000
 50
111.000000
 51
112.000000
  0
ARC
  8
layer 10
 10
-0.000000
 20
0.000000
 30
0.000000
 40
61.500000
 50
112.000000
 51
113.000000
  0
ARC
  8
layer 10
 10
-0.000000
 20
-0.000000
 30
0.000000
 40
61.500000
 50
113.000000
 51
114.000000
  0
ARC
  8
layer 10
 10
0.000000
 20
0.000000
 30
0.000000
 40
61.500000
 50
114.000000
 51
115.000000
  0
ENDSEC
  0
EOF
